<?xml version="1.0" encoding="UTF-8"?>
<svg version="1.1" xmlns="http://www.w3.org/2000/svg" width="500" height="500">
<path d="M0 0 C2.00076168 0.08888731 4.00152373 0.17776712 6.0023039 0.26623726 C8.07760541 0.36098407 10.15236309 0.46381227 12.22716141 0.56896973 C16.17256561 0.76785286 20.1188232 0.937599 24.06588745 1.10058594 C31.31584269 1.40124076 38.56465875 1.7241172 45.81334949 2.05347443 C48.67477837 2.18332378 51.53625282 2.31215533 54.39772469 2.44105339 C61.13941366 2.74481044 67.88101246 3.0505123 74.62255859 3.35742188 C81.5438695 3.67246982 88.4653497 3.98359216 95.38691562 4.2929821 C101.39023918 4.56149219 107.39344028 4.83263042 113.39655262 5.10582161 C116.95709952 5.26781577 120.51768495 5.42878793 124.07839775 5.58709717 C128.02298267 5.76258276 131.96730633 5.94353881 135.91162109 6.125 C137.6546199 6.20140717 137.6546199 6.20140717 139.43283081 6.27935791 C144.80009763 6.53061485 150.04723182 6.87901964 155.34741211 7.7734375 C155.45992971 16.37409244 155.1061507 24.92310896 154.64477539 33.50952148 C154.56897512 34.95962349 154.49341021 36.40973781 154.4180603 37.85986328 C154.2141947 41.76707312 154.00656589 45.67407376 153.7978425 49.58102679 C153.66722113 52.02896677 153.53739386 54.47694759 153.4078331 56.92494392 C152.95474027 65.48471569 152.49844455 74.04431019 152.03930664 82.60375977 C151.61304547 90.55198841 151.19404782 98.50057778 150.77838337 106.44936699 C150.41970967 113.30178513 150.05577408 120.15391114 149.68785274 127.00583893 C149.46886187 131.08596723 149.25195739 135.16617907 149.04043961 139.24670219 C148.84125659 143.08599366 148.63547219 146.92487767 148.42483902 150.76355743 C148.34913971 152.16293792 148.27569768 153.56244288 148.20482635 154.96207619 C146.88857072 180.8580346 146.88857072 180.8580346 139.34741211 187.7734375 C130.41357516 194.12458341 121.15117965 195.74347275 110.34741211 194.7734375 C101.57864052 193.02564158 93.86762546 190.15275572 88.01147461 183.18359375 C83.22377314 175.96808622 84.18109795 166.4962879 84.8605957 158.24389648 C84.92711838 157.34981079 84.99364105 156.4557251 85.06217957 155.5345459 C85.28172362 152.61217054 85.51361569 149.69092319 85.74584961 146.76953125 C85.90254346 144.72035613 86.05850657 142.67112501 86.21377563 140.62184143 C86.62315111 135.24730868 87.04325042 129.87366493 87.46539307 124.50012207 C87.80731958 120.12433962 88.14156713 115.74798669 88.47540855 111.37158108 C88.875471 106.12903176 89.27890948 100.88674448 89.68334961 95.64453125 C89.7597102 94.65388609 89.83607079 93.66324093 89.91474533 92.64257622 C90.13319544 89.81943646 90.35390783 86.99648343 90.57543945 84.17358398 C90.63887039 83.35203323 90.70230133 82.53048248 90.76765442 81.68403625 C91.18821654 76.36602018 91.73551079 71.07293781 92.34741211 65.7734375 C90.81185165 65.78043922 90.81185165 65.78043922 89.24526978 65.7875824 C78.75941628 65.82041641 68.28996851 65.65471166 57.80834961 65.37109375 C56.18706542 65.32854052 54.56577832 65.28609816 52.94448853 65.24375916 C49.57810331 65.15530492 46.21176806 65.06518125 42.84545898 64.97387695 C38.57537353 64.85824345 34.30517907 64.74739561 30.03493309 64.63787174 C26.69731879 64.55163278 23.35978478 64.46254628 20.02226639 64.37267876 C18.44935152 64.33070343 16.87641227 64.28962968 15.30344772 64.2495594 C-20.81524857 63.32337561 -20.81524857 63.32337561 -29.08227539 55.65234375 C-36.86518575 46.33995599 -37.62335908 35.36844274 -36.65258789 23.7734375 C-35.09958073 15.32633776 -30.56161704 7.93115285 -23.65258789 2.7734375 C-15.83367641 -0.65448255 -8.37769252 -0.46188362 0 0 Z " fill="#19C995" transform="translate(168.652587890625,156.2265625)"/>
<path d="M0 0 C1.1742047 0.04119965 2.3484094 0.08239929 3.55819607 0.12484741 C4.82559155 0.1756546 6.09298704 0.22646179 7.39878845 0.27880859 C8.74342224 0.3288049 10.08807067 0.37840862 11.43273258 0.42764282 C15.64179846 0.58439052 19.85027715 0.75419301 24.05870056 0.92724609 C25.35167431 0.98021851 26.64464806 1.03319092 27.97680283 1.08776855 C36.49361625 1.4418572 45.00926643 1.82037189 53.52463794 2.20728302 C56.38606682 2.33713238 59.24754127 2.46596392 62.10901314 2.59486198 C68.85070211 2.89861903 75.59230091 3.20432089 82.33384705 3.51123047 C89.25515795 3.82627842 96.17663815 4.13740075 103.09820408 4.4467907 C109.10152763 4.71530078 115.10472873 4.98643902 121.10784107 5.2596302 C124.66838797 5.42162436 128.2289734 5.58259652 131.7896862 5.74090576 C135.73427112 5.91639135 139.67859479 6.09734741 143.62290955 6.27880859 C145.36590836 6.35521576 145.36590836 6.35521576 147.14411926 6.4331665 C152.51138608 6.68442344 157.75852028 7.03282823 163.05870056 7.92724609 C163.1641964 16.90596374 162.83849984 25.82862931 162.35606384 34.79272461 C162.28024212 36.24459553 162.20467798 37.69647991 162.12934875 39.14837646 C161.9257249 43.05547333 161.71801739 46.96234222 161.50913095 50.86916089 C161.37843776 53.31692725 161.24862938 55.76473894 161.11912155 58.21256828 C160.66626094 66.7712046 160.2099887 75.32965139 159.75059509 83.88793945 C159.32401024 91.83676067 158.9050811 99.7859607 158.48967183 107.73537308 C158.13119116 114.58865557 157.76724802 121.44163421 157.39914119 128.29440635 C157.18003987 132.37504165 156.96310043 136.45576253 156.75172806 140.53680611 C156.5527799 144.37448035 156.34698555 148.21172938 156.13612747 152.04876709 C156.06033475 153.44856345 155.98689503 154.84848974 155.91611481 156.24854851 C154.65817758 181.03287519 154.65817758 181.03287519 147.05870056 187.92724609 C138.45483493 193.65341813 128.32035365 196.09666525 118.05870056 194.92724609 C108.72727997 192.94853522 100.03019507 189.90086534 94.62120056 181.61474609 C91.31929814 174.73071988 91.96292034 166.94113521 92.57188416 159.52709961 C92.63840683 158.63476624 92.7049295 157.74243286 92.77346802 156.82305908 C92.99338507 153.9000873 93.22512258 150.97818655 93.45713806 148.05615234 C93.61380972 146.00794194 93.76977341 143.95967727 93.92506409 141.91136169 C94.33480026 136.53393941 94.75474812 131.15736083 95.17668152 125.78088379 C95.51822536 121.40740308 95.85266905 117.03339345 96.18669701 112.65933323 C96.8792825 103.59124761 97.57659609 94.52351645 98.28672791 85.45678711 C98.35015884 84.63726059 98.41358978 83.81773407 98.47894287 82.97337341 C98.92734322 77.28285579 99.47141849 71.60505341 100.05870056 65.92724609 C99.15861267 65.93191391 98.25852478 65.93658173 97.3311615 65.94139099 C87.9834671 65.96853913 78.65276041 65.80460325 69.30870056 65.52490234 C67.83824567 65.4823159 66.36778657 65.43987453 64.89732361 65.39756775 C61.83502554 65.308987 58.7727763 65.21891513 55.71055603 65.12768555 C52.62368957 65.03578801 49.5367823 64.94558283 46.44981384 64.85717773 C38.31579731 64.62422169 30.1822222 64.3821192 22.04917908 64.11715126 C17.72064231 63.97686284 13.39193101 63.85612542 9.06260681 63.74316406 C7.01961283 63.67902123 4.97664181 63.61414068 2.93370056 63.54833984 C2.04658386 63.52989517 1.15946716 63.5114505 0.24546814 63.4924469 C-7.87420581 63.19825796 -15.28550434 61.4529141 -21.37098694 55.80615234 C-29.01952635 46.65454175 -29.718016 36.34160251 -28.94129944 24.92724609 C-27.33155175 16.1710389 -23.62012873 9.8051326 -16.94129944 3.92724609 C-11.4199653 0.46287957 -6.42979091 -0.23963562 0 0 Z " fill="#19C995" transform="translate(256.94129943847656,70.07275390625)"/>
<path d="M0 0 C1.06830048 0.04526321 2.13660095 0.09052643 3.23727417 0.13716125 C6.77716443 0.28986688 10.3160804 0.45887696 13.85522461 0.62792969 C16.35814533 0.73910618 18.86111187 0.84925536 21.36412048 0.95843506 C27.31250927 1.22035707 33.26034673 1.49247314 39.2080397 1.76959586 C46.43960185 2.10599084 53.67181256 2.42756923 60.90405273 2.74902344 C69.87257525 3.14863963 78.84083557 3.55339917 87.8088131 3.965065 C98.54470556 4.45774623 109.28093564 4.93597647 120.01879883 5.38378906 C121.6359644 5.45174242 121.6359644 5.45174242 123.28579998 5.52106857 C128.29878405 5.7316591 133.31185261 5.93919329 138.32521057 6.14068604 C140.08058336 6.21407149 141.83594978 6.28760931 143.59130859 6.36132812 C144.36770376 6.39117546 145.14409893 6.4210228 145.94402122 6.4517746 C150.42347971 6.64422708 154.7666109 7.09329538 159.19506836 7.79980469 C158.17056154 27.35915078 157.14483073 46.91843233 156.11766911 66.4776392 C155.64069759 75.56066501 155.16411665 84.643711 154.68847656 93.72680664 C154.27358806 101.64973573 153.85794495 109.57262482 153.4414205 117.49546808 C153.221193 121.68497504 153.00132652 125.87450019 152.7823658 130.06407356 C152.57563098 134.01948802 152.36787585 137.97484765 152.15938759 141.93017006 C152.08364775 143.37031396 152.00825885 144.81047637 151.93327713 146.25065994 C151.69797385 150.7676826 151.45172774 155.28394571 151.19506836 159.79980469 C151.15685998 160.47875439 151.1186516 161.1577041 151.07928538 161.85722804 C150.9619965 163.90417141 150.83819461 165.95061929 150.71238708 167.99705505 C150.64027732 169.19576453 150.56816755 170.39447401 150.49387264 171.62950802 C149.83759491 178.59257788 147.43352456 183.48012567 142.29272461 188.26074219 C134.1820266 194.21160814 123.99366867 195.67489981 114.19506836 194.79980469 C104.49659089 192.80540568 96.90652495 189.55808236 90.75756836 181.67480469 C84.66579648 170.46594444 88.75208208 153.67990916 89.69116211 141.42480469 C89.84600025 139.36647703 90.00054133 137.308127 90.15480042 135.24975586 C90.47729735 130.95973925 90.80290787 126.66997408 91.13085938 122.38037109 C91.5510445 116.88187558 91.96406429 111.38286979 92.37487698 105.88366699 C92.69226899 101.6439042 93.01305641 97.40440372 93.33491707 93.16497803 C93.48858164 91.13644698 93.64127133 89.10784184 93.79296684 87.0791626 C94.00489942 84.25269908 94.22131316 81.42661403 94.43896484 78.60058594 C94.50082474 77.7642009 94.56268463 76.92781586 94.62641907 76.06608582 C94.90208892 72.5413117 95.26981844 69.21074906 96.19506836 65.79980469 C94.6588961 65.80680641 94.6588961 65.80680641 93.09169006 65.81394958 C82.61794027 65.8467368 72.1606645 65.68131503 61.69116211 65.39746094 C60.07227366 65.35490361 58.45338219 65.31246137 56.83448792 65.27012634 C53.47229902 65.18166505 50.11015978 65.09154647 46.74804688 65.00024414 C42.48702598 64.88470449 38.22589857 64.77381737 33.96472073 64.66423893 C30.63135738 64.577914 27.29807103 64.48885426 23.96479988 64.39904594 C22.39550139 64.3571186 20.82617982 64.31604445 19.25683403 64.27592659 C11.31700132 64.07164257 3.3834318 63.80651325 -4.546875 63.36010742 C-5.81131943 63.28952621 -7.07576385 63.21894501 -8.37852478 63.14622498 C-15.94459619 62.38127185 -20.99654453 60.0518201 -26.24243164 54.54980469 C-32.55660287 46.70801138 -33.9790762 38.81892173 -33.80493164 28.79980469 C-32.6834569 20.01310453 -29.54734443 11.43319649 -23.10571289 5.13964844 C-15.95090374 -0.37518199 -8.6740204 -0.44216165 0 0 Z " fill="#19C995" transform="translate(72.804931640625,241.2001953125)"/>
<path d="M0 0 C0.33 0 0.66 0 1 0 C1.03758423 0.91495239 1.03758423 0.91495239 1.07592773 1.84838867 C1.1924058 4.62827898 1.31489632 7.4078734 1.4375 10.1875 C1.47681641 11.14720703 1.51613281 12.10691406 1.55664062 13.09570312 C1.59853516 14.02705078 1.64042969 14.95839844 1.68359375 15.91796875 C1.73858032 17.19837036 1.73858032 17.19837036 1.79467773 18.50463867 C2.00531094 21.06454594 2.44841536 23.49333243 3 26 C3.66 26 4.32 26 5 26 C5 26.66 5 27.32 5 28 C5.99 28.33 6.98 28.66 8 29 C8 29.99 8 30.98 8 32 C4.25925705 30.79761834 2.60950033 28.52496914 0.8203125 25.1015625 C-2.27234731 17.17846259 -0.83926846 8.23774269 0 0 Z " fill="#31BA95" transform="translate(254,311)"/>
<path d="M0 0 C6.75 -0.125 6.75 -0.125 9 1 C10.4465242 1.15067214 11.8987934 1.24861036 13.3515625 1.31640625 C14.62773437 1.37924805 14.62773437 1.37924805 15.9296875 1.44335938 C16.81914062 1.48267578 17.70859375 1.52199219 18.625 1.5625 C19.97078125 1.62727539 19.97078125 1.62727539 21.34375 1.69335938 C23.56234283 1.79956861 25.7810488 1.90161194 28 2 C20.86168489 5.8441496 12.2807151 4.57534765 4.6875 2.5 C3.11968974 2.01690868 1.55479802 1.52345905 0 1 C0 0.67 0 0.34 0 0 Z " fill="#34BA95" transform="translate(268,347)"/>
<path d="M0 0 C-0.33 0.99 -0.66 1.98 -1 3 C1.34591852 5.7710688 3.14776201 6.52059284 6.6875 7.1875 C7.49574219 7.34605469 8.30398437 7.50460938 9.13671875 7.66796875 C9.75160156 7.77753906 10.36648437 7.88710937 11 8 C11 8.33 11 8.66 11 9 C4.34818843 8.72738477 -1.45905623 7.93841591 -7 4 C-7.66 3.01 -8.32 2.02 -9 1 C-5.94152152 0.45627049 -3.11227195 0 0 0 Z " fill="#2BBD92" transform="translate(149,210)"/>
<path d="M0 0 C0.33 0 0.66 0 1 0 C1 5.94 1 11.88 1 18 C1.66 18 2.32 18 3 18 C3 18.66 3 19.32 3 20 C3.66 20.33 4.32 20.66 5 21 C5 21.66 5 22.32 5 23 C4.34 23 3.68 23 3 23 C2.67 23.66 2.34 24.32 2 25 C-0.7719047 16.30843441 -1.2089048 9.03037323 0 0 Z " fill="#2CBB92" transform="translate(40,264)"/>
<path d="M0 0 C2.475 0.99 2.475 0.99 5 2 C5 2.66 5 3.32 5 4 C1.62902617 5.49821059 -0.20442119 6 -4 6 C-3.0022242 3.00667261 -2.2477975 2.05233685 0 0 Z " fill="#24C394" transform="translate(394,257)"/>
<path d="M0 0 C0.33 0 0.66 0 1 0 C1.125 6.75 1.125 6.75 0 9 C-0.22950319 11.204364 -0.41075933 13.41392173 -0.5625 15.625 C-0.64628906 16.81351563 -0.73007813 18.00203125 -0.81640625 19.2265625 C-0.87699219 20.14179688 -0.93757812 21.05703125 -1 22 C-1.33 22 -1.66 22 -2 22 C-2.05434116 19.4580411 -2.0938339 16.91726318 -2.125 14.375 C-2.14175781 13.66214844 -2.15851563 12.94929687 -2.17578125 12.21484375 C-2.21684602 7.7387836 -1.69086567 4.22050722 0 0 Z " fill="#30BB92" transform="translate(134,174)"/>
<path d="M0 0 C-3.44069624 2.29379749 -4.72290301 3 -9 3 C-9 3.66 -9 4.32 -9 5 C-11 6.625 -11 6.625 -13 8 C-13.66 7.67 -14.32 7.34 -15 7 C-13.73427767 5.84852339 -12.46222094 4.70400686 -11.1875 3.5625 C-10.47980469 2.92441406 -9.77210938 2.28632812 -9.04296875 1.62890625 C-5.80460367 -0.95311715 -3.83056683 -1.1887966 0 0 Z " fill="#33B991" transform="translate(250,72)"/>
<path d="M0 0 C0.75 1.625 0.75 1.625 1 4 C-0.8125 7.25 -0.8125 7.25 -3 10 C-3.66 10 -4.32 10 -5 10 C-4.49701212 5.59885603 -2.91227269 3.28804981 0 0 Z " fill="#2EBE95" transform="translate(140,164)"/>
<path d="M0 0 C-5.625 4 -5.625 4 -9 4 C-9.33 3.01 -9.66 2.02 -10 1 C-3.71428571 -1.42857143 -3.71428571 -1.42857143 0 0 Z " fill="#2BBE94" transform="translate(308,344)"/>
<path d="M0 0 C-0.25 1.875 -0.25 1.875 -1 4 C-3.0625 5.25 -3.0625 5.25 -5 6 C-5 6.66 -5 7.32 -5 8 C-5.66 8 -6.32 8 -7 8 C-4.18918919 0 -4.18918919 0 0 0 Z " fill="#30BC94" transform="translate(52,246)"/>
<path d="M0 0 C1.32830615 3.98491845 0.23204404 5.40048548 -1.4375 9.1875 C-1.91058594 10.27417969 -2.38367188 11.36085938 -2.87109375 12.48046875 C-3.42990234 13.72763672 -3.42990234 13.72763672 -4 15 C-4.90425521 12.49326721 -5.09182674 11.28321301 -4.2578125 8.7109375 C-3.69707031 7.55464844 -3.69707031 7.55464844 -3.125 6.375 C-2.75632813 5.59898438 -2.38765625 4.82296875 -2.0078125 4.0234375 C-1.33957266 2.68177767 -0.6703127 1.3406254 0 0 Z " fill="#34B993" transform="translate(234,80)"/>
<path d="M0 0 C0.598125 0.350625 1.19625 0.70125 1.8125 1.0625 C1.4825 2.0525 1.1525 3.0425 0.8125 4.0625 C-4.0625 2.3125 -4.0625 2.3125 -5.1875 0.0625 C-2.1875 -0.9375 -2.1875 -0.9375 0 0 Z " fill="#29C095" transform="translate(54.1875,296.9375)"/>
<path d="M0 0 C0 3 0 3 -2 5.1875 C-2.66 5.785625 -3.32 6.38375 -4 7 C-4 5.35 -4 3.7 -4 2 C-2.68 1.34 -1.36 0.68 0 0 Z " fill="#31BB94" transform="translate(408,250)"/>
</svg>
