<?xml version="1.0" encoding="UTF-8"?>
<svg version="1.1" xmlns="http://www.w3.org/2000/svg" width="286" height="128">
<path d="M0 0 C94.38 0 188.76 0 286 0 C286 42.24 286 84.48 286 128 C191.62 128 97.24 128 0 128 C0 85.76 0 43.52 0 0 Z " fill="#FDFDFD" transform="translate(0,0)"/>
<path d="M0 0 C34.6665146 0 34.6665146 0 42.58984375 7.41796875 C46.71764695 12.0488837 46.48547594 18.11295682 46.3828125 24.0234375 C45.6419256 29.78421111 42.68773661 33.31226339 38.6875 37.3125 C30.68715734 42.33597097 24.31412003 42.29106625 15 42 C15 49.92 15 57.84 15 66 C10.05 66 5.1 66 0 66 C0 44.22 0 22.44 0 0 Z " fill="#050505" transform="translate(233,47)"/>
<path d="M0 0 C40.92 0 81.84 0 124 0 C124 4.62 124 9.24 124 14 C83.08 14 42.16 14 0 14 C0 9.38 0 4.76 0 0 Z " fill="#080808" transform="translate(19,101)"/>
<path d="M0 0 C40.92 0 81.84 0 124 0 C124 4.29 124 8.58 124 13 C83.08 13 42.16 13 0 13 C0 8.71 0 4.42 0 0 Z " fill="#010101" transform="translate(159,23)"/>
<path d="M0 0 C12.54 0 25.08 0 38 0 C38 4.29 38 8.58 38 13 C30.41 13 22.82 13 15 13 C15 17.62 15 22.24 15 27 C21.93 27 28.86 27 36 27 C36 30.96 36 34.92 36 39 C29.07 39 22.14 39 15 39 C15 47.91 15 56.82 15 66 C10.05 66 5.1 66 0 66 C0 44.22 0 22.44 0 0 Z " fill="#030303" transform="translate(32,24)"/>
<path d="M0 0 C15.51 0 31.02 0 47 0 C47 4.29 47 8.58 47 13 C41.72 13 36.44 13 31 13 C31 30.49 31 47.98 31 66 C26.05 66 21.1 66 16 66 C16 48.51 16 31.02 16 13 C10.72 13 5.44 13 0 13 C0 8.71 0 4.42 0 0 Z " fill="#020202" transform="translate(95,24)"/>
<path d="M0 0 C4.95 0 9.9 0 15 0 C15 17.49 15 34.98 15 53 C22.59 53 30.18 53 38 53 C38 57.29 38 61.58 38 66 C25.46 66 12.92 66 0 66 C0 44.22 0 22.44 0 0 Z " fill="#040404" transform="translate(165,47)"/>
<path d="M0 0 C9.76931447 -0.43743199 9.76931447 -0.43743199 14 3 C15.61281328 6.22562656 15.57906485 9.51182363 15 13 C13.125 15.5 13.125 15.5 10 17 C6.59045729 17.31232452 3.4387355 17.18339923 0 17 C0 11.39 0 5.78 0 0 Z " fill="#FAFAFA" transform="translate(248,59)"/>
</svg>
