<?xml version="1.0" encoding="UTF-8"?>
<svg version="1.1" xmlns="http://www.w3.org/2000/svg" width="500" height="500">
<path d="M0 0 C165 0 330 0 500 0 C500 165 500 330 500 500 C335 500 170 500 0 500 C0 335 0 170 0 0 Z " fill="#4B4A49" transform="translate(0,0)"/>
<path d="M0 0 C1.33840651 0.62084038 2.67280071 1.25037544 4.00390625 1.88671875 C5.11318481 2.4135022 5.11318481 2.4135022 6.24487305 2.95092773 C14.15162904 6.76569831 21.82166338 10.99853175 29.50390625 15.2421875 C35.50449787 18.5541895 41.54947548 21.77989121 47.59924316 25.00094604 C57.49111872 30.27171649 67.34026552 35.61336631 77.12890625 41.07421875 C78.12059814 41.62513184 79.11229004 42.17604492 80.1340332 42.74365234 C81.97608932 43.77680624 83.80250297 44.83867332 85.60710144 45.9359436 C88.47326735 47.64738346 88.47326735 47.64738346 91.46289062 48.50463867 C95.25889685 50.0241439 97.04494623 51.30933911 99.56640625 54.57421875 C101.8529356 62.91004747 101.13772529 72.04519797 101.0625 80.60546875 C101.0724529 83.20187721 101.08552426 85.79827542 101.10157776 88.39465332 C101.12229395 93.83242041 101.10377366 99.2680278 101.05541992 104.70556641 C101.00039034 110.97995795 101.02858386 117.24995814 101.09942764 123.5240922 C101.16507433 129.57577473 101.16309831 135.62528313 101.13325691 141.67735291 C101.1277725 144.24497494 101.14034888 146.8127019 101.17138481 149.38014221 C101.36351014 168.95395919 101.36351014 168.95395919 98.37040138 173.31804848 C95.21069441 176.23097163 91.627642 177.431738 87.56640625 178.57421875 C85.65332449 179.57664038 85.65332449 179.57664038 84.0859375 180.6484375 C83.19261719 181.18082031 82.29929687 181.71320313 81.37890625 182.26171875 C80.47785156 182.80183594 79.57679688 183.34195313 78.6484375 183.8984375 C76.26048054 185.19683235 73.95443554 186.2938915 71.46484375 187.359375 C65.54538267 189.94199701 59.99059859 193.13941109 54.37890625 196.32421875 C53.26177246 196.95328125 52.14463867 197.58234375 50.99365234 198.23046875 C46.57339714 200.72285672 42.15579741 203.21877658 37.7734375 205.77734375 C28.65171671 211.09545726 19.28508911 215.92183833 9.89306641 220.74023438 C8.19802979 221.61131836 8.19802979 221.61131836 6.46875 222.5 C5.45288818 223.01989502 4.43702637 223.53979004 3.39038086 224.07543945 C0.55648792 225.53014747 0.55648792 225.53014747 -2.05639648 227.25463867 C-5.05004386 228.91640966 -7.36979361 228.91307807 -10.72265625 228.40625 C-16.14063862 226.74338221 -20.8847044 223.60588266 -25.68017578 220.6484375 C-28.31895214 219.03181038 -31.00281286 217.49489422 -33.68359375 215.94921875 C-37.33260293 213.81982347 -40.95283469 211.65086603 -44.55859375 209.44921875 C-48.64965708 206.98013398 -52.83813405 204.82125823 -57.12890625 202.72265625 C-60.31440478 201.13530613 -63.35684899 199.36432479 -66.43359375 197.57421875 C-67.82238804 196.79620221 -69.21316209 196.02171334 -70.60546875 195.25 C-71.39896729 194.80994629 -72.19246582 194.36989258 -73.01000977 193.91650391 C-75.25921983 192.67079454 -77.50850132 191.42521428 -79.7578125 190.1796875 C-89.02313656 185.0474298 -98.26969702 179.88608928 -107.43359375 174.57421875 C-108.37976563 174.17460937 -109.3259375 173.775 -110.30078125 173.36328125 C-112.43359375 171.57421875 -112.43359375 171.57421875 -112.921875 167.78125 C-112.88871572 166.3156099 -112.82918354 164.85037736 -112.74609375 163.38671875 C-112.72353516 162.63712891 -112.70097656 161.88753906 -112.67773438 161.11523438 C-112.61888532 159.26737405 -112.52920313 157.42054208 -112.43359375 155.57421875 C-108.62066302 156.99104547 -105.2486249 158.76126826 -101.74609375 160.82421875 C-94.80994891 164.85780048 -87.75532161 168.65951884 -80.68359375 172.44921875 C-70.89019139 177.70064159 -61.14036088 183.0199061 -51.44482422 188.44970703 C-47.77894867 190.49935777 -44.10592216 192.53615873 -40.43359375 194.57421875 C-38.39224625 191.90457628 -36.70991923 189.3528232 -35.24609375 186.32421875 C-34.90191406 185.6178125 -34.55773437 184.91140625 -34.203125 184.18359375 C-33.94917969 183.6525 -33.69523437 183.12140625 -33.43359375 182.57421875 C-36.09694007 180.9021924 -38.76466665 179.23731885 -41.43359375 177.57421875 C-42.32046875 177.01734375 -43.20734375 176.46046875 -44.12109375 175.88671875 C-46.37484768 174.53188686 -46.37484768 174.53188686 -48.71875 173.6953125 C-51.71356362 172.45860529 -54.3845641 170.95817007 -57.18359375 169.32421875 C-62.98609696 165.9582994 -68.83064456 162.67381961 -74.69262695 159.41259766 C-83.54349786 154.48708898 -92.32036542 149.52622972 -100.890625 144.125 C-104.30656907 142.04185131 -107.82969732 140.30686126 -111.43359375 138.57421875 C-113.21081065 136.79700185 -112.55347474 134.42174675 -112.55801392 132.05558777 C-112.55441864 131.26437027 -112.55082336 130.47315277 -112.54711914 129.65795898 C-112.54726517 128.82875946 -112.54741119 127.99955994 -112.54756165 127.14523315 C-112.54686226 124.39106677 -112.53906868 121.63696714 -112.53125 118.8828125 C-112.52938591 116.97852109 -112.52796197 115.0742292 -112.52696228 113.16993713 C-112.52313638 108.14753912 -112.51330548 103.12516983 -112.5022583 98.1027832 C-112.49204573 92.98193755 -112.48746499 87.86108727 -112.48242188 82.74023438 C-112.47168328 72.68488318 -112.45460599 62.62955335 -112.43359375 52.57421875 C-110.22049168 51.30521741 -108.00687778 50.0371234 -105.79296875 48.76953125 C-105.17341309 48.41415283 -104.55385742 48.05877441 -103.91552734 47.69262695 C-100.19611953 45.56410908 -96.4569771 43.48123258 -92.68359375 41.44921875 C-89.30448291 39.62479316 -86.01104846 37.7201225 -82.74609375 35.69921875 C-77.90109968 32.75706936 -72.89018617 30.24855829 -67.80981445 27.74658203 C-62.80255701 25.2758613 -57.85801303 22.70584648 -52.93359375 20.07421875 C-45.50823337 16.11425238 -38.01122325 12.31862342 -30.47021484 8.58447266 C-26.87005646 6.79863528 -23.2773293 4.99793579 -19.68359375 3.19921875 C-18.37633363 2.54550983 -17.06904404 1.89185982 -15.76171875 1.23828125 C-13.90871701 0.31178038 -12.06773621 -0.64609692 -10.29296875 -1.71484375 C-6.55017962 -3.14591018 -3.5409588 -1.47036401 0 0 Z " fill="#1D1D1D" transform="translate(247.43359375,93.42578125)"/>
<path d="M0 0 C0.72509766 -0.01224609 1.45019531 -0.02449219 2.19726562 -0.03710938 C6.99738077 -0.05004769 10.95941188 0.68346772 15.5625 2.1875 C16.61050781 2.47109375 17.65851563 2.7546875 18.73828125 3.046875 C36.34965156 8.04736371 49.71650271 18.79618118 58.8125 34.625 C67.04352088 50.31881314 67.01633372 66.46328417 62.22607422 83.15869141 C60.91968152 87.1528501 59.05509909 90.80831543 57.02734375 94.4765625 C55.48094295 97.23157422 55.48094295 97.23157422 54.19921875 100.4453125 C52.30162808 104.97227259 49.85083749 109.17016626 47.4375 113.4375 C43.12304285 121.15579275 39.1594002 128.9723096 35.46826172 137.00683594 C33.68349513 140.88411664 31.81995352 144.55671313 29.5625 148.1875 C28.60886316 149.89027831 27.65566223 151.59330998 26.70825195 153.29956055 C23.24045414 159.54347236 19.66569985 165.70196476 15.94604492 171.79956055 C10.90243412 180.06763363 6.29059768 188.22698452 2.5625 197.1875 C-6.41187342 195.74518999 -14.2386712 191.94990733 -22.4375 188.1875 C-22.03088011 183.85022116 -20.24731831 181.07611537 -17.93115234 177.52587891 C-14.99686728 172.93212566 -12.40604476 168.13312385 -9.75 163.375 C-9.13423096 162.27422119 -8.51846191 161.17344238 -7.8840332 160.03930664 C-3.79209556 152.69511719 0.18364637 145.29970132 4.06274414 137.84130859 C8.05215165 130.18945316 12.28374557 122.68048782 16.5625 115.1875 C15.64597656 115.4040625 15.64597656 115.4040625 14.7109375 115.625 C-4.72097637 119.56612056 -23.11953749 118.29348507 -40.30859375 108.3203125 C-54.10288526 98.91746211 -59.92823863 85.50569217 -63.125 69.8125 C-64.62620779 52.3984896 -61.71368682 38.53501416 -51.4375 24.1875 C-50.91542969 23.43855469 -50.39335937 22.68960938 -49.85546875 21.91796875 C-40.95539095 10.49432459 -25.3514522 3.57900347 -11.49609375 0.54296875 C-7.65008965 0.09598743 -3.86885133 0.00342074 0 0 Z " fill="#F0F0F0" transform="translate(240.4375,112.8125)"/>
<path d="M0 0 C2.77125888 0.92690258 5.17266329 2.21502104 7.73535156 3.62133789 C8.81284668 4.20842529 9.8903418 4.7955127 11.00048828 5.40039062 C12.14533691 6.02888916 13.29018555 6.6573877 14.46972656 7.30493164 C22.21219108 11.52452054 29.96664612 15.67605256 37.88525391 19.55761719 C54.90246768 27.97861937 71.5422569 37.27186209 88.10009766 46.55541992 C91.94751118 48.71000695 95.80272968 50.85055139 99.65722656 52.99243164 C100.35477051 53.38084229 101.05231445 53.76925293 101.77099609 54.16943359 C107.56956804 57.39428223 113.39422222 60.56488382 119.21972656 63.74243164 C119.21972656 108.95243164 119.21972656 154.16243164 119.21972656 200.74243164 C101.34530796 210.79679211 101.34530796 210.79679211 94.09472656 214.80493164 C89.23840576 217.49274626 84.39841017 220.20312231 79.59326172 222.98144531 C75.02735936 225.62140645 70.4562738 228.17138855 65.71972656 230.49243164 C53.84914274 236.31603795 42.2023455 242.72453543 30.84472656 249.49243164 C25.67453021 252.56013135 20.35237869 255.24942226 14.95117188 257.8815918 C10.52675802 260.04451954 6.31309453 262.38545138 2.21191406 265.12524414 C-3.25782048 266.81978935 -10.85291982 261.47526291 -15.78027344 259.11743164 C-17.17705322 258.4508252 -17.17705322 258.4508252 -18.60205078 257.77075195 C-26.21792975 254.09502802 -33.49675955 250.03233739 -40.78027344 245.74243164 C-45.63345923 243.03176652 -50.52892395 240.40079646 -55.44433594 237.80493164 C-56.08959229 237.46333008 -56.73484863 237.12172852 -57.3996582 236.76977539 C-58.64094476 236.11349523 -59.88350026 235.45960585 -61.12768555 234.80883789 C-64.65263247 232.94612782 -68.08791504 230.97475896 -71.49902344 228.91040039 C-78.1382149 224.89477563 -84.92883928 221.15824734 -91.71191406 217.39282227 C-93.7841996 216.23835657 -95.839301 215.05251862 -97.876297 213.83686829 C-100.68859066 212.23097638 -103.47522256 211.10150328 -106.5287323 210.03056335 C-112.08540165 207.84779321 -116.95478612 205.44523469 -120.78027344 200.74243164 C-124.19798619 191.87932931 -123.49061097 181.70068947 -123.33245802 172.32505989 C-123.28397364 168.54900303 -123.32906773 164.77377705 -123.35879517 160.99768066 C-123.39326163 154.65821005 -123.348108 148.32295876 -123.25732422 141.98413086 C-123.1538958 134.67856366 -123.18740014 127.3830663 -123.29202592 120.07774305 C-123.37857064 113.78014083 -123.39027245 107.48555169 -123.34069121 101.18754625 C-123.31122756 97.43704925 -123.30662446 93.69126954 -123.36988449 89.94108582 C-123.70060835 67.30090394 -123.70060835 67.30090394 -118.88297272 61.43054199 C-114.37351831 57.70451625 -109.44875298 55.46939293 -103.96060562 53.54763794 C-101.17796512 52.51999652 -98.80410994 51.07230922 -96.34277344 49.42993164 C-92.15118947 46.89498733 -87.82063514 44.75043927 -83.42480469 42.59399414 C-78.95181576 40.35687198 -74.59493631 37.90997795 -70.21777344 35.49243164 C-58.03144527 28.78234077 -45.65043889 22.46311158 -33.269104 16.12303162 C-32.53802429 15.74864456 -31.80694458 15.37425751 -31.05371094 14.98852539 C-30.33374939 14.61989883 -29.61378784 14.25127228 -28.87200928 13.87147522 C-21.51844395 10.10265391 -14.20310191 6.26293016 -6.90136719 2.39477539 C-1.86753694 -0.27019356 -1.86753694 -0.27019356 0 0 Z M-10.53027344 20.17993164 C-11.28107178 20.53829102 -12.03187012 20.89665039 -12.80541992 21.26586914 C-18.61479102 24.08017317 -24.23559458 27.1692232 -29.83032227 30.38476562 C-35.02840172 33.36120366 -40.32361539 36.07235683 -45.69702148 38.71630859 C-51.47214768 41.56461639 -57.15912278 44.56424999 -62.83984375 47.59570312 C-66.52284713 49.5578961 -70.21645027 51.4753174 -73.96777344 53.30493164 C-79.61435392 56.0947819 -85.03828297 59.26523165 -90.48602295 62.41999817 C-93.66411186 64.2518867 -96.84977268 66.07048713 -100.03515625 67.88964844 C-100.68449127 68.26058372 -101.33382629 68.63151901 -102.00283813 69.01369476 C-103.59526725 69.92336006 -105.18776361 70.83290765 -106.78027344 71.74243164 C-106.91922992 82.75580936 -107.02587234 93.76897892 -107.09114647 104.78305435 C-107.12247347 109.89726957 -107.1649714 115.01088556 -107.23291016 120.12475586 C-107.29805371 125.0590479 -107.33396916 129.99276325 -107.3495369 134.92745209 C-107.36063226 136.8110131 -107.38229931 138.69454217 -107.41465378 140.57785797 C-107.4581522 143.21446677 -107.46421056 145.84868643 -107.46142578 148.4855957 C-107.48299744 149.26602737 -107.50456909 150.04645905 -107.52679443 150.85054016 C-107.56412508 153.30671354 -107.56412508 153.30671354 -106.78027344 156.74243164 C-103.99256814 159.27456447 -103.99256814 159.27456447 -100.78027344 160.74243164 C-100.09642578 161.10860596 -99.41257813 161.47478027 -98.70800781 161.85205078 C-98.10279297 162.13685303 -97.49757812 162.42165527 -96.87402344 162.71508789 C-92.87195669 164.66401102 -89.08822138 166.87959134 -85.28027344 169.17993164 C-77.01893286 174.11805883 -68.57526248 178.68938241 -60.06738281 183.1875 C-54.66468305 186.06986356 -49.70951092 189.11610459 -44.78027344 192.74243164 C-42.46047963 193.77345111 -40.12597428 194.77179681 -37.78027344 195.74243164 C-34.74582872 197.34947356 -31.75853025 199.03381719 -28.78027344 200.74243164 C-28.78027344 204.18603796 -29.57618876 205.49038557 -31.28027344 208.42993164 C-31.74433594 209.23817383 -32.20839844 210.04641602 -32.68652344 210.87915039 C-33.04746094 211.4940332 -33.40839844 212.10891602 -33.78027344 212.74243164 C-36.99305551 212.74243164 -37.95184126 212.29271845 -40.67480469 210.75805664 C-41.45388184 210.32372314 -42.23295898 209.88938965 -43.03564453 209.44189453 C-43.87949707 208.96357178 -44.72334961 208.48524902 -45.59277344 207.99243164 C-47.41410566 206.97499892 -49.2357305 205.9580899 -51.05761719 204.94165039 C-52.47469971 204.14766846 -52.47469971 204.14766846 -53.92041016 203.33764648 C-58.48081907 200.79387733 -63.06813876 198.30007923 -67.65527344 195.80493164 C-69.48340422 194.8075464 -71.31152916 193.81015047 -73.13964844 192.81274414 C-77.06259811 190.67483306 -80.99046649 188.54624077 -84.92089844 186.42211914 C-85.92266113 185.87934326 -86.92442383 185.33656738 -87.95654297 184.77734375 C-89.87796596 183.73645365 -91.80075383 182.6980779 -93.72509766 181.66259766 C-95.02471436 180.95768188 -95.02471436 180.95768188 -96.35058594 180.23852539 C-97.49164795 179.62255493 -97.49164795 179.62255493 -98.65576172 178.99414062 C-100.78027344 177.74243164 -100.78027344 177.74243164 -102.93212891 176.08642578 C-104.66899975 174.546385 -104.66899975 174.546385 -106.78027344 174.74243164 C-106.78027344 180.02243164 -106.78027344 185.30243164 -106.78027344 190.74243164 C-98.69833495 195.3727089 -90.60095787 199.97049906 -82.47265625 204.51879883 C-78.78253526 206.59123404 -75.13788696 208.71564321 -71.53027344 210.92993164 C-67.01672855 213.68061051 -62.32910816 215.98505077 -57.58496094 218.30883789 C-54.55433067 219.85792049 -51.75018136 221.61128574 -48.90136719 223.46508789 C-46.28823537 225.03874186 -43.58660833 226.34780499 -40.84277344 227.67993164 C-36.2645014 229.92305487 -32.10347955 232.41761649 -27.91308594 235.30883789 C-24.33834649 237.71163895 -20.58521933 239.73124596 -16.78027344 241.74243164 C-15.78253906 242.28512695 -14.78480469 242.82782227 -13.75683594 243.38696289 C-12.71269531 243.93739258 -11.66855469 244.48782227 -10.59277344 245.05493164 C-9.62984375 245.56668945 -8.66691406 246.07844727 -7.67480469 246.60571289 C-3.48219641 248.25220278 -0.7482948 248.55773968 3.49389648 246.80029297 C6.27808788 245.43398907 8.99885805 243.9808518 11.71972656 242.49243164 C12.73365479 241.9495752 13.74758301 241.40671875 14.79223633 240.84741211 C17.94106043 239.15720396 21.08028773 237.44999336 24.21972656 235.74243164 C26.07200425 234.74914892 27.92484493 233.75691515 29.77832031 232.76586914 C40.69336637 226.90053772 51.43995033 220.774775 62.10229492 214.46166992 C67.38704169 211.34216688 72.68366453 208.39037133 78.21972656 205.74243164 C89.11966111 200.46069567 89.11966111 200.46069567 99.35253906 194.00415039 C101.24442777 192.72574024 103.17118923 191.74439318 105.21972656 190.74243164 C105.68834085 175.69650526 106.04027349 160.65114588 106.25597 145.5994606 C106.35882397 138.60898252 106.49880707 131.62305337 106.72851562 124.63549805 C106.95031362 117.88531732 107.06554754 111.13984945 107.11727142 104.38625336 C107.15410037 101.8164526 107.22603783 99.24689753 107.3343277 96.6791153 C108.35143592 83.30711977 108.35143592 83.30711977 103.29417419 71.51527405 C98.56133448 67.66020319 93.35485296 65.12563163 87.73476028 62.81779957 C83.96416916 61.2055855 80.49066219 59.14470312 76.96972656 57.05493164 C67.06166782 51.54604283 57.00461482 46.30267367 46.984375 41.00170898 C39.68531713 37.13712482 32.41722351 33.23167512 25.21972656 29.17993164 C19.64711005 26.05395789 14.03686031 23.02096221 8.34472656 20.11743164 C7.6834375 19.77381592 7.02214844 19.4302002 6.34082031 19.07617188 C-0.32758551 15.72886282 -4.15011461 17.08721809 -10.53027344 20.17993164 Z " fill="#EBEBEB" transform="translate(241.7802734375,74.257568359375)"/>
<path d="M0 0 C7.48281161 4.97386889 13.12104054 10.36312163 16 19 C16.68363536 28.37369259 16.45248841 37.83161188 10.625 45.625 C3.65410049 53.01837827 -5.69191502 57.98044104 -15.78735352 58.39477539 C-26.04491954 58.5928416 -33.34013557 56.74105527 -41.40625 49.984375 C-48.43017055 42.90955647 -50.04333857 35.15297186 -50.5 25.4375 C-50.30512271 17.63312862 -47.58340751 12.1419821 -42.6875 6.1875 C-39.29404843 3.42538826 -35.80528143 1.15016873 -32 -1 C-30.989375 -1.598125 -29.97875 -2.19625 -28.9375 -2.8125 C-19.87458943 -6.42934963 -8.23966187 -4.88886604 0 0 Z " fill="#1E1E1E" transform="translate(258,145)"/>
<path d="M0 0 C0.33 0 0.66 0 1 0 C1 22.77 1 45.54 1 69 C2.32 69.33 3.64 69.66 5 70 C7.44712038 71.12590515 9.84888387 72.2833766 12.25 73.5 C12.95890381 73.85602295 13.66780762 74.2120459 14.39819336 74.57885742 C19.20473837 77.01854718 23.89520929 79.61816198 28.5625 82.3125 C36.20013602 86.71972475 44.10970787 90.48856051 52.10766602 94.19458008 C57.02616402 96.49112044 61.59571828 98.81912987 66 102 C64.23570801 106.97209562 61.6060834 111.43438061 59 116 C55.54199587 114.66901796 52.25903814 113.17076749 48.97265625 111.4609375 C48.02229492 110.96674316 47.07193359 110.47254883 46.09277344 109.96337891 C45.0927832 109.43921387 44.09279297 108.91504883 43.0625 108.375 C42.03286133 107.83665527 41.00322266 107.29831055 39.94238281 106.74365234 C33.20015423 103.20107164 26.54830566 99.54280198 19.96484375 95.71484375 C17.27051721 94.15646516 14.5541183 92.66054606 11.8125 91.1875 C10.59675293 90.46361084 10.59675293 90.46361084 9.35644531 89.72509766 C6.60100244 88.30889462 4.25513024 87.43147548 1.32885742 86.53051758 C-4.46351475 84.43546388 -9.32028967 82.09148384 -13 77 C-16.21205335 66.44860114 -15.09178224 54.85319429 -14.59606934 43.97021484 C-14.46756365 40.6659696 -14.42960678 37.36342644 -14.3950882 34.05706024 C-14.35009698 30.11004958 -14.25612305 26.16469496 -14.15625 22.21875 C-14.14078629 21.46830917 -14.12532257 20.71786835 -14.10939026 19.94468689 C-14.05620777 17.82499748 -13.96859036 15.70975895 -13.86914062 13.59179688 C-13.82293579 12.38809448 -13.77673096 11.18439209 -13.72912598 9.94421387 C-13 7 -13 7 -10.56970215 5.1451416 C-9.72170044 4.76724487 -8.87369873 4.38934814 -8 4 C-7.34515625 3.69835937 -6.6903125 3.39671875 -6.015625 3.0859375 C-5.43296875 2.85132813 -4.8503125 2.61671875 -4.25 2.375 C-1.19881062 1.32404566 -1.19881062 1.32404566 0 0 Z " fill="#F3F4F3" transform="translate(163,147)"/>
<path d="M0 0 C4.66666667 2.33333333 9.33333333 4.66666667 14 7 C14.2549696 20.69934702 14.45037005 34.39812901 14.56993389 48.09936619 C14.62732271 54.46170971 14.70514453 60.82242919 14.82983398 67.18383789 C14.94943708 73.32424273 15.01514201 79.46308679 15.04364967 85.60456657 C15.06396148 87.94633501 15.10362921 90.28801874 15.16303062 92.62912178 C15.61015042 110.98228451 15.61015042 110.98228451 11.58340454 116.02828979 C7.70492901 118.59861421 4.67447345 120 0 120 C0 80.4 0 40.8 0 0 Z " fill="#E7E8E7" transform="translate(319,146)"/>
<path d="M0 0 C0.33 0 0.66 0 1 0 C1.33078131 6.83049276 1.55770383 13.65891346 1.71411133 20.49560547 C1.77932368 22.81833029 1.86792541 25.14052462 1.98071289 27.46142578 C2.87110662 46.26041747 2.87110662 46.26041747 -0.24542236 50.82348633 C-3.67633157 54.0067121 -7.59503254 55.490594 -12 57 C-13.51736569 57.80127761 -15.02286431 58.62677919 -16.5 59.5 C-17.19222656 59.87511719 -17.88445312 60.25023437 -18.59765625 60.63671875 C-22.91247515 63.08529078 -27.08563221 65.7734819 -31.27734375 68.42578125 C-34 70 -34 70 -36 70 C-34.38923686 61.86855717 -29.23421397 54.05702328 -25 47 C-24.38125 45.88625 -23.7625 44.7725 -23.125 43.625 C-21 41 -21 41 -17.75 40.125 C-16.38875 40.063125 -16.38875 40.063125 -15 40 C-15.020625 39.33097656 -15.04125 38.66195312 -15.0625 37.97265625 C-14.76455471 24.09957885 -6.71142683 11.77041903 0 0 Z " fill="#E6E7E7" transform="translate(304,225)"/>
<path d="M0 0 C2.84625 -0.103125 5.6925 -0.20625 8.625 -0.3125 C9.95265381 -0.38078003 9.95265381 -0.38078003 11.30712891 -0.45043945 C15.44806901 -0.52267057 18.22536215 -0.30327613 21.5546875 2.30078125 C24 5 24 5 24.5 8.5 C24.03439217 11.7592548 23.62968423 14.14805259 22 17 C19.921875 18.13671875 19.921875 18.13671875 18 19 C18.433125 19.55429687 18.86625 20.10859375 19.3125 20.6796875 C19.869375 21.40414063 20.42625 22.12859375 21 22.875 C21.556875 23.59429687 22.11375 24.31359375 22.6875 25.0546875 C24 27 24 27 24 29 C21.36 29 18.72 29 16 29 C12.125 22.375 12.125 22.375 11 19 C9.35 19 7.7 19 6 19 C6 22.3 6 25.6 6 29 C4.02 29 2.04 29 0 29 C0 19.43 0 9.86 0 0 Z " fill="#EDEEEF" transform="translate(278,387)"/>
<path d="M0 0 C3.14344435 1.74635797 5.46862726 3.46862726 8 6 C8.91864323 12.23617425 9.1769891 18.2974418 5.375 23.5625 C2.58903276 26.65656244 -0.23239691 29.15627934 -4 31 C-7.5279992 31 -8.67389977 30.29084615 -11.3125 27.9375 C-11.869375 27.298125 -12.42625 26.65875 -13 26 C-11.9375 24.4375 -11.9375 24.4375 -10 23 C-6.3125 23.3125 -6.3125 23.3125 -3 24 C-2.01 22.35 -1.02 20.7 0 19 C-0.58007812 19.05800781 -1.16015625 19.11601562 -1.7578125 19.17578125 C-5.89387622 19.41466282 -9.10521912 19.47896159 -12.5625 17 C-15.23066536 13.71610417 -15.98247237 12.14564972 -15.64453125 8.00390625 C-13.31160689 0.75063232 -6.80966258 -1.08089882 0 0 Z " fill="#EAEEEF" transform="translate(119,386)"/>
<path d="M0 0 C-1.04874998 2.62187494 -1.64931313 3.79371361 -4.125 5.25 C-4.74375 5.4975 -5.3625 5.745 -6 6 C-6.66 5.34 -7.32 4.68 -8 4 C-12.16971689 4.30886792 -15.3407937 5.03337811 -19 7 C-18.68991116 8.60463449 -18.37683713 10.20869231 -18.0625 11.8125 C-17.80146484 13.15248047 -17.80146484 13.15248047 -17.53515625 14.51953125 C-17.02258847 17.11397171 -17.02258847 17.11397171 -16 20 C-12.04 20 -8.08 20 -4 20 C-4 18.35 -4 16.7 -4 15 C-6.31 15 -8.62 15 -11 15 C-11 13.68 -11 12.36 -11 11 C-6.71 11 -2.42 11 2 11 C2.52355769 18.32980769 2.52355769 18.32980769 2 22 C-2.42578531 26.13073295 -6.92285807 27.38386958 -12.94140625 27.2734375 C-16.45707642 26.80646044 -18.38179958 25.32067765 -21 23 C-24.47858896 18.33136745 -25.6169018 14.89725535 -25.3203125 9.07421875 C-24.65503915 4.76616814 -22.66149957 2.59534961 -19.5 -0.25 C-12.91691995 -4.85815604 -6.69796536 -3.28063609 0 0 Z " fill="#EBEDEE" transform="translate(224,389)"/>
<path d="M0 0 C3.5625 1.5 3.5625 1.5 6 3 C5.34 4.65 4.68 6.3 4 8 C3.15695312 7.75443359 3.15695312 7.75443359 2.296875 7.50390625 C-0.13059056 6.97135003 -2.26889681 6.90101319 -4.75 6.9375 C-5.94882812 6.95103516 -5.94882812 6.95103516 -7.171875 6.96484375 C-8.07679688 6.98224609 -8.07679688 6.98224609 -9 7 C-8.67 7.99 -8.34 8.98 -8 10 C-5.60287764 10.88559371 -5.60287764 10.88559371 -2.75 11.4375 C5.01395967 13.39615823 5.01395967 13.39615823 8 17 C8.60698974 20.56606473 8.2435503 22.46418934 6.75 25.75 C4.4255907 28.73852624 2.41541893 29.79610381 -1.33203125 30.3359375 C-7.47258802 30.43263918 -10.94650238 29.5154766 -16 26 C-15.34 24.35 -14.68 22.7 -14 21 C-13.360625 21.33 -12.72125 21.66 -12.0625 22 C-7.98763159 23.33056928 -4.24809575 23.16659199 0 23 C-0.33 21.68 -0.66 20.36 -1 19 C-1.75925781 18.81824219 -2.51851563 18.63648438 -3.30078125 18.44921875 C-4.29464844 18.19785156 -5.28851563 17.94648438 -6.3125 17.6875 C-7.29863281 17.44386719 -8.28476562 17.20023437 -9.30078125 16.94921875 C-12.05714316 15.97990479 -13.30606383 15.35019621 -15 13 C-15.46054692 9.82734341 -15.7039397 8.01520837 -15 5 C-10.7343505 -0.25003015 -6.58603496 -1.12702203 0 0 Z " fill="#E7E9EB" transform="translate(365,386)"/>
<path d="M0 0 C6.6 0 13.2 0 20 0 C20 1.65 20 3.3 20 5 C15.05 5 10.1 5 5 5 C5.33 7.31 5.66 9.62 6 12 C12.435 11.505 12.435 11.505 19 11 C19 12.98 19 14.96 19 17 C14.38 17 9.76 17 5 17 C5 18.98 5 20.96 5 23 C10.28 23 15.56 23 21 23 C21 24.98 21 26.96 21 29 C14.07 29 7.14 29 0 29 C0 19.43 0 9.86 0 0 Z " fill="#EDF0F0" transform="translate(316,387)"/>
<path d="M0 0 C0.08741124 3.56234428 0.14052896 7.12441108 0.1875 10.6875 C0.21263672 11.69490234 0.23777344 12.70230469 0.26367188 13.74023438 C0.35597826 23.06317935 0.35597826 23.06317935 -3 27 C-7.26227237 30.53159711 -10.68762372 30.42161717 -16 30 C-19.46959016 29.03622496 -21.20003163 26.96315719 -23.15332031 23.97021484 C-24.90150926 19.90219731 -24.40309317 15.47049076 -24.25 11.125 C-24.23195312 10.15046875 -24.21390625 9.1759375 -24.1953125 8.171875 C-24.14841734 5.78022193 -24.08280907 3.39063403 -24 1 C-22.35 1 -20.7 1 -19 1 C-18.92652344 2.77117187 -18.92652344 2.77117187 -18.8515625 4.578125 C-18.77651121 6.13543937 -18.70096439 7.69272991 -18.625 9.25 C-18.5940625 10.02730469 -18.563125 10.80460937 -18.53125 11.60546875 C-18.3563407 17.12828007 -18.3563407 17.12828007 -16 22 C-13.08995097 23.08223366 -13.08995097 23.08223366 -10 23 C-7.88070182 21.44443451 -7.10500594 20.50629346 -6.56762695 17.9152832 C-6.54144287 17.13499756 -6.51525879 16.35471191 -6.48828125 15.55078125 C-6.45283203 14.70322266 -6.41738281 13.85566406 -6.38085938 12.98242188 C-6.35830078 12.10134766 -6.33574219 11.22027344 -6.3125 10.3125 C-6.27833984 9.41982422 -6.24417969 8.52714844 -6.20898438 7.60742188 C-6.12654352 5.40507329 -6.05738449 3.20312062 -6 1 C-3.92446352 0.4465236 -2.15634036 0 0 0 Z " fill="#F1F3F3" transform="translate(263,386)"/>
<path d="M0 0 C7.26 0 14.52 0 22 0 C22 1.98 22 3.96 22 6 C17.05 6 12.1 6 7 6 C7 8.31 7 10.62 7 13 C11.29 13 15.58 13 20 13 C20 14.65 20 16.3 20 18 C15.71 18 11.42 18 7 18 C7 21.96 7 25.92 7 30 C5.02 30 3.04 30 1 30 C0.67 20.1 0.34 10.2 0 0 Z " fill="#E4E5E5" transform="translate(150,386)"/>
<path d="M0 0 C0.33 0 0.66 0 1 0 C1.02904864 3.91665108 1.04681517 7.8332744 1.0625 11.75 C1.07087891 12.86117188 1.07925781 13.97234375 1.08789062 15.1171875 C1.09272461 16.72207031 1.09272461 16.72207031 1.09765625 18.359375 C1.10551147 19.83615723 1.10551147 19.83615723 1.11352539 21.34277344 C1.01159103 23.72869514 0.68303357 25.72164581 0 28 C0.66 28.33 1.32 28.66 2 29 C1.50113281 29.268125 1.00226563 29.53625 0.48828125 29.8125 C-5.58455358 33.12693768 -11.43335721 36.72800731 -17.27734375 40.42578125 C-20 42 -20 42 -22 42 C-20.38923686 33.86855717 -15.23421397 26.05702328 -11 19 C-10.38125 17.88625 -9.7625 16.7725 -9.125 15.625 C-7 13 -7 13 -3.75 12.125 C-2.8425 12.08375 -1.935 12.0425 -1 12 C-0.67 8.04 -0.34 4.08 0 0 Z " fill="#C7C7C7" transform="translate(290,253)"/>
<path d="M0 0 C0 7.26 0 14.52 0 22 C-0.66 22.33 -1.32 22.66 -2 23 C-1.67 19.7 -1.34 16.4 -1 13 C-1.66 13 -2.32 13 -3 13 C-5 10 -5 10 -5 7 C-5.99 7.495 -5.99 7.495 -7 8 C-7.33 8.99 -7.66 9.98 -8 11 C-8.66 11 -9.32 11 -10 11 C-9.67 12.98 -9.34 14.96 -9 17 C-12.75 20 -12.75 20 -15 20 C-15.99 20.33 -16.98 20.66 -18 21 C-18 21.66 -18 22.32 -18 23 C-19.32 23.33 -20.64 23.66 -22 24 C-21.01 24.66 -20.02 25.32 -19 26 C-19.66 27.32 -20.32 28.64 -21 30 C-21.66 29.67 -22.32 29.34 -23 29 C-23 25.04 -23 21.08 -23 17 C-19.37 16.67 -15.74 16.34 -12 16 C-11.67 14.35 -11.34 12.7 -11 11 C-15.29 11 -19.58 11 -24 11 C-24 8.69 -24 6.38 -24 4 C-21.04196565 3.80578562 -18.08379837 3.61933814 -15.125 3.4375 C-14.28324219 3.38142578 -13.44148437 3.32535156 -12.57421875 3.26757812 C-11.76855469 3.21923828 -10.96289062 3.17089844 -10.1328125 3.12109375 C-9.01737061 3.05039673 -9.01737061 3.05039673 -7.87939453 2.97827148 C-6 3 -6 3 -4 4 C-3.67 3.01 -3.34 2.02 -3 1 C-1 0 -1 0 0 0 Z " fill="#1D1E20" transform="translate(181,388)"/>
<path d="M0 0 C0 0.99 0 1.98 0 3 C-4.53972889 6.75021082 -9.37307807 9.26234271 -14.65625 11.81640625 C-17.61167438 13.30889556 -20.26497236 15.13785352 -23 17 C-28.00890155 20.11003518 -33.01433239 22.43399503 -38.5625 24.4375 C-43.52621187 26.26137552 -47.11080268 28.37597689 -51.1640625 31.7109375 C-54.26433483 33.88772445 -57.29199109 34.33134266 -61 35 C-61.99 35.20625 -62.98 35.4125 -64 35.625 C-64.66 35.74875 -65.32 35.8725 -66 36 C-62.18130459 32.71431561 -58.15783647 30.38336514 -53.6875 28.125 C-45.06970573 23.67769733 -36.71767391 18.81577463 -28.37573242 13.87353516 C-23.00322005 10.70200972 -17.61755019 7.71178315 -12 5 C-11.04351562 4.51015625 -10.08703125 4.0203125 -9.1015625 3.515625 C-8.28429687 3.09796875 -7.46703125 2.6803125 -6.625 2.25 C-5.79226563 1.82203125 -4.95953125 1.3940625 -4.1015625 0.953125 C-2 0 -2 0 0 0 Z " fill="#CECDCB" transform="translate(332,274)"/>
<path d="M0 0 C0.99 0 1.98 0 3 0 C2.67 2.31 2.34 4.62 2 7 C2.66 7.33 3.32 7.66 4 8 C-0.62 8 -5.24 8 -10 8 C-10 9.65 -10 11.3 -10 13 C-7.69 13 -5.38 13 -3 13 C-3 14.65 -3 16.3 -3 18 C-5.98997825 19.49498913 -8.70042775 19.11577446 -12 19 C-15 18 -15 18 -16.6875 15.9375 C-18.43156702 12.03411191 -18.21611119 9.25018665 -18 5 C-11.71534196 0.93345656 -11.71534196 0.93345656 -8.3125 1.25 C-7.1678125 1.62125 -7.1678125 1.62125 -6 2 C-4.68 2 -3.36 2 -2 2 C-1.34 1.34 -0.68 0.68 0 0 Z " fill="#1E2023" transform="translate(223,391)"/>
<path d="M0 0 C-6.61345082 4.75704357 -13.65578359 8.66764326 -20.79052734 12.57177734 C-21.92675537 13.19366943 -21.92675537 13.19366943 -23.0859375 13.828125 C-24.1076001 14.3835498 -24.1076001 14.3835498 -25.14990234 14.95019531 C-26.81089304 15.89269465 -28.41098105 16.94065403 -30 18 C-30.46377819 20.43532326 -30.46377819 20.43532326 -30.39872742 23.32766724 C-30.41126556 24.45791321 -30.42380371 25.58815918 -30.4367218 26.75265503 C-30.43528671 27.99846344 -30.43385162 29.24427185 -30.43237305 30.52783203 C-30.4425647 31.83510254 -30.45275635 33.14237305 -30.46325684 34.48925781 C-30.49091163 38.07995583 -30.50012273 41.6704955 -30.50611091 45.26128626 C-30.51547267 49.01164726 -30.54167414 52.76188894 -30.56611633 56.51217651 C-30.60984581 63.61652937 -30.63835305 70.72085916 -30.66143972 77.82530582 C-30.68845695 85.91232838 -30.73237049 93.99923128 -30.77772844 102.08616853 C-30.870667 118.72405178 -30.94230541 135.36195643 -31 152 C-31.33 152 -31.66 152 -32 152 C-32 107.12 -32 62.24 -32 16 C-29.03 14.35 -26.06 12.7 -23 11 C-19.55413029 8.88825311 -16.13781145 6.73515321 -12.72265625 4.57421875 C-10 3 -10 3 -8 3 C-8 2.34 -8 1.68 -8 1 C-3.375 -1.125 -3.375 -1.125 0 0 Z " fill="#191919" transform="translate(151,121)"/>
<path d="M0 0 C7.40657957 3.01126088 14.15023036 6.89875428 21 11 C27.05433925 14.61218684 33.13413115 18.15526527 39.375 21.4375 C40.31085938 21.93121094 41.24671875 22.42492187 42.2109375 22.93359375 C46.32643715 24.50716714 49.42190374 24.69475936 53.484375 22.90625 C54.23203125 22.4421875 54.9796875 21.978125 55.75 21.5 C59.83333333 19 59.83333333 19 62 19 C61.33569507 21.65721974 60.66303927 23.49228228 58.44921875 25.1875 C52.07974782 28.89734174 52.07974782 28.89734174 49 29 C47.31243867 28.03567924 45.6502694 27.0268343 44 26 C42.5323002 25.46727933 41.05156396 24.96970474 39.5625 24.5 C34.89644695 23.01463978 30.51860445 21.51860445 27 18 C26.01 18 25.02 18 24 18 C23.67 17.34 23.34 16.68 23 16 C22.01 16 21.02 16 20 16 C20 15.34 20 14.68 20 14 C19.278125 13.9175 18.55625 13.835 17.8125 13.75 C13.26813234 12.53816862 10.65143919 9.70029713 7.5 6.3125 C4.86444657 3.87461308 3.51462088 3.30125322 0 3 C0 2.01 0 1.02 0 0 Z " fill="#B9B9B9" transform="translate(192,297)"/>
<path d="M0 0 C3.5 1.875 3.5 1.875 6 4 C6 4.66 6 5.32 6 6 C2.6853333 8.02907167 0.5684021 8.12742133 -3.25 7.625 C-4.58804688 7.45871094 -4.58804688 7.45871094 -5.953125 7.2890625 C-6.96632813 7.14597656 -6.96632813 7.14597656 -8 7 C-7.67 9.64 -7.34 12.28 -7 15 C-7.99 15.66 -8.98 16.32 -10 17 C-12.5 16 -12.5 16 -15 14 C-15.66767296 10.60599581 -15.93319908 9.17646611 -15 6 C-11.04400917 0.34007336 -6.61826298 -1.05051793 0 0 Z " fill="#F2F4F5" transform="translate(119,386)"/>
<path d="M0 0 C1.98 0 3.96 0 6 0 C6 9.24 6 18.48 6 28 C4.02 28 2.04 28 0 28 C0 18.76 0 9.52 0 0 Z " fill="#F0F3F3" transform="translate(182,387)"/>
<path d="M0 0 C0.495 1.98 0.495 1.98 1 4 C0.44876465 4.27038086 -0.1024707 4.54076172 -0.67041016 4.81933594 C-13.14677825 10.95592928 -25.4389535 17.35049434 -37.62109375 24.05078125 C-42.97455977 26.99396976 -48.352497 29.88843062 -53.75 32.75 C-54.5546167 33.18062744 -55.3592334 33.61125488 -56.18823242 34.05493164 C-61.7656347 37 -61.7656347 37 -64 37 C-64 36.34 -64 35.68 -64 35 C-62.54195831 34.18697675 -61.08355685 33.37459869 -59.625 32.5625 C-58.40683594 31.88380859 -58.40683594 31.88380859 -57.1640625 31.19140625 C-55.79003378 30.4349464 -54.40290739 29.70145369 -53 29 C-52.67 28.01 -52.34 27.02 -52 26 C-51.0409375 25.87625 -51.0409375 25.87625 -50.0625 25.75 C-45.32677314 24.59023016 -39.93791578 22.94274848 -36.43359375 19.4296875 C-34.11839648 17.12079867 -31.10706736 16.84259454 -28 16 C-23.23730875 13.94207761 -23.23730875 13.94207761 -20 10 C-17.68060793 9.2863409 -15.34476551 8.6252708 -13 8 C-11.9275 7.46375 -10.855 6.9275 -9.75 6.375 C-7 5 -7 5 -4 5 C-4 4.34 -4 3.68 -4 3 C-3.01 2.67 -2.02 2.34 -1 2 C-0.67 1.34 -0.34 0.68 0 0 Z " fill="#282828" transform="translate(216,83)"/>
<path d="M0 0 C1.875 0.25 1.875 0.25 4 1 C5.125 2.8125 5.125 2.8125 6 5 C6.34546875 5.60714844 6.6909375 6.21429688 7.046875 6.83984375 C8.14438829 9.32724067 8.20449294 11.0472402 8.125 13.75 C8.10695313 14.54921875 8.08890625 15.3484375 8.0703125 16.171875 C8.04710937 16.77515625 8.02390625 17.3784375 8 18 C1.56257668 20.28424699 -5.06207735 16.49009659 -11 14 C-11 13.01 -11 12.02 -11 11 C-7.97562661 9.4878133 -5.33758466 9.82736631 -2 10 C0.4375 11 0.4375 11 2 12 C2.66 10.35 3.32 8.7 4 7 C3.34 7 2.68 7 2 7 C0.5393715 4.35261084 0 3.10551666 0 0 Z " fill="#282A2A" transform="translate(367,382)"/>
<path d="M0 0 C0.33 0 0.66 0 1 0 C1.02904864 3.91665108 1.04681517 7.8332744 1.0625 11.75 C1.07087891 12.86117188 1.07925781 13.97234375 1.08789062 15.1171875 C1.09111328 16.18710937 1.09433594 17.25703125 1.09765625 18.359375 C1.10289307 19.34389648 1.10812988 20.32841797 1.11352539 21.34277344 C1.01159103 23.72869514 0.68303357 25.72164581 0 28 C0.66 28.33 1.32 28.66 2 29 C0.35 29.66 -1.3 30.32 -3 31 C-3.38218767 29.34385343 -3.71395102 27.67542976 -4 26 C-3.67 25.67 -3.34 25.34 -3 25 C-3.66 24.67 -4.32 24.34 -5 24 C-5 23.01 -5 22.02 -5 21 C-9.00346023 20.55709077 -9.00346023 20.55709077 -11.25 23 C-11.8275 23.66 -12.405 24.32 -13 25 C-11.68254507 20.38890775 -10.09545138 16.6973447 -7 13 C-3.75 12.125 -3.75 12.125 -1 12 C-0.67 8.04 -0.34 4.08 0 0 Z " fill="#AEB0AF" transform="translate(290,253)"/>
<path d="M0 0 C0.08741124 3.56234428 0.14052896 7.12441108 0.1875 10.6875 C0.22520508 12.19860352 0.22520508 12.19860352 0.26367188 13.74023438 C0.35493909 22.95822299 0.35493909 22.95822299 -3 27 C-3.144375 26.38125 -3.28875 25.7625 -3.4375 25.125 C-3.93152225 22.96741678 -3.93152225 22.96741678 -5 21 C-5.66 21.33 -6.32 21.66 -7 22 C-6.67 15.07 -6.34 8.14 -6 1 C-2 0 -2 0 0 0 Z " fill="#E5E8EA" transform="translate(263,386)"/>
<path d="M0 0 C1.65 0 3.3 0 5 0 C5 2.02094072 4.9787351 4.04198 4.9375 6.0625 C4.78892965 8.93459792 4.78892965 8.93459792 6 11 C5.83219837 13.69565202 5.38844355 16.32405554 5 19 C4.01 19 3.02 19 2 19 C2 17.68 2 16.36 2 15 C1.44828125 15.16371094 0.8965625 15.32742188 0.328125 15.49609375 C-2.26614007 16.05760414 -4.59835411 16.09739008 -7.25 16.0625 C-8.14203125 16.05347656 -9.0340625 16.04445313 -9.953125 16.03515625 C-10.62859375 16.02355469 -11.3040625 16.01195312 -12 16 C-12 14.02 -12 12.04 -12 10 C-7.05 10 -2.1 10 3 10 C3 7.36 3 4.72 3 2 C2.01 2 1.02 2 0 2 C0 1.34 0 0.68 0 0 Z " fill="#1F2121" transform="translate(334,383)"/>
<path d="M0 0 C1.5716551 4.30137186 2.55653493 7.58981771 1 12 C0.01 12.495 0.01 12.495 -1 13 C-1 10.69 -1 8.38 -1 6 C-6.28 6 -11.56 6 -17 6 C-17 4.02 -17 2.04 -17 0 C-14.54203147 -0.19436491 -12.08390706 -0.3807742 -9.625 -0.5625 C-8.92632812 -0.61857422 -8.22765625 -0.67464844 -7.5078125 -0.73242188 C-2.2265625 -1.11328125 -2.2265625 -1.11328125 0 0 Z " fill="#2D2E2F" transform="translate(338,404)"/>
<path d="M0 0 C0.33 0.66 0.66 1.32 1 2 C3.52733235 2.65555119 3.52733235 2.65555119 6 3 C6.33 4.32 6.66 5.64 7 7 C4.98005527 8.25145448 2.95907547 9.50118448 0.9375 10.75 C0.37611328 11.09804687 -0.18527344 11.44609375 -0.76367188 11.8046875 C-1.60961914 12.32675781 -1.60961914 12.32675781 -2.47265625 12.859375 C-3.23461304 13.33068848 -3.23461304 13.33068848 -4.01196289 13.81152344 C-6 15 -6 15 -9.6640625 16.58984375 C-11.82881682 17.83356989 -12.80378745 18.44994049 -13.65074158 20.82427979 C-13.90868129 23.14191381 -13.94335016 25.37148121 -13.90234375 27.703125 C-13.91463516 28.54091492 -13.92692657 29.37870483 -13.93959045 30.24188232 C-13.97133037 32.91214515 -13.95504279 35.57965067 -13.9375 38.25 C-13.95060844 40.06252568 -13.96684802 41.8750316 -13.98632812 43.6875 C-14.02719121 48.12558866 -14.02499407 52.56181328 -14 57 C-14.33 57 -14.66 57 -15 57 C-15 43.47 -15 29.94 -15 16 C-13.35 15.34 -11.7 14.68 -10 14 C-9.54625 13.13375 -9.0925 12.2675 -8.625 11.375 C-7.820625 10.199375 -7.820625 10.199375 -7 9 C-3.5 8.875 -3.5 8.875 0 9 C1.9846938 7.76913958 1.9846938 7.76913958 3 6 C3 5.34 3 4.68 3 4 C1.68 4.33 0.36 4.66 -1 5 C-0.67 3.35 -0.34 1.7 0 0 Z " fill="#838280" transform="translate(121,112)"/>
<path d="M0 0 C0.33 0 0.66 0 1 0 C1.2475 0.928125 1.495 1.85625 1.75 2.8125 C3.14174167 6.36144125 3.65786089 7.28608251 7 9 C9.31656815 9.58223905 11.62345493 10.06223051 13.9765625 10.47265625 C16 11 16 11 18 13 C17.625 15.125 17.625 15.125 17 17 C7.23625255 17.38289206 7.23625255 17.38289206 3 15 C2.67 14.34 2.34 13.68 2 13 C1.34 12.67 0.68 12.34 0 12 C0.66 11.34 1.32 10.68 2 10 C1.34 9.34 0.68 8.68 0 8 C-0.26991906 5.31160615 -0.08737357 2.70858064 0 0 Z " fill="#111111" transform="translate(348,393)"/>
<path d="M0 0 C4.455 0.99 4.455 0.99 9 2 C8.67 3.32 8.34 4.64 8 6 C7.67 5.34 7.34 4.68 7 4 C4.69 4 2.38 4 0 4 C0 10.6 0 17.2 0 24 C-0.33 24 -0.66 24 -1 24 C-1.33 18.39 -1.66 12.78 -2 7 C-2.99 7.99 -3.98 8.98 -5 10 C-7.6875 9.6875 -7.6875 9.6875 -10 9 C-10 7.02 -10 5.04 -10 3 C-10.66 2.67 -11.32 2.34 -12 2 C-3.42857143 0.71428571 -3.42857143 0.71428571 0 2 C0 1.34 0 0.68 0 0 Z " fill="#3A3B3C" transform="translate(182,382)"/>
<path d="M0 0 C0.33 0.66 0.66 1.32 1 2 C1.66 2 2.32 2 3 2 C3.33 1.34 3.66 0.68 4 0 C4.99 0.99 5.98 1.98 7 3 C7.33 2.34 7.66 1.68 8 1 C10.0625 0.375 10.0625 0.375 12 0 C12 0.66 12 1.32 12 2 C12.66 2 13.32 2 14 2 C14 3.65 14 5.3 14 7 C12 7 10 7 8 7 C8 6.01 8 5.02 8 4 C6.02 4.33 4.04 4.66 2 5 C2 11.27 2 17.54 2 24 C1.34 24 0.68 24 0 24 C-0.69288729 17.96198221 -1.10662659 12.07771546 -1 6 C-1 5.01 -1 4.02 -1 3 C-0.67 2.01 -0.34 1.02 0 0 Z " fill="#2D2E2F" transform="translate(255,382)"/>
<path d="M0 0 C-0.75 1.9375 -0.75 1.9375 -2 4 C-4.125 4.75 -4.125 4.75 -6 5 C-6 5.66 -6 6.32 -6 7 C-6.556875 7.21914063 -7.11375 7.43828125 -7.6875 7.6640625 C-11.91522383 9.42085315 -15.49647498 11.23247872 -19.0625 14.125 C-22.9703035 17.21543424 -26.11037288 18.11826396 -31 19 C-31.99 19.20625 -32.98 19.4125 -34 19.625 C-34.66 19.74875 -35.32 19.8725 -36 20 C-31.94052032 16.48072505 -27.68628268 14.10989366 -22.9375 11.6875 C-16.56702207 8.38777808 -10.35826554 4.93671953 -4.22265625 1.21484375 C-2 0 -2 0 0 0 Z " fill="#ADADAC" transform="translate(302,290)"/>
<path d="M0 0 C0.969375 0.804375 1.93875 1.60875 2.9375 2.4375 C7.10034446 5.45726832 10.95529215 5.87416828 16 6 C15.3125 8.4375 15.3125 8.4375 14 11 C9.77710956 12.44467305 5.4266533 12 1 12 C1.33 9.36 1.66 6.72 2 4 C1.01 4.33 0.02 4.66 -1 5 C-1.66 4.67 -2.32 4.34 -3 4 C-2 2 -2 2 0 0 Z " fill="#17181C" transform="translate(103,399)"/>
<path d="M0 0 C0 0.66 0 1.32 0 2 C-0.59167969 2.06058594 -1.18335938 2.12117187 -1.79296875 2.18359375 C-8.71956574 2.91806162 -15.25475143 4.2851063 -22 6 C-22 6.66 -22 7.32 -22 8 C-23.42578125 9.5078125 -23.42578125 9.5078125 -25.3125 11.125 C-26.23482422 11.93324219 -26.23482422 11.93324219 -27.17578125 12.7578125 C-29 14 -29 14 -32 14 C-31.52159393 9.69434539 -29.20810194 7.73029953 -26 5 C-17.5750888 -0.20056247 -9.68393467 -0.14102817 0 0 Z " fill="#171717" transform="translate(246,142)"/>
<path d="M0 0 C4 2 8 4 12 6 C12 6.33 12 6.66 12 7 C5.375 8 5.375 8 2 8 C1.67 25.82 1.34 43.64 1 62 C0.67 62 0.34 62 0 62 C0 41.54 0 21.08 0 0 Z " fill="#C1C1C1" transform="translate(319,146)"/>
<path d="M0 0 C4.95 0 9.9 0 15 0 C14.34 2.31 13.68 4.62 13 7 C8.71 7 4.42 7 0 7 C0 4.69 0 2.38 0 0 Z " fill="#343739" transform="translate(157,392)"/>
<path d="M0 0 C6.6 0 13.2 0 20 0 C20 1.65 20 3.3 20 5 C18.18757948 5.02687279 16.37504767 5.04633715 14.5625 5.0625 C13.55316406 5.07410156 12.54382813 5.08570313 11.50390625 5.09765625 C9 5 9 5 8 4 C6.68 4 5.36 4 4 4 C3.67 5.32 3.34 6.64 3 8 C2.34 8 1.68 8 1 8 C0.67 5.36 0.34 2.72 0 0 Z " fill="#FBFCFC" transform="translate(151,387)"/>
<path d="M0 0 C0.33 0.66 0.66 1.32 1 2 C-2.91609328 4.12605794 -6.83297308 6.25066275 -10.75 8.375 C-11.86117187 8.97828125 -12.97234375 9.5815625 -14.1171875 10.203125 C-15.72207031 11.07324219 -15.72207031 11.07324219 -17.359375 11.9609375 C-18.34389648 12.49509277 -19.32841797 13.02924805 -20.34277344 13.57958984 C-22.5458267 14.75722342 -24.75850879 15.89785598 -27 17 C-27.66 15.68 -28.32 14.36 -29 13 C-28.39671875 12.91363281 -27.7934375 12.82726562 -27.171875 12.73828125 C-21.51796296 11.74428704 -19.48049699 10.72353163 -16 6 C-13.5 5.875 -13.5 5.875 -11 6 C-8.71515694 4.60042803 -8.71515694 4.60042803 -7 3 C-7.99 2.67 -8.98 2.34 -10 2 C-10 1.34 -10 0.68 -10 0 C-6.26840331 -1.24386556 -3.81984796 -0.77811718 0 0 Z " fill="#7F7E7D" transform="translate(172,93)"/>
<path d="M0 0 C1.65 0 3.3 0 5 0 C8.03212341 3.60576837 9 5.22946208 9 10 C2.97767819 11.46619907 -1.90367577 12.32528788 -8 11 C-8 10.67 -8 10.34 -8 10 C-5.36 10 -2.72 10 0 10 C0 6.7 0 3.4 0 0 Z " fill="#26272A" transform="translate(284,406)"/>
<path d="M0 0 C0.66 0 1.32 0 2 0 C2 0.66 2 1.32 2 2 C2.99 2 3.98 2 5 2 C5 25.1 5 48.2 5 72 C4.67 72 4.34 72 4 72 C3.67 49.56 3.34 27.12 3 4 C1.68 4.99 0.36 5.98 -1 7 C-1.66 6.67 -2.32 6.34 -3 6 C-2.01 4.02 -1.02 2.04 0 0 Z " fill="#737373" transform="translate(160,144)"/>
<path d="M0 0 C-1.13638916 0.51264404 -2.27277832 1.02528809 -3.44360352 1.5534668 C-6.23561028 3.57107143 -6.92088433 4.63714338 -7.66452026 8.04776001 C-7.90921039 12.09397856 -7.94447999 16.09330938 -7.90234375 20.14453125 C-7.91173213 21.6395637 -7.92419198 23.13457975 -7.93959045 24.62956238 C-7.97179181 28.55407495 -7.96238405 32.47741801 -7.94421387 36.40197754 C-7.93304866 40.41069292 -7.96136621 44.41910996 -7.98632812 48.42773438 C-8.02945579 56.28539997 -8.02861421 64.14226966 -8 72 C-8.33 72 -8.66 72 -9 72 C-9.11577531 62.92505331 -9.20465431 53.85036021 -9.25906086 44.77483654 C-9.28517157 40.56080762 -9.32059527 36.34728335 -9.37719727 32.13354492 C-9.43146638 28.06810349 -9.46140943 24.00314786 -9.47438622 19.93737221 C-9.48363546 18.38513856 -9.50169734 16.83293195 -9.52865028 15.28090477 C-9.56487639 13.10880158 -9.56994858 10.93871337 -9.56762695 8.76635742 C-9.57873001 7.52947678 -9.58983307 6.29259613 -9.60127258 5.01823425 C-9 2 -9 2 -6.71452332 0.01460266 C-3.8497277 -1.05616702 -2.78098762 -1.13299496 0 0 Z " fill="#CBCBCB" transform="translate(159,152)"/>
<path d="M0 0 C1.45792884 -0.05399736 2.91642712 -0.09279177 4.375 -0.125 C5.18710937 -0.14820313 5.99921875 -0.17140625 6.8359375 -0.1953125 C9 0 9 0 11 2 C10.44444444 6.55555556 10.44444444 6.55555556 9 8 C7.48071962 8.07179964 5.95832518 8.08392007 4.4375 8.0625 C3.61121094 8.05347656 2.78492188 8.04445313 1.93359375 8.03515625 C1.29550781 8.02355469 0.65742188 8.01195312 0 8 C0 5.36 0 2.72 0 0 Z " fill="#14171A" transform="translate(284,393)"/>
<path d="M0 0 C0.66 0.66 1.32 1.32 2 2 C1.67 2.66 1.34 3.32 1 4 C1 5.32 1 6.64 1 8 C0.34 8 -0.32 8 -1 8 C-1 8.99 -1 9.98 -1 11 C-1.99 11.495 -1.99 11.495 -3 12 C-2.835 12.598125 -2.67 13.19625 -2.5 13.8125 C-2 16 -2 16 -2 19 C-4.64 18.67 -7.28 18.34 -10 18 C-10 14.48232225 -9.57512877 14.23546834 -7.25 11.8125 C-3.95511731 8.15845948 -2.03695908 4.46564105 0 0 Z " fill="#2E2E33" transform="translate(129,399)"/>
<path d="M0 0 C-6.61345082 4.75704357 -13.65578359 8.66764326 -20.79052734 12.57177734 C-21.92675537 13.19366943 -21.92675537 13.19366943 -23.0859375 13.828125 C-24.1076001 14.3835498 -24.1076001 14.3835498 -25.14990234 14.95019531 C-26.81089304 15.89269465 -28.41098105 16.94065403 -30 18 C-30.57993699 20.19454681 -30.57993699 20.19454681 -30.6875 22.625 C-30.75324219 23.44226563 -30.81898437 24.25953125 -30.88671875 25.1015625 C-30.92410156 25.72804687 -30.96148437 26.35453125 -31 27 C-31.33 27 -31.66 27 -32 27 C-32 23.37 -32 19.74 -32 16 C-30.783125 15.34 -29.56625 14.68 -28.3125 14 C-22.98738578 11.05762001 -17.86208091 7.82618219 -12.72265625 4.57421875 C-10 3 -10 3 -8 3 C-8 2.34 -8 1.68 -8 1 C-3.375 -1.125 -3.375 -1.125 0 0 Z " fill="#292929" transform="translate(151,121)"/>
<path d="M0 0 C0 7.26 0 14.52 0 22 C-0.66 22.33 -1.32 22.66 -2 23 C-1.67 19.7 -1.34 16.4 -1 13 C-1.66 13 -2.32 13 -3 13 C-5 10 -5 10 -5 7 C-5.66 7 -6.32 7 -7 7 C-7.33 6.01 -7.66 5.02 -8 4 C-6.68 4 -5.36 4 -4 4 C-3.67 3.01 -3.34 2.02 -3 1 C-1 0 -1 0 0 0 Z " fill="#2B2B2D" transform="translate(181,388)"/>
<path d="M0 0 C5.34725654 2.17401086 10.45506464 4.69390557 15.5 7.5 C16.5209375 8.0671875 17.541875 8.634375 18.59375 9.21875 C21 11 21 11 21.84375 13.21875 C21.92109375 14.10046875 21.92109375 14.10046875 22 15 C21.01 15.495 21.01 15.495 20 16 C20 15.34 20 14.68 20 14 C19.278125 13.9175 18.55625 13.835 17.8125 13.75 C13.26813234 12.53816862 10.65143919 9.70029713 7.5 6.3125 C4.86444657 3.87461308 3.51462088 3.30125322 0 3 C0 2.01 0 1.02 0 0 Z " fill="#BBBBBB" transform="translate(192,297)"/>
<path d="M0 0 C2 2 2 2 2 6 C-0.73905345 7.36952673 -2.97087332 7.12621361 -6 7 C-6.66 6.67 -7.32 6.34 -8 6 C-8 4.02 -8 2.04 -8 0 C-5.09288879 -1.4535556 -3.10402897 -0.71133997 0 0 Z " fill="#353B3F" transform="translate(119,393)"/>
<path d="M0 0 C4.40114397 0.50298788 6.71195019 2.08772731 10 5 C9.67 6.32 9.34 7.64 9 9 C7.68 9 6.36 9 5 9 C4.01 10.485 4.01 10.485 3 12 C2.71125 11.236875 2.4225 10.47375 2.125 9.6875 C1.03730987 6.84970692 1.03730987 6.84970692 -1 4 C-0.625 1.8125 -0.625 1.8125 0 0 Z " fill="#E2E4E5" transform="translate(292,387)"/>
<path d="M0 0 C0.99 0 1.98 0 3 0 C2.67 2.31 2.34 4.62 2 7 C2.66 7.33 3.32 7.66 4 8 C-0.95 8.33 -5.9 8.66 -11 9 C-10.67 7.68 -10.34 6.36 -10 5 C-8.22265625 4.0234375 -8.22265625 4.0234375 -6.0625 3.375 C-3.24747904 2.50648174 -2.13620863 2.13620863 0 0 Z " fill="#171A1D" transform="translate(223,391)"/>
<path d="M0 0 C3.96 0 7.92 0 12 0 C12.125 3.375 12.125 3.375 12 7 C11.34 7.66 10.68 8.32 10 9 C10 8.34 10 7.68 10 7 C9.34 7 8.68 7 8 7 C7.67 6.34 7.34 5.68 7 5 C4.67843403 4.59270772 2.3431213 4.25561323 0 4 C0 2.68 0 1.36 0 0 Z " fill="#F5F6F8" transform="translate(213,400)"/>
<path d="M0 0 C0.33 0.99 0.66 1.98 1 3 C3.01508358 3.73323796 3.01508358 3.73323796 5 4 C4.01 5.485 4.01 5.485 3 7 C-0.63 6.34 -4.26 5.68 -8 5 C-8.33 3.68 -8.66 2.36 -9 1 C-6.04335481 -0.4783226 -3.25770263 -0.06032783 0 0 Z " fill="#1B1D1D" transform="translate(365,392)"/>
<path d="M0 0 C0.33 1.32 0.66 2.64 1 4 C-0.45449401 5.0055761 -1.91372443 6.00430435 -3.375 7 C-4.59316406 7.8353125 -4.59316406 7.8353125 -5.8359375 8.6875 C-8 10 -8 10 -10 10 C-9.29337199 6.32553433 -7.81159884 3.26087791 -6 0 C-3.50907189 -1.24546405 -2.58919267 -0.7767578 0 0 Z " fill="#D3D3D3" transform="translate(278,285)"/>
<path d="M0 0 C3.33388318 0.16951948 4.94441987 0.43192871 7.6875 2.1875 C7.0275 3.8375 6.3675 5.4875 5.6875 7.1875 C2.0575 6.5275 -1.5725 5.8675 -5.3125 5.1875 C-4.07326555 0.2305622 -4.07326555 0.2305622 0 0 Z " fill="#EDEDED" transform="translate(363.3125,386.8125)"/>
<path d="M0 0 C0 0.99 0 1.98 0 3 C-4.85372416 7.2340998 -9.52192265 9.49708087 -16 10 C-18.26953125 9.5390625 -18.26953125 9.5390625 -20 9 C-18.14635387 8.07317694 -16.29246921 7.14682841 -14.4375 6.22265625 C-12.72502582 5.36367481 -11.01706126 4.49567242 -9.3125 3.62109375 C-8.425625 3.16863281 -7.53875 2.71617187 -6.625 2.25 C-5.79226563 1.82203125 -4.95953125 1.3940625 -4.1015625 0.953125 C-2 0 -2 0 0 0 Z " fill="#A7A7A7" transform="translate(332,274)"/>
<path d="M0 0 C0 1.65 0 3.3 0 5 C-2.12493141 5.02693575 -4.24995912 5.04636628 -6.375 5.0625 C-7.55835938 5.07410156 -8.74171875 5.08570313 -9.9609375 5.09765625 C-13 5 -13 5 -15 4 C-15 3.01 -15 2.02 -15 1 C-13.06263299 0.83179449 -11.12510094 0.66548905 -9.1875 0.5 C-7.56908203 0.36078125 -7.56908203 0.36078125 -5.91796875 0.21875 C-3 0 -3 0 0 0 Z " fill="#F6F7F8" transform="translate(335,398)"/>
<path d="M0 0 C-3.87598784 4.4961459 -9.10752296 7.12704044 -15 8 C-15.66 7.67 -16.32 7.34 -17 7 C-12.76972167 2.06467528 -6.62881649 -2.48580618 0 0 Z " fill="#151515" transform="translate(167,132)"/>
<path d="M0 0 C0.26554688 0.54140625 0.53109375 1.0828125 0.8046875 1.640625 C2.19011305 4.37525582 3.65258458 7.06124141 5.125 9.75 C5.66382813 10.73484375 6.20265625 11.7196875 6.7578125 12.734375 C7.16773438 13.48203125 7.57765625 14.2296875 8 15 C3.375 17.125 3.375 17.125 0 16 C0 14.35 0 12.7 0 11 C0.99 11 1.98 11 3 11 C2.505 10.67 2.01 10.34 1.5 10 C-0.88179561 6.82427253 -0.19168226 3.89753934 0 0 Z " fill="#2D2D30" transform="translate(198,401)"/>
<path d="M0 0 C0.99 0.33 1.98 0.66 3 1 C2.34 1 1.68 1 1 1 C1.433125 1.55429687 1.86625 2.10859375 2.3125 2.6796875 C3.1478125 3.76636719 3.1478125 3.76636719 4 4.875 C4.556875 5.59429687 5.11375 6.31359375 5.6875 7.0546875 C7 9 7 9 7 11 C4.36 11 1.72 11 -1 11 C-1.99 9.02 -2.98 7.04 -4 5 C-3.01 4.34 -2.02 3.68 -1 3 C-0.67 2.01 -0.34 1.02 0 0 Z " fill="#DFE3E5" transform="translate(295,405)"/>
<path d="M0 0 C-0.15339844 0.65355469 -0.30679688 1.30710937 -0.46484375 1.98046875 C-1.13379594 5.75492159 -1.35407297 9.48905996 -1.5625 13.3125 C-1.60568359 14.05306641 -1.64886719 14.79363281 -1.69335938 15.55664062 C-1.79870432 17.37091464 -1.89978316 19.1854355 -2 21 C-2.33 21 -2.66 21 -3 21 C-3 15.06 -3 9.12 -3 3 C-5.31 3 -7.62 3 -10 3 C-10.33 3.99 -10.66 4.98 -11 6 C-11.33 4.68 -11.66 3.36 -12 2 C-11.34 2 -10.68 2 -10 2 C-10 1.34 -10 0.68 -10 0 C-6.33694766 -0.74926071 -3.57644848 -1.2380014 0 0 Z " fill="#222323" transform="translate(248,383)"/>
<path d="M0 0 C0.886875 0.185625 1.77375 0.37125 2.6875 0.5625 C5.88956019 1.17665171 5.88956019 1.17665171 8.5625 0.4375 C11.62242963 -0.11171814 13.2481348 0.66337976 16 2 C15.15695312 2.19916016 15.15695312 2.19916016 14.296875 2.40234375 C11.90633847 3.02437111 9.58964225 3.77115041 7.25 4.5625 C6.05117188 4.96662109 6.05117188 4.96662109 4.828125 5.37890625 C4.22484375 5.58386719 3.6215625 5.78882813 3 6 C2.34 5.34 1.68 4.68 1 4 C0.01 4.495 0.01 4.495 -1 5 C-0.67 3.35 -0.34 1.7 0 0 Z " fill="#343233" transform="translate(349,382)"/>
<path d="M0 0 C0.99 0 1.98 0 3 0 C3 0.99 3 1.98 3 3 C4.65 2.67 6.3 2.34 8 2 C8 2.66 8 3.32 8 4 C7.34 4 6.68 4 6 4 C5.79375 4.639375 5.5875 5.27875 5.375 5.9375 C4 8 4 8 0.875 8.75 C-0.548125 8.87375 -0.548125 8.87375 -2 9 C-2.125 5.625 -2.125 5.625 -2 2 C-1.34 1.34 -0.68 0.68 0 0 Z " fill="#383736" transform="translate(200,382)"/>
<path d="M0 0 C0.66 0.33 1.32 0.66 2 1 C-0.12780579 3.34058637 -2.11562221 4.70700306 -5 6 C-5 7.98 -5 9.96 -5 12 C-5.99 12.495 -5.99 12.495 -7 13 C-8.13350534 15.01669827 -8.13350534 15.01669827 -9 17 C-9.19477739 15.37585622 -9.38059458 13.75063577 -9.5625 12.125 C-9.66691406 11.22007812 -9.77132812 10.31515625 -9.87890625 9.3828125 C-10 7 -10 7 -9 5 C-8.01 5 -7.02 5 -6 5 C-6 4.34 -6 3.68 -6 3 C-4.03533587 1.93224776 -2.03144641 0.93446535 0 0 Z " fill="#343433" transform="translate(147,144)"/>
<path d="M0 0 C0.66 0.33 1.32 0.66 2 1 C2 1.33 2 1.66 2 2 C3.65 1.67 5.3 1.34 7 1 C2.950809 5.83290538 -0.96719209 7.3833652 -7 9 C-6.34 7.68 -5.68 6.36 -5 5 C-5.66 4.67 -6.32 4.34 -7 4 C-1.7265625 0.77734375 -1.7265625 0.77734375 0 0 Z " fill="#242424" transform="translate(203,109)"/>
<path d="M0 0 C0.680625 0.4125 1.36125 0.825 2.0625 1.25 C3.64771379 2.19438268 5.23831627 3.13094852 6.85546875 4.01953125 C11.8976707 6.79534139 11.8976707 6.79534139 13 9 C14.64363134 9.72159424 16.31050386 10.39351421 18 11 C14.88407501 12.03864166 13.9737344 12.09036928 11 11 C10.67 10.34 10.34 9.68 10 9 C9.34 9.66 8.68 10.32 8 11 C6.62437146 9.71034824 5.29233607 8.37310707 4 7 C4 6.34 4 5.68 4 5 C3.34 5 2.68 5 2 5 C1.34 3.35 0.68 1.7 0 0 Z " fill="#242323" transform="translate(107,291)"/>
<path d="M0 0 C0 0.66 0 1.32 0 2 C-1.65 2.33 -3.3 2.66 -5 3 C-5.77772405 5.33317216 -6.42415568 7.61435923 -7 10 C-7.7425 9.649375 -8.485 9.29875 -9.25 8.9375 C-12.1322726 7.95490707 -13.21176345 7.9673198 -16 9 C-12.52836944 4.73936249 -5.68877082 0 0 0 Z " fill="#1D1D1D" transform="translate(315,301)"/>
<path d="M0 0 C0.33 0 0.66 0 1 0 C1.33 2.31 1.66 4.62 2 7 C2.99 7 3.98 7 5 7 C5 7.66 5 8.32 5 9 C4.236875 9.020625 3.47375 9.04125 2.6875 9.0625 C1.800625 9.371875 0.91375 9.68125 0 10 C-1.06902939 12.30252483 -2.07175817 14.6372026 -3 17 C-3.99 17.33 -4.98 17.66 -6 18 C-6.36995516 13.43721973 -6.36995516 13.43721973 -4.625 11.375 C-3.820625 10.694375 -3.820625 10.694375 -3 10 C-0.70366176 6.55549263 -0.45983515 4.06187717 0 0 Z " fill="#313232" transform="translate(264,400)"/>
<path d="M0 0 C0.75 1.75 0.75 1.75 1 4 C-1.81658852 7.91873185 -6.43067091 10.54531125 -11 12 C-13.25 11.60546875 -13.25 11.60546875 -15 11 C-12.8782637 9.66121428 -10.75294812 8.32884524 -8.625 7 C-8.02171875 6.6184375 -7.4184375 6.236875 -6.796875 5.84375 C-2.2265625 3 -2.2265625 3 0 3 C0 2.01 0 1.02 0 0 Z " fill="#C3C3C1" transform="translate(347,262)"/>
<path d="M0 0 C0.33 0 0.66 0 1 0 C1 5.94 1 11.88 1 18 C-1.97 17.01 -4.94 16.02 -8 15 C-7.01 14.01 -6.02 13.02 -5 12 C-3.68 12 -2.36 12 -1 12 C-0.67 8.04 -0.34 4.08 0 0 Z " fill="#696B6A" transform="translate(290,253)"/>
<path d="M0 0 C1.485 0.99 1.485 0.99 3 2 C3 2.66 3 3.32 3 4 C3.66 4 4.32 4 5 4 C5.33 6.64 5.66 9.28 6 12 C3.03 11.505 3.03 11.505 0 11 C-0.33 10.01 -0.66 9.02 -1 8 C-0.67 7.67 -0.34 7.34 0 7 C0.04092937 4.66702567 0.04241723 2.33294775 0 0 Z " fill="#595958" transform="translate(106,292)"/>
<path d="M0 0 C0.33 0 0.66 0 1 0 C1.04898437 1.31355469 1.09796875 2.62710938 1.1484375 3.98046875 C1.22349468 5.71616595 1.29904123 7.45184203 1.375 9.1875 C1.4059375 10.05181641 1.436875 10.91613281 1.46875 11.80664062 C1.6762495 16.31975471 2.07630574 19.84763556 4 24 C4 24.99 4 25.98 4 27 C2.68 27.33 1.36 27.66 0 28 C0 18.76 0 9.52 0 0 Z " fill="#0F0D0E" transform="translate(374,134)"/>
<path d="M0 0 C1.32 0 2.64 0 4 0 C4 6.6 4 13.2 4 20 C3.67 20 3.34 20 3 20 C2.67 14.39 2.34 8.78 2 3 C1.34 3 0.68 3 0 3 C0 2.01 0 1.02 0 0 Z M-6 2 C-4.68 2 -3.36 2 -2 2 C-1.67 3.32 -1.34 4.64 -1 6 C-2.65 5.67 -4.3 5.34 -6 5 C-6 4.01 -6 3.02 -6 2 Z " fill="#454647" transform="translate(178,386)"/>
<path d="M0 0 C2.90566174 -0.24213848 4.66729453 -0.16185671 7.3125 1.125 C9 3 9 3 9.25 6.1875 C9.1675 7.115625 9.085 8.04375 9 9 C8.34 9 7.68 9 7 9 C6.54625 8.195625 6.0925 7.39125 5.625 6.5625 C4.26558077 3.88216428 4.26558077 3.88216428 1.9375 3.125 C-0.08247889 2.83129318 -0.08247889 2.83129318 -2 4 C-1.34 2.68 -0.68 1.36 0 0 Z " fill="#878988" transform="translate(282,268)"/>
<path d="M0 0 C1.65 0.33 3.3 0.66 5 1 C5.5625 2.9375 5.5625 2.9375 6 5 C5 6 5 6 2.93359375 6.09765625 C2.10988281 6.08605469 1.28617187 6.07445312 0.4375 6.0625 C-0.38878906 6.05347656 -1.21507812 6.04445313 -2.06640625 6.03515625 C-2.70449219 6.02355469 -3.34257812 6.01195312 -4 6 C-2.68 5.67 -1.36 5.34 0 5 C-0.33 4.01 -0.66 3.02 -1 2 C-0.67 1.34 -0.34 0.68 0 0 Z " fill="#2C2D2F" transform="translate(360,404)"/>
<path d="M0 0 C1.09570312 0.00902344 2.19140625 0.01804688 3.3203125 0.02734375 C4.16335937 0.03894531 5.00640625 0.05054688 5.875 0.0625 C5.875 0.7225 5.875 1.3825 5.875 2.0625 C-3.125 3.0625 -3.125 3.0625 -12.125 4.0625 C-7.73352102 0.69569945 -5.58834737 -0.0594505 0 0 Z " fill="#0A0A0A" transform="translate(240.125,141.9375)"/>
<path d="M0 0 C2.0625 1.75 2.0625 1.75 4 4 C3.78842197 6.39788436 3.07207819 7.85584361 2 10 C2.66 10 3.32 10 4 10 C4.33 9.34 4.66 8.68 5 8 C5.33 8.99 5.66 9.98 6 11 C4.35 11.33 2.7 11.66 1 12 C1.33 9.36 1.66 6.72 2 4 C1.01 4.33 0.02 4.66 -1 5 C-1.66 4.67 -2.32 4.34 -3 4 C-2 2 -2 2 0 0 Z " fill="#303133" transform="translate(103,399)"/>
<path d="M0 0 C0 0.33 0 0.66 0 1 C-1.093125 1.309375 -2.18625 1.61875 -3.3125 1.9375 C-5.55407994 2.58337897 -7.7869351 3.2623117 -10 4 C-10 4.99 -10 5.98 -10 7 C-11.98 7.33 -13.96 7.66 -16 8 C-15.34 7.67 -14.68 7.34 -14 7 C-14 6.01 -14 5.02 -14 4 C-12.42466914 3.13116294 -10.83935491 2.28040932 -9.25 1.4375 C-8.36828125 0.96183594 -7.4865625 0.48617188 -6.578125 -0.00390625 C-3.79298812 -1.07998186 -2.73019786 -1.06528748 0 0 Z " fill="#212121" transform="translate(263,331)"/>
<path d="M0 0 C4.23429756 1.31061591 8.07407404 2.94356259 12 5 C11.67 5.99 11.34 6.98 11 8 C11 7.34 11 6.68 11 6 C7.37 5.67 3.74 5.34 0 5 C-0.33 4.01 -0.66 3.02 -1 2 C-0.67 1.34 -0.34 0.68 0 0 Z " fill="#1C1C1C" transform="translate(213,327)"/>
<path d="M0 0 C0.845625 0.45375 1.69125 0.9075 2.5625 1.375 C6.06046645 3.02858414 9.26959695 4.03009521 13 5 C13.33 6.32 13.66 7.64 14 9 C13.01 9.495 13.01 9.495 12 10 C12 9.34 12 8.68 12 8 C11.278125 7.9175 10.55625 7.835 9.8125 7.75 C6.43320404 6.84885441 4.62275931 5.26833237 2 3 C1.34 2.67 0.68 2.34 0 2 C0 1.34 0 0.68 0 0 Z " fill="#CFCFCF" transform="translate(200,303)"/>
<path d="M0 0 C-1.134375 0.598125 -2.26875 1.19625 -3.4375 1.8125 C-6.11845427 3.67187151 -6.89300351 4.56715055 -7.6875 7.78125 C-7.914615 10.53501934 -8.03386353 13.23770351 -8 16 C-8.33 16 -8.66 16 -9 16 C-9.13489391 13.73078464 -9.23193995 11.4592933 -9.3125 9.1875 C-9.37050781 7.92292969 -9.42851562 6.65835938 -9.48828125 5.35546875 C-9 2 -9 2 -6.73046875 -0.01171875 C-3.86328243 -1.04948433 -2.77375434 -1.13004806 0 0 Z " fill="#BFC2C3" transform="translate(159,152)"/>
<path d="M0 0 C3.66881155 0.70554068 6.70450534 2.27735506 10 4 C9.67 4.66 9.34 5.32 9 6 C8.01 6.33 7.02 6.66 6 7 C5.67 6.34 5.34 5.68 5 5 C3.35 5.66 1.7 6.32 0 7 C0.185625 6.21625 0.37125 5.4325 0.5625 4.625 C1.25962266 2.02910225 1.25962266 2.02910225 0 0 Z " fill="#3F3D3F" transform="translate(99,411)"/>
<path d="M0 0 C2 1 2 1 3.1875 4.25 C3.95056032 7.77181687 4.18352954 9.64666631 3 13 C2.01 13.495 2.01 13.495 1 14 C0.63906896 11.85529407 0.28642411 9.70919203 -0.0625 7.5625 C-0.25972656 6.36753906 -0.45695312 5.17257812 -0.66015625 3.94140625 C-0.77230469 2.97074219 -0.88445312 2.00007813 -1 1 C-0.67 0.67 -0.34 0.34 0 0 Z " fill="#1C1F22" transform="translate(336,403)"/>
<path d="M0 0 C-0.8125 2.4375 -0.8125 2.4375 -2 5 C-5.28976808 6.09658936 -6.71303767 5.79953138 -10 5 C-10 4.34 -10 3.68 -10 3 C-3.375 -1.125 -3.375 -1.125 0 0 Z " fill="#202020" transform="translate(295,313)"/>
<path d="M0 0 C0.66 0.66 1.32 1.32 2 2 C4.19704511 2.67651207 4.19704511 2.67651207 6.625 3.125 C7.44226563 3.29257812 8.25953125 3.46015625 9.1015625 3.6328125 C9.72804688 3.75398438 10.35453125 3.87515625 11 4 C11 4.33 11 4.66 11 5 C6.71 5 2.42 5 -2 5 C-2.33 5.66 -2.66 6.32 -3 7 C-3.66 6.34 -4.32 5.68 -5 5 C-5 4.01 -5 3.02 -5 2 C-3.68 2 -2.36 2 -1 2 C-0.67 1.34 -0.34 0.68 0 0 Z " fill="#D7D8D9" transform="translate(355,394)"/>
<path d="M0 0 C-0.5625 2.375 -0.5625 2.375 -2 5 C-5.625 6.3125 -5.625 6.3125 -9 7 C-9.66 6.34 -10.32 5.68 -11 5 C-9.54462432 4.16151196 -8.08559627 3.32936066 -6.625 2.5 C-5.81289062 2.0359375 -5.00078125 1.571875 -4.1640625 1.09375 C-2 0 -2 0 0 0 Z " fill="#A5A5A5" transform="translate(254,316)"/>
<path d="M0 0 C1.61949011 2.57213134 2.04408751 3.67669159 1.625 6.75 C1.41875 7.4925 1.2125 8.235 1 9 C-0.98 9.33 -2.96 9.66 -5 10 C-3.66511872 6.40608886 -2.03977277 3.24509304 0 0 Z " fill="#DADADA" transform="translate(223,290)"/>
<path d="M0 0 C0.33 0 0.66 0 1 0 C1.125 7.75 1.125 7.75 0 10 C-1.98 10.33 -3.96 10.66 -6 11 C-4.02 7.37 -2.04 3.74 0 0 Z " fill="#3D3F3E" transform="translate(289,255)"/>
<path d="M0 0 C2.475 0.99 2.475 0.99 5 2 C4.34 3.65 3.68 5.3 3 7 C0.525 6.01 0.525 6.01 -2 5 C-2 2 -2 2 0 0 Z " fill="#E3E9EA" transform="translate(109,409)"/>
<path d="M0 0 C0.99 0.33 1.98 0.66 3 1 C4 4 5 7 6 10 C2.20620942 8.50958227 0.31656242 6.30937488 -2 3 C-2 2.34 -2 1.68 -2 1 C-1.34 0.67 -0.68 0.34 0 0 Z " fill="#23262B" transform="translate(298,405)"/>
<path d="M0 0 C0.66 0.66 1.32 1.32 2 2 C1.67 2.66 1.34 3.32 1 4 C1 5.32 1 6.64 1 8 C0.34 8 -0.32 8 -1 8 C-1 8.99 -1 9.98 -1 11 C-1.99 11 -2.98 11 -4 11 C-3.39301257 6.87248551 -1.96189209 3.6678852 0 0 Z " fill="#2A2C2C" transform="translate(129,399)"/>
<path d="M0 0 C1.32 0.33 2.64 0.66 4 1 C3.34 2.65 2.68 4.3 2 6 C0.02 6 -1.96 6 -4 6 C-3.67 5.01 -3.34 4.02 -3 3 C-2.34 3 -1.68 3 -1 3 C-0.67 2.01 -0.34 1.02 0 0 Z " fill="#38373A" transform="translate(371,411)"/>
<path d="M0 0 C2.3125 1.5625 2.3125 1.5625 4 3 C0.56484998 3.62457273 -2.49064814 4 -6 4 C-6.66 2.68 -7.32 1.36 -8 0 C-4.62858491 -1.12380503 -3.35507997 -0.98197462 0 0 Z " fill="#363536" transform="translate(354,414)"/>
<path d="M0 0 C0 0.99 0 1.98 0 3 C-1.42578125 4.421875 -1.42578125 4.421875 -3.3125 5.75 C-3.92738281 6.19859375 -4.54226563 6.6471875 -5.17578125 7.109375 C-7 8 -7 8 -10 7 C-4.84210526 0 -4.84210526 0 0 0 Z " fill="#BDBDBB" transform="translate(332,274)"/>
<path d="M0 0 C2.625 0.9375 2.625 0.9375 5 2 C2.60490662 4.89932357 0.68754757 5.50168276 -3 6 C-2.625 3.5625 -2.625 3.5625 -2 1 C-1.34 0.67 -0.68 0.34 0 0 Z " fill="#CFD1D0" transform="translate(293,275)"/>
<path d="M0 0 C2.64 0 5.28 0 8 0 C7.3125 2.4375 7.3125 2.4375 6 5 C3.375 5.8125 3.375 5.8125 1 6 C0.67 5.34 0.34 4.68 0 4 C1.32 3.67 2.64 3.34 4 3 C2.68 2.01 1.36 1.02 0 0 Z " fill="#404449" transform="translate(111,405)"/>
<path d="M0 0 C0.66 0.33 1.32 0.66 2 1 C2.40729228 3.32156597 2.74438677 5.6568787 3 8 C2.01 8 1.02 8 0 8 C-1.33981486 8.3062434 -2.67511887 8.63451555 -4 9 C-2.94124926 5.59687262 -1.99097846 2.98646769 0 0 Z " fill="#D1D3D2" transform="translate(236,267)"/>
<path d="M0 0 C0.33 0.66 0.66 1.32 1 2 C-0.11179163 5.33537489 -1.47411298 6.63707344 -4 9 C-5.32 8.34 -6.64 7.68 -8 7 C-5.53058944 4.40062046 -2.81939117 2.20979308 0 0 Z " fill="#343535" transform="translate(227,409)"/>
<path d="M0 0 C2.31 0 4.62 0 7 0 C7 1.65 7 3.3 7 5 C4.04335481 6.4783226 1.25770263 6.06032783 -2 6 C-2 5.67 -2 5.34 -2 5 C-0.35 5 1.3 5 3 5 C3.33 3.68 3.66 2.36 4 1 C2.68 0.67 1.36 0.34 0 0 Z " fill="#545557" transform="translate(213,404)"/>
<path d="M0 0 C-0.33 1.65 -0.66 3.3 -1 5 C-3.97 4.505 -3.97 4.505 -7 4 C-7 3.01 -7 2.02 -7 1 C-4.53721199 -0.231394 -2.7204945 -0.07159196 0 0 Z " fill="#E6E7E9" transform="translate(360,398)"/>
<path d="M0 0 C0.7425 0.0825 1.485 0.165 2.25 0.25 C1.92 1.57 1.59 2.89 1.25 4.25 C0.26 4.25 -0.73 4.25 -1.75 4.25 C-1.75 4.91 -1.75 5.57 -1.75 6.25 C-4.225 5.26 -4.225 5.26 -6.75 4.25 C-3.42692308 0.31153846 -3.42692308 0.31153846 0 0 Z " fill="#252626" transform="translate(300.75,381.75)"/>
<path d="M0 0 C3.96 0 7.92 0 12 0 C11.67 1.32 11.34 2.64 11 4 C9.53984709 3.71758359 8.08190207 3.42373386 6.625 3.125 C5.81289062 2.96257812 5.00078125 2.80015625 4.1640625 2.6328125 C2 2 2 2 0 0 Z " fill="#CFD0D0" transform="translate(232,306)"/>
<path d="M0 0 C0.66 0.33 1.32 0.66 2 1 C-1.625 5.875 -1.625 5.875 -5 7 C-7.1875 6.0625 -7.1875 6.0625 -9 5 C-7.54735962 4.1361871 -6.0876837 3.28419546 -4.625 2.4375 C-3.40683594 1.72400391 -3.40683594 1.72400391 -2.1640625 0.99609375 C-1.44992187 0.66738281 -0.73578125 0.33867187 0 0 Z " fill="#202020" transform="translate(324,295)"/>
<path d="M0 0 C0.55171875 0.23589844 1.1034375 0.47179687 1.671875 0.71484375 C-0.28057685 1.9119893 -2.24027497 3.09732449 -4.203125 4.27734375 C-5.29367188 4.93863281 -6.38421875 5.59992188 -7.5078125 6.28125 C-8.90386719 6.99087891 -8.90386719 6.99087891 -10.328125 7.71484375 C-10.988125 7.38484375 -11.648125 7.05484375 -12.328125 6.71484375 C-10.75638425 5.51204214 -9.17024942 4.328031 -7.578125 3.15234375 C-6.69640625 2.49105469 -5.8146875 1.82976562 -4.90625 1.1484375 C-2.328125 -0.28515625 -2.328125 -0.28515625 0 0 Z " fill="#2B2C2C" transform="translate(161.328125,136.28515625)"/>
<path d="M0 0 C0 0.66 0 1.32 0 2 C-0.66 2 -1.32 2 -2 2 C-2 2.66 -2 3.32 -2 4 C-5.50776784 5.60355101 -8.14354879 6.22036864 -12 6 C-8.59780735 3.25207517 -4.51535412 0 0 0 Z " fill="#A3A3A1" transform="translate(266,310)"/>
<path d="M0 0 C5.75 1.625 5.75 1.625 8 5 C3.25 6 3.25 6 1 6 C0.67 4.02 0.34 2.04 0 0 Z " fill="#1D1F1E" transform="translate(173,305)"/>
<path d="M0 0 C2.97 0.495 2.97 0.495 6 1 C5.01 2.98 4.02 4.96 3 7 C0.525 6.01 0.525 6.01 -2 5 C-1.67 4.360625 -1.34 3.72125 -1 3.0625 C0.07271225 1.23205433 0.07271225 1.23205433 0 0 Z M2 1 C3 3 3 3 3 3 Z " fill="#E0E0E0" transform="translate(219,256)"/>
<path d="M0 0 C0.33 0.66 0.66 1.32 1 2 C2.98 1.34 4.96 0.68 7 0 C5.19587357 3.26460973 4.16605307 4.88929795 1 7 C0.67 6.01 0.34 5.02 0 4 C-0.99 4.495 -0.99 4.495 -2 5 C-1.34 3.35 -0.68 1.7 0 0 Z " fill="#272727" transform="translate(213,154)"/>
<path d="M0 0 C1.9375 0.3125 1.9375 0.3125 4 1 C4.33 1.99 4.66 2.98 5 4 C4.01 5.485 4.01 5.485 3 7 C2.34 7 1.68 7 1 7 C0.67 4.69 0.34 2.38 0 0 Z " fill="#101114" transform="translate(284,407)"/>
<path d="M0 0 C1.32 0.33 2.64 0.66 4 1 C4 2.65 4 4.3 4 6 C1.69 5.67 -0.62 5.34 -3 5 C-2.01 4.34 -1.02 3.68 0 3 C0 2.01 0 1.02 0 0 Z " fill="#191A1C" transform="translate(356,403)"/>
<path d="M0 0 C1.11375 0.2475 1.11375 0.2475 2.25 0.5 C5.19006578 1.11925696 5.19006578 1.11925696 9 1 C9 1.99 9 2.98 9 4 C8.01 4.33 7.02 4.66 6 5 C2.8125 3.125 2.8125 3.125 0 1 C0 0.67 0 0.34 0 0 Z " fill="#1C1C1C" transform="translate(344,128)"/>
<path d="M0 0 C-1.76245222 1.1999038 -3.53526981 2.38459517 -5.3125 3.5625 C-6.79169922 4.55443359 -6.79169922 4.55443359 -8.30078125 5.56640625 C-9.19152344 6.03949219 -10.08226562 6.51257813 -11 7 C-11.99 6.67 -12.98 6.34 -14 6 C-9.375 2 -9.375 2 -6 2 C-6 1.34 -6 0.68 -6 0 C-2.25 -1.125 -2.25 -1.125 0 0 Z " fill="#292929" transform="translate(186,125)"/>
<path d="M0 0 C0 0.66 0 1.32 0 2 C-1.62249941 2.83819158 -3.24808497 3.6704116 -4.875 4.5 C-6.23238281 5.19609375 -6.23238281 5.19609375 -7.6171875 5.90625 C-10 7 -10 7 -12 7 C-11 4 -11 4 -9.00390625 2.83203125 C-8.19824219 2.49558594 -7.39257812 2.15914063 -6.5625 1.8125 C-5.75941406 1.46832031 -4.95632812 1.12414062 -4.12890625 0.76953125 C-2 0 -2 0 0 0 Z " fill="#2D2D2D" transform="translate(230,78)"/>
<path d="M0 0 C0.66 0.33 1.32 0.66 2 1 C0.35 2.98 -1.3 4.96 -3 7 C-5 6 -5 6 -7 4 C-1.7265625 0.77734375 -1.7265625 0.77734375 0 0 Z " fill="#2C2C2C" transform="translate(203,109)"/>
<path d="M0 0 C0.99 0.66 1.98 1.32 3 2 C3.66 1.67 4.32 1.34 5 1 C5.66 1.33 6.32 1.66 7 2 C7 2.99 7 3.98 7 5 C4.36 4.67 1.72 4.34 -1 4 C-1 1 -1 1 0 0 Z " fill="#38373A" transform="translate(120,413)"/>
<path d="M0 0 C2.31 0 4.62 0 7 0 C6.67 0.66 6.34 1.32 6 2 C5.34 2 4.68 2 4 2 C3.34 3.32 2.68 4.64 2 6 C1.34 6 0.68 6 0 6 C0 4.02 0 2.04 0 0 Z " fill="#14181C" transform="translate(158,393)"/>
<path d="M0 0 C0.66 0.33 1.32 0.66 2 1 C0.7260411 3.03833424 -0.61061923 5.03852126 -2 7 C-2.66 7 -3.32 7 -4 7 C-4 8.98 -4 10.96 -4 13 C-4.33 13 -4.66 13 -5 13 C-5.61538462 5.73846154 -5.61538462 5.73846154 -2.5 2 C-1.675 1.34 -0.85 0.68 0 0 Z " fill="#E0E1E0" transform="translate(109,387)"/>
<path d="M0 0 C0.66 0.33 1.32 0.66 2 1 C1.319375 1.61875 1.319375 1.61875 0.625 2.25 C-1.05950374 4.06408095 -1.99265971 5.75285627 -3 8 C-3.99 7.34 -4.98 6.68 -6 6 C-6 5.01 -6 4.02 -6 3 C-4.03533587 1.93224776 -2.03144641 0.93446535 0 0 Z " fill="#1F1F1F" transform="translate(270,324)"/>
<path d="M0 0 C3.7910119 1.44950455 7.3874638 3.15172566 11 5 C8.92446352 5.5534764 7.15634036 6 5 6 C5 5.34 5 4.68 5 4 C2.525 3.01 2.525 3.01 0 2 C0 1.34 0 0.68 0 0 Z " fill="#BABABA" transform="translate(176,288)"/>
<path d="M0 0 C1.32 0.33 2.64 0.66 4 1 C4 2.32 4 3.64 4 5 C2.68 5.33 1.36 5.66 0 6 C0 4.02 0 2.04 0 0 Z " fill="#0D0D0D" transform="translate(362,269)"/>
<path d="M0 0 C0.99 0.99 1.98 1.98 3 3 C0.69631264 4.06652192 -1.64018187 5.06421005 -4 6 C-4.66 5.67 -5.32 5.34 -6 5 C-6 4.01 -6 3.02 -6 2 C-4.7934375 1.7834375 -4.7934375 1.7834375 -3.5625 1.5625 C-1.07896294 1.25864751 -1.07896294 1.25864751 0 0 Z " fill="#343434" transform="translate(170,107)"/>
<path d="M0 0 C0.66 0.66 1.32 1.32 2 2 C1.34 3.32 0.68 4.64 0 6 C-1.65 5.67 -3.3 5.34 -5 5 C-5 4.34 -5 3.68 -5 3 C-2.5 1.375 -2.5 1.375 0 0 Z " fill="#1A1A1A" transform="translate(314,105)"/>
<path d="M0 0 C0.33 0 0.66 0 1 0 C1 3.3 1 6.6 1 10 C0.01 10 -0.98 10 -2 10 C-2.33 8.02 -2.66 6.04 -3 4 C-2.34 3.67 -1.68 3.34 -1 3 C-0.67 2.01 -0.34 1.02 0 0 Z " fill="#2F2F2F" transform="translate(237,401)"/>
<path d="M0 0 C-1 2 -1 2 -4.375 3.25 C-6.169375 3.62125 -6.169375 3.62125 -8 4 C-8.99 3.34 -9.98 2.68 -11 2 C-7.17010894 0.19769832 -4.21878192 -0.19622241 0 0 Z " fill="#CFCFCF" transform="translate(249,322)"/>
<path d="M0 0 C0.66 0.33 1.32 0.66 2 1 C0.54550599 2.0055761 -0.91372443 3.00430435 -2.375 4 C-3.59316406 4.8353125 -3.59316406 4.8353125 -4.8359375 5.6875 C-7 7 -7 7 -9 7 C-9 6.34 -9 5.68 -9 5 C-8.34 5 -7.68 5 -7 5 C-7 4.34 -7 3.68 -7 3 C-4.69631264 1.93347808 -2.35981813 0.93578995 0 0 Z " fill="#CCCCCB" transform="translate(273,307)"/>
<path d="M0 0 C2.02045442 0.60183749 4.02111039 1.27306096 6 2 C6.33 2.66 6.66 3.32 7 4 C8.64363134 4.72159424 10.31050386 5.39351421 12 6 C8.88407501 7.03864166 7.9737344 7.09036928 5 6 C4.67 5.34 4.34 4.68 4 4 C1.98330173 2.86649466 1.98330173 2.86649466 0 2 C0 1.34 0 0.68 0 0 Z " fill="#141414" transform="translate(113,296)"/>
<path d="M0 0 C1.5625 1.75 1.5625 1.75 3 4 C2.6875 6.25 2.6875 6.25 2 8 C1.01 8 0.02 8 -1 8 C-2.2077558 4.37673261 -1.54311128 3.35853631 0 0 Z " fill="#747371" transform="translate(107,295)"/>
<path d="M0 0 C0.66 0.33 1.32 0.66 2 1 C2.75 3.4375 2.75 3.4375 3 6 C2.34 6.66 1.68 7.32 1 8 C0.34 7.34 -0.32 6.68 -1 6 C-1.99 6.495 -1.99 6.495 -3 7 C-1.125 2.25 -1.125 2.25 0 0 Z " fill="#292929" transform="translate(251,292)"/>
<path d="M0 0 C0.99 0.33 1.98 0.66 3 1 C1.68 3.64 0.36 6.28 -1 9 C-1.66 8.67 -2.32 8.34 -3 8 C-2.45276317 4.62537285 -1.9451 2.91765 0 0 Z " fill="#DADADA" transform="translate(261,270)"/>
<path d="M0 0 C-3.96 1.98 -7.92 3.96 -12 6 C-12 5.34 -12 4.68 -12 4 C-10.56988027 3.13353333 -9.13059381 2.28218171 -7.6875 1.4375 C-6.48673828 0.72400391 -6.48673828 0.72400391 -5.26171875 -0.00390625 C-3 -1 -3 -1 0 0 Z " fill="#7A7879" transform="translate(211,75)"/>
<path d="M0 0 C0.33 0 0.66 0 1 0 C1.33 2.31 1.66 4.62 2 7 C2.99 7 3.98 7 5 7 C5 7.66 5 8.32 5 9 C3.02 9.33 1.04 9.66 -1 10 C-0.67 6.7 -0.34 3.4 0 0 Z " fill="#1F1F21" transform="translate(264,400)"/>
<path d="M0 0 C0 0.99 0 1.98 0 3 C-3.63 3.33 -7.26 3.66 -11 4 C-11 3.34 -11 2.68 -11 2 C-7.17679443 0.57741188 -4.08718695 -0.24042276 0 0 Z " fill="#090A0D" transform="translate(223,396)"/>
<path d="M0 0 C1.32 0.33 2.64 0.66 4 1 C4 1.99 4 2.98 4 4 C3.01 4 2.02 4 1 4 C1 4.66 1 5.32 1 6 C0.01 6 -0.98 6 -2 6 C-1.34 4.02 -0.68 2.04 0 0 Z " fill="#2F2F2E" transform="translate(223,382)"/>
<path d="M0 0 C0 0.99 0 1.98 0 3 C-4.95 4.485 -4.95 4.485 -10 6 C-4 0 -4 0 0 0 Z " fill="#9E9D9B" transform="translate(312,284)"/>
<path d="M0 0 C0.6875 1.8125 0.6875 1.8125 1 4 C-0.125 5.75 -0.125 5.75 -2 7 C-4.6875 7.1875 -4.6875 7.1875 -7 7 C-4.82575883 4.49962266 -3.26954202 3.56371414 0 3 C0 2.01 0 1.02 0 0 Z " fill="#B8B8B8" transform="translate(347,262)"/>
<path d="M0 0 C0.66 0 1.32 0 2 0 C2 0.66 2 1.32 2 2 C2.99 2.33 3.98 2.66 5 3 C3.02 4.32 1.04 5.64 -1 7 C-1.66 6.67 -2.32 6.34 -3 6 C-2.01 4.02 -1.02 2.04 0 0 Z " fill="#5C5F5F" transform="translate(160,144)"/>
<path d="M0 0 C0.66 1.32 1.32 2.64 2 4 C0.68 5.65 -0.64 7.3 -2 9 C-2 6.36 -2 3.72 -2 1 C-1.34 0.67 -0.68 0.34 0 0 Z " fill="#393A3D" transform="translate(186,136)"/>
<path d="M0 0 C0.66 0 1.32 0 2 0 C2 1.65 2 3.3 2 5 C1.01 5.495 1.01 5.495 0 6 C-2.125 5.0625 -2.125 5.0625 -4 4 C-3.67 3.34 -3.34 2.68 -3 2 C-2.01 2 -1.02 2 0 2 C0 1.34 0 0.68 0 0 Z " fill="#2B2B2B" transform="translate(273,116)"/>
<path d="M0 0 C0.99 0.66 1.98 1.32 3 2 C3 3.32 3 4.64 3 6 C1.02 6 -0.96 6 -3 6 C-3 5.34 -3 4.68 -3 4 C-2.01 3.34 -1.02 2.68 0 2 C0 1.34 0 0.68 0 0 Z " fill="#1D1F22" transform="translate(292,393)"/>
<path d="M0 0 C0 0.66 0 1.32 0 2 C-1.65 2.33 -3.3 2.66 -5 3 C-5.33 3.99 -5.66 4.98 -6 6 C-7.32 5.34 -8.64 4.68 -10 4 C-8.71086513 3.32845067 -7.41859796 2.66291141 -6.125 2 C-5.40570313 1.62875 -4.68640625 1.2575 -3.9453125 0.875 C-2 0 -2 0 0 0 Z " fill="#303030" transform="translate(315,301)"/>
<path d="M0 0 C0.99 0.495 0.99 0.495 2 1 C2 1.66 2 2.32 2 3 C2.99 3.33 3.98 3.66 5 4 C5 5.65 5 7.3 5 9 C4.34 9 3.68 9 3 9 C2.01 6.03 1.02 3.06 0 0 Z " fill="#424242" transform="translate(111,298)"/>
<path d="M0 0 C0.66 1.32 1.32 2.64 2 4 C1.525625 4.45375 1.05125 4.9075 0.5625 5.375 C-1.09027808 6.93258204 -1.09027808 6.93258204 -2 9 C-2.66 9 -3.32 9 -4 9 C-2.94124926 5.59687262 -1.99097846 2.98646769 0 0 Z " fill="#C1C2C1" transform="translate(228,281)"/>
<path d="M0 0 C0.66 0 1.32 0 2 0 C2.6875 2.8125 2.6875 2.8125 3 6 C2.01 6.99 1.02 7.98 0 9 C0 6.03 0 3.06 0 0 Z " fill="#101211" transform="translate(306,255)"/>
<path d="M0 0 C0.33 0 0.66 0 1 0 C1.66 2.64 2.32 5.28 3 8 C1.68 8.33 0.36 8.66 -1 9 C-1.09765625 2.84765625 -1.09765625 2.84765625 -1 1 C-0.67 0.67 -0.34 0.34 0 0 Z " fill="#E2E4E3" transform="translate(321,257)"/>
<path d="M0 0 C1.98 0.495 1.98 0.495 4 1 C4 1.99 4 2.98 4 4 C3.34 4 2.68 4 2 4 C1.67 4.66 1.34 5.32 1 6 C1 5.34 1 4.68 1 4 C0.34 4 -0.32 4 -1 4 C-0.67 2.68 -0.34 1.36 0 0 Z " fill="#151515" transform="translate(136,145)"/>
<path d="M0 0 C0.66 0 1.32 0 2 0 C2 0.66 2 1.32 2 2 C2.66 2.33 3.32 2.66 4 3 C1.69 4.32 -0.62 5.64 -3 7 C-3.33 6.34 -3.66 5.68 -4 5 C-3.34 5 -2.68 5 -2 5 C-2 4.01 -2 3.02 -2 2 C-1.34 2 -0.68 2 0 2 C0 1.34 0 0.68 0 0 Z " fill="#434344" transform="translate(200,122)"/>
<path d="M0 0 C0.66 0.99 1.32 1.98 2 3 C1.01 4.485 1.01 4.485 0 6 C-1.32 5.67 -2.64 5.34 -4 5 C-3.67 4.01 -3.34 3.02 -3 2 C-2.34 2.33 -1.68 2.66 -1 3 C-0.67 2.01 -0.34 1.02 0 0 Z " fill="#F3F3F3" transform="translate(354,391)"/>
<path d="M0 0 C0.99 0.33 1.98 0.66 3 1 C2.34 3.31 1.68 5.62 1 8 C0.34 8 -0.32 8 -1 8 C-1.125 2.25 -1.125 2.25 0 0 Z " fill="#222224" transform="translate(172,391)"/>
<path d="M0 0 C1.32 0.33 2.64 0.66 4 1 C5.125 4.75 5.125 4.75 4 7 C3.34 7 2.68 7 2 7 C0.5393715 4.35261084 0 3.10551666 0 0 Z " fill="#363737" transform="translate(367,382)"/>
<path d="M0 0 C1.98 0.66 3.96 1.32 6 2 C3.94766315 4.2477975 2.99332739 5.0022242 0 6 C0 4.02 0 2.04 0 0 Z " fill="#CECECC" transform="translate(321,291)"/>
<path d="M0 0 C0.99 0.33 1.98 0.66 3 1 C2.34 2.65 1.68 4.3 1 6 C0.01 5.34 -0.98 4.68 -2 4 C-2 3.01 -2 2.02 -2 1 C-1.34 0.67 -0.68 0.34 0 0 Z " fill="#393939" transform="translate(213,184)"/>
<path d="M0 0 C2.31 0 4.62 0 7 0 C6.67 0.99 6.34 1.98 6 3 C4.02 3 2.04 3 0 3 C0 2.01 0 1.02 0 0 Z " fill="#7D7C7A" transform="translate(135,106)"/>
<path d="M0 0 C0 0.99 0 1.98 0 3 C-2.31 3.33 -4.62 3.66 -7 4 C-6.34 3.67 -5.68 3.34 -5 3 C-5 2.34 -5 1.68 -5 1 C-3 0 -3 0 0 0 Z " fill="#191E23" transform="translate(121,396)"/>
<path d="M0 0 C1.02104551 0.97850195 2.0206121 1.97980427 3 3 C3 3.33 3 3.66 3 4 C0.69 4 -1.62 4 -4 4 C-4 3.01 -4 2.02 -4 1 C-2.02 1.495 -2.02 1.495 0 2 C0 1.34 0 0.68 0 0 Z " fill="#262626" transform="translate(281,382)"/>
<path d="M0 0 C0.66 0.33 1.32 0.66 2 1 C2 1.99 2 2.98 2 4 C-1.75 5.125 -1.75 5.125 -4 4 C-4 3.34 -4 2.68 -4 2 C-2.125 0.9375 -2.125 0.9375 0 0 Z " fill="#D6D6D6" transform="translate(242,335)"/>
<path d="M0 0 C-0.33 1.32 -0.66 2.64 -1 4 C-2.65 3.67 -4.3 3.34 -6 3 C-3.375 0 -3.375 0 0 0 Z " fill="#171717" transform="translate(361,276)"/>
<path d="M0 0 C-2.64 0.66 -5.28 1.32 -8 2 C-8 1.01 -8 0.02 -8 -1 C-4.59745511 -2.2151946 -3.06748874 -1.86240388 0 0 Z M-10 2 C-9.01 2.495 -9.01 2.495 -8 3 C-8.99 3.495 -8.99 3.495 -10 4 C-10 3.34 -10 2.68 -10 2 Z " fill="#D9D9D7" transform="translate(340,275)"/>
<path d="M0 0 C1.32 0 2.64 0 4 0 C4.66 1.65 5.32 3.3 6 5 C5.05125 4.649375 4.1025 4.29875 3.125 3.9375 C0.12939828 2.64973223 0.12939828 2.64973223 -2 4 C-1.34 2.68 -0.68 1.36 0 0 Z " fill="#939493" transform="translate(282,268)"/>
<path d="M0 0 C0.33 0 0.66 0 1 0 C1 2.31 1 4.62 1 7 C-0.32 7.33 -1.64 7.66 -3 8 C-1.125 2.25 -1.125 2.25 0 0 Z " fill="#CACACA" transform="translate(304,225)"/>
<path d="M0 0 C0.99 0 1.98 0 3 0 C1.25 5.75 1.25 5.75 -1 8 C-1.33 6.02 -1.66 4.04 -2 2 C-1.34 2 -0.68 2 0 2 C0 1.34 0 0.68 0 0 Z " fill="#D6D6D6" transform="translate(285,224)"/>
<path d="M0 0 C1.32 0.66 2.64 1.32 4 2 C2.7934375 2.4021875 2.7934375 2.4021875 1.5625 2.8125 C0.716875 3.204375 -0.12875 3.59625 -1 4 C-1.33 4.99 -1.66 5.98 -2 7 C-2.125 4.625 -2.125 4.625 -2 2 C-1.34 1.34 -0.68 0.68 0 0 Z " fill="#343738" transform="translate(151,150)"/>
<path d="M0 0 C0.66 0.33 1.32 0.66 2 1 C1.34 2.32 0.68 3.64 0 5 C-2.97 4.505 -2.97 4.505 -6 4 C-3.94766315 1.7522025 -2.99332739 0.9977758 0 0 Z " fill="#303030" transform="translate(173,125)"/>
<path d="M0 0 C1.32 1.32 2.64 2.64 4 4 C-0.75 5.125 -0.75 5.125 -3 4 C-2 2 -2 2 0 0 Z " fill="#3D3B3C" transform="translate(103,399)"/>
<path d="M0 0 C-1 3 -1 3 -4 5 C-4.99 4.67 -5.98 4.34 -7 4 C-4.83989616 0.75984424 -3.8842653 0 0 0 Z " fill="#CDCDCC" transform="translate(259,315)"/>
<path d="M0 0 C3 0.3125 3 0.3125 6 1 C6.33 1.66 6.66 2.32 7 3 C5.25 3.6875 5.25 3.6875 3 4 C0.75 2.5625 0.75 2.5625 -1 1 C-0.67 0.67 -0.34 0.34 0 0 Z " fill="#0C0E0D" transform="translate(231,307)"/>
<path d="M0 0 C1.65 0.33 3.3 0.66 5 1 C4.34 2.32 3.68 3.64 3 5 C1.68 4.67 0.36 4.34 -1 4 C-0.67 2.68 -0.34 1.36 0 0 Z " fill="#12110F" transform="translate(300,284)"/>
<path d="M0 0 C0 0.99 0 1.98 0 3 C-0.66 3.66 -1.32 4.32 -2 5 C-3.32 4.34 -4.64 3.68 -6 3 C-6 2.34 -6 1.68 -6 1 C-4.02 0.67 -2.04 0.34 0 0 Z " fill="#D4D4D4" transform="translate(209,284)"/>
<path d="M0 0 C1.32 0 2.64 0 4 0 C4.33 1.98 4.66 3.96 5 6 C4.67 5.34 4.34 4.68 4 4 C3.01 4 2.02 4 1 4 C0.67 2.68 0.34 1.36 0 0 Z " fill="#383637" transform="translate(375,151)"/>
<path d="M0 0 C1.98 0 3.96 0 6 0 C6 0.66 6 1.32 6 2 C3.69 2.66 1.38 3.32 -1 4 C-0.67 2.68 -0.34 1.36 0 0 Z " fill="#808080" transform="translate(130,114)"/>
<path d="M0 0 C0.66 0.33 1.32 0.66 2 1 C2 1.66 2 2.32 2 3 C-1.465 4.485 -1.465 4.485 -5 6 C-3.63016497 2.83884224 -3.0109362 2.0072908 0 0 Z " fill="#111111" transform="translate(208,107)"/>
<path d="M0 0 C-1.65 1.32 -3.3 2.64 -5 4 C-7 3 -7 3 -8 1 C-4.93251126 -0.86240388 -3.40254489 -1.2151946 0 0 Z " fill="#282828" transform="translate(243,92)"/>
<path d="M0 0 C-4.625 3 -4.625 3 -8 3 C-8 2.34 -8 1.68 -8 1 C-4.93251126 -0.86240388 -3.40254489 -1.2151946 0 0 Z " fill="#292929" transform="translate(239,75)"/>
</svg>
