<?xml version="1.0" encoding="UTF-8"?>
<svg version="1.1" xmlns="http://www.w3.org/2000/svg" width="500" height="500">
<path d="M0 0 C165 0 330 0 500 0 C500 165 500 330 500 500 C335 500 170 500 0 500 C0 335 0 170 0 0 Z " fill="#FEFEFE" transform="translate(0,0)"/>
<path d="M0 0 C0.84105286 -0.00095673 1.68210571 -0.00191345 2.54864502 -0.00289917 C4.30993729 -0.00357434 6.07123215 -0.00176678 7.83251953 0.00244141 C10.52251754 0.0078263 13.21235066 0.00246002 15.90234375 -0.00390625 C17.6223962 -0.00324588 19.34244855 -0.00196556 21.0625 0 C22.26105621 -0.00303635 22.26105621 -0.00303635 23.48382568 -0.00613403 C27.37873918 0.01020571 30.96145468 0.17654702 34.765625 1.1328125 C34.05377016 26.78852386 34.05377016 26.78852386 32.2421875 37.46875 C31.13783086 45.95962317 31.0513854 54.58090984 30.765625 63.1328125 C30.105625 63.1328125 29.445625 63.1328125 28.765625 63.1328125 C28.765625 67.0928125 28.765625 71.0528125 28.765625 75.1328125 C28.105625 75.1328125 27.445625 75.1328125 26.765625 75.1328125 C26.77722656 76.31359375 26.78882813 77.494375 26.80078125 78.7109375 C26.81016252 80.26822758 26.81926236 81.82551938 26.828125 83.3828125 C26.83650391 84.16011719 26.84488281 84.93742187 26.85351562 85.73828125 C26.85673828 86.49238281 26.85996094 87.24648437 26.86328125 88.0234375 C26.86851807 88.71469727 26.87375488 89.40595703 26.87915039 90.11816406 C26.76000471 92.23255148 26.34180737 94.09922765 25.765625 96.1328125 C25.12238281 96.14739502 24.47914063 96.16197754 23.81640625 96.17700195 C6.58807065 96.61170407 -9.06725978 97.77306159 -25.24609375 104.046875 C-27.92096588 105.01892004 -30.43346421 105.66512795 -33.234375 106.1328125 C-33.234375 106.7928125 -33.234375 107.4528125 -33.234375 108.1328125 C-39.984375 111.1328125 -39.984375 111.1328125 -42.234375 111.1328125 C-42.234375 111.7928125 -42.234375 112.4528125 -42.234375 113.1328125 C-43.224375 113.1328125 -44.214375 113.1328125 -45.234375 113.1328125 C-45.234375 113.7928125 -45.234375 114.4528125 -45.234375 115.1328125 C-45.894375 115.1328125 -46.554375 115.1328125 -47.234375 115.1328125 C-47.234375 115.7928125 -47.234375 116.4528125 -47.234375 117.1328125 C-48.8991726 118.13592103 -50.56629671 119.13516897 -52.234375 120.1328125 C-58.2718335 125.51086064 -63.65323351 130.83279331 -67.234375 138.1328125 C-68.06725695 139.6240678 -68.92222818 141.103163 -69.796875 142.5703125 C-70.19003906 143.24964844 -70.58320313 143.92898437 -70.98828125 144.62890625 C-71.39949219 145.12519531 -71.81070313 145.62148437 -72.234375 146.1328125 C-73.224375 146.1328125 -74.214375 146.1328125 -75.234375 146.1328125 C-75.234375 146.7928125 -75.234375 147.4528125 -75.234375 148.1328125 C-75.894375 148.1328125 -76.554375 148.1328125 -77.234375 148.1328125 C-77.316875 149.4115625 -77.399375 150.6903125 -77.484375 152.0078125 C-77.87635605 155.56324622 -78.64146804 158.4730182 -80.046875 161.7578125 C-88.2701626 181.51780028 -88.04818665 201.5056296 -83.234375 222.1328125 C-82.93934823 223.9447686 -82.64725731 225.75720757 -82.359375 227.5703125 C-81.05977832 234.01414603 -77.57078068 239.20733014 -73.921875 244.5703125 C-72.234375 247.1328125 -72.234375 247.1328125 -72.234375 249.1328125 C-71.574375 249.1328125 -70.914375 249.1328125 -70.234375 249.1328125 C-69.739375 250.2671875 -69.244375 251.4015625 -68.734375 252.5703125 C-66.49205252 257.16095816 -63.33974988 260.46748318 -59.74609375 264.0546875 C-58.234375 266.1328125 -58.234375 266.1328125 -58.2578125 268.1328125 C-59.51851716 270.71473565 -61.11809893 272.37731688 -63.171875 274.3828125 C-63.88214844 275.08921875 -64.59242188 275.795625 -65.32421875 276.5234375 C-67.234375 278.1328125 -67.234375 278.1328125 -69.234375 278.1328125 C-69.50636719 278.71675781 -69.77835937 279.30070312 -70.05859375 279.90234375 C-72.39202897 284.32889362 -75.25610096 288.48772314 -80.109375 290.0703125 C-81.16125 290.10125 -81.16125 290.10125 -82.234375 290.1328125 C-82.564375 291.4528125 -82.894375 292.7728125 -83.234375 294.1328125 C-84.224375 294.1328125 -85.214375 294.1328125 -86.234375 294.1328125 C-86.399375 294.9784375 -86.564375 295.8240625 -86.734375 296.6953125 C-88.54046755 300.8342746 -90.81133577 302.71407967 -94.26171875 305.51953125 C-96.24612067 307.06432456 -96.24612067 307.06432456 -97.80078125 308.83984375 C-99.234375 310.1328125 -99.234375 310.1328125 -102.234375 310.1328125 C-102.234375 310.7928125 -102.234375 311.4528125 -102.234375 312.1328125 C-104.21697926 313.82013527 -106.2176092 315.48647307 -108.234375 317.1328125 C-108.564375 317.7928125 -108.894375 318.4528125 -109.234375 319.1328125 C-109.894375 319.1328125 -110.554375 319.1328125 -111.234375 319.1328125 C-111.234375 319.7928125 -111.234375 320.4528125 -111.234375 321.1328125 C-112.66578927 322.36449455 -114.1032069 323.59029248 -115.578125 324.76953125 C-117.96144358 326.73127225 -120.08264481 328.92292744 -122.234375 331.1328125 C-123.234375 332.1328125 -124.234375 333.1328125 -125.234375 334.1328125 C-127.171875 333.3828125 -127.171875 333.3828125 -129.234375 332.1328125 C-129.56770833 330.79947917 -129.90104167 329.46614583 -130.234375 328.1328125 C-132.11753659 327.02444827 -132.11753659 327.02444827 -134.234375 326.1328125 C-135.984375 324.6953125 -135.984375 324.6953125 -137.234375 323.1328125 C-137.234375 322.1428125 -137.234375 321.1528125 -137.234375 320.1328125 C-138.554375 319.4728125 -139.874375 318.8128125 -141.234375 318.1328125 C-141.234375 317.4728125 -141.234375 316.8128125 -141.234375 316.1328125 C-141.894375 316.1328125 -142.554375 316.1328125 -143.234375 316.1328125 C-144.68419715 314.16519672 -145.95937137 312.2128665 -147.234375 310.1328125 C-147.7603125 309.30136719 -148.28625 308.46992188 -148.828125 307.61328125 C-153.234375 300.51547759 -153.234375 300.51547759 -153.234375 297.1328125 C-153.894375 297.1328125 -154.554375 297.1328125 -155.234375 297.1328125 C-159.90913604 291.37701296 -163.89569487 285.51599979 -164.8828125 278.0703125 C-165.2896275 275.82830986 -166.21323872 274.15861511 -167.234375 272.1328125 C-167.359375 269.3828125 -167.359375 269.3828125 -167.234375 267.1328125 C-167.894375 267.1328125 -168.554375 267.1328125 -169.234375 267.1328125 C-169.84211474 265.6551103 -170.44532004 264.17554323 -171.046875 262.6953125 C-171.38332031 261.87160156 -171.71976563 261.04789062 -172.06640625 260.19921875 C-175.03149651 252.41461722 -177.14000843 244.65888363 -178.859375 236.5078125 C-179.0759375 235.51007813 -179.2925 234.51234375 -179.515625 233.484375 C-181.71953778 223.1994487 -182.43410318 213.45550807 -182.421875 202.9453125 C-182.42226776 202.23338745 -182.42266052 201.5214624 -182.42306519 200.78796387 C-182.41579492 189.77984825 -181.84565276 178.97037643 -180.44726562 168.04736328 C-180.16121563 165.47488158 -180.12045205 162.90654589 -180.046875 160.3203125 C-178.92876899 146.26412263 -172.86080221 131.89253235 -167.3984375 118.99609375 C-166.46173732 116.69206276 -165.74199815 114.55877895 -165.234375 112.1328125 C-164.574375 112.1328125 -163.914375 112.1328125 -163.234375 112.1328125 C-162.925 110.9571875 -162.925 110.9571875 -162.609375 109.7578125 C-161.06502162 105.6863354 -158.98131271 102.29506435 -156.6875 98.609375 C-155.42173395 96.45212856 -154.44650481 94.39595127 -153.546875 92.0703125 C-153.11375 91.1009375 -152.680625 90.1315625 -152.234375 89.1328125 C-150.749375 88.6378125 -150.749375 88.6378125 -149.234375 88.1328125 C-148.01567571 85.62833734 -148.01567571 85.62833734 -147.234375 83.1328125 C-146.244375 83.1328125 -145.254375 83.1328125 -144.234375 83.1328125 C-144.13125 82.0603125 -144.028125 80.9878125 -143.921875 79.8828125 C-143.26235301 76.28541981 -142.77661309 74.67505059 -140.234375 72.1328125 C-139.574375 72.1328125 -138.914375 72.1328125 -138.234375 72.1328125 C-138.234375 71.4728125 -138.234375 70.8128125 -138.234375 70.1328125 C-137.574375 70.1328125 -136.914375 70.1328125 -136.234375 70.1328125 C-135.739375 68.6478125 -135.739375 68.6478125 -135.234375 67.1328125 C-133.74609375 65.921875 -133.74609375 65.921875 -131.921875 64.7578125 C-127.73326012 61.90232966 -124.86494394 59.02451933 -123.234375 54.1328125 C-122.574375 54.1328125 -121.914375 54.1328125 -121.234375 54.1328125 C-121.234375 53.4728125 -121.234375 52.8128125 -121.234375 52.1328125 C-119.5546875 50.40625 -119.5546875 50.40625 -117.359375 48.5078125 C-116.64007813 47.87617187 -115.92078125 47.24453125 -115.1796875 46.59375 C-113.234375 45.1328125 -113.234375 45.1328125 -111.234375 45.1328125 C-111.234375 44.4728125 -111.234375 43.8128125 -111.234375 43.1328125 C-110.1825 42.5759375 -109.130625 42.0190625 -108.046875 41.4453125 C-105.34594496 39.92297012 -103.73877601 38.63721351 -101.484375 36.3828125 C-100.741875 35.6403125 -99.999375 34.8978125 -99.234375 34.1328125 C-98.244375 34.1328125 -97.254375 34.1328125 -96.234375 34.1328125 C-96.234375 33.4728125 -96.234375 32.8128125 -96.234375 32.1328125 C-95.37714844 31.70871094 -94.51992187 31.28460938 -93.63671875 30.84765625 C-90.32750221 29.17975032 -87.05887002 27.45357872 -83.796875 25.6953125 C-82.65992188 25.08300781 -81.52296875 24.47070312 -80.3515625 23.83984375 C-78.01258966 22.55897767 -75.71084635 21.24881153 -73.421875 19.8828125 C-67.73999228 16.76334748 -62.83437659 14.63781238 -56.234375 15.1328125 C-56.234375 14.4728125 -56.234375 13.8128125 -56.234375 13.1328125 C-54.914375 13.1328125 -53.594375 13.1328125 -52.234375 13.1328125 C-52.234375 12.4728125 -52.234375 11.8128125 -52.234375 11.1328125 C-51.41453125 10.86726562 -50.5946875 10.60171875 -49.75 10.328125 C-48.67234375 9.97492187 -47.5946875 9.62171875 -46.484375 9.2578125 C-45.41703125 8.90976563 -44.3496875 8.56171875 -43.25 8.203125 C-40.33218799 7.24369183 -40.33218799 7.24369183 -38.10546875 6.03515625 C-36.01930886 5.02909584 -34.34490092 4.77295268 -32.046875 4.5703125 C-28.45246561 4.55819716 -28.45246561 4.55819716 -27.234375 3.1328125 C-25.91288673 2.75524442 -24.57601579 2.4309549 -23.234375 2.1328125 C-22.5125 1.9678125 -21.790625 1.8028125 -21.046875 1.6328125 C-14.04021875 0.38718472 -7.10683285 -0.01818831 0 0 Z " fill="#FF5D7B" transform="translate(294.234375,4.8671875)"/>
<path d="M0 0 C5.19109323 0.76905085 8.48972098 4.17378692 11.5703125 8.19921875 C12.86872128 9.95226914 14.14747581 11.71858141 15.42578125 13.48632812 C18.04373139 17.0957982 18.04373139 17.0957982 22 19 C22.33 20.98 22.66 22.96 23 25 C23.66 25 24.32 25 25 25 C25.23074219 25.59167969 25.46148437 26.18335938 25.69921875 26.79296875 C27.82326564 31.93937485 29.97742025 35.08327761 34 39 C35.3125 42.3125 35.3125 42.3125 36 45 C36.66 45 37.32 45 38 45 C38.64771508 46.91603157 39.29309948 48.83285113 39.9375 50.75 C40.47697266 52.35101563 40.47697266 52.35101563 41.02734375 53.984375 C41.77982119 56.31735725 42.44977244 58.61374995 43 61 C43.66 61 44.32 61 45 61 C45.33 63.97 45.66 66.94 46 70 C46.99 70.33 47.98 70.66 49 71 C51.17593243 75.33395595 52.46995434 80.14380516 52 85 C52.66 85 53.32 85 54 85 C54.07347656 85.8353125 54.07347656 85.8353125 54.1484375 86.6875 C54.5190658 90.47046469 54.98560824 93.94782986 56 97.625 C57.4262431 102.84399329 57.48731749 108.23407511 57.75390625 113.609375 C57.88354552 116.79057686 57.88354552 116.79057686 58.50828552 118.97698975 C59.32974194 122.3566233 59.12093545 125.80704047 59.09765625 129.265625 C59.09553383 130.45572174 59.09553383 130.45572174 59.09336853 131.66986084 C59.08778415 134.19661272 59.07523454 136.72327504 59.0625 139.25 C59.05748298 140.96614455 59.05292043 142.68229049 59.04882812 144.3984375 C59.03781984 148.59899269 59.02056596 152.79948117 59 157 C58.34 157 57.68 157 57 157 C57.01160156 157.92683594 57.02320313 158.85367188 57.03515625 159.80859375 C57.04417969 161.00613281 57.05320312 162.20367187 57.0625 163.4375 C57.07990234 165.22994141 57.07990234 165.22994141 57.09765625 167.05859375 C57 170 57 170 56 171 C55.79395915 172.32781878 55.6337041 173.66295895 55.5 175 C55.11111111 178.88888889 55.11111111 178.88888889 54 180 C53.67060646 181.93144391 53.38757281 183.87084318 53.125 185.8125 C49.25999507 211.81602582 49.25999507 211.81602582 42 219 C40.95904417 221.15198629 40.95904417 221.15198629 40.125 223.5625 C36.98790164 231.74519761 33.23305583 238.97668823 28 246 C27.484375 246.886875 26.96875 247.77375 26.4375 248.6875 C24.87784467 251.19651075 23.22548145 253.06167745 21 255 C20.34 255 19.68 255 19 255 C19 255.99 19 256.98 19 258 C18.34 258 17.68 258 17 258 C16.5978125 258.8353125 16.5978125 258.8353125 16.1875 259.6875 C14.89100504 262.21225334 13.57523677 264.63714484 12 267 C11.34 267 10.68 267 10 267 C10 267.66 10 268.32 10 269 C8.87267613 270.16148519 7.73665931 271.31557042 6.5625 272.4296875 C4.10380119 274.9006798 1.94526748 277.62613788 -0.25390625 280.328125 C-2.17780937 282.17025147 -3.39943607 282.61304519 -6 283 C-6 283.66 -6 284.32 -6 285 C-6.66 285 -7.32 285 -8 285 C-8 285.66 -8 286.32 -8 287 C-10.96187272 289.17204 -13.50685991 290.83561997 -17 292 C-17 292.66 -17 293.32 -17 294 C-17.66 294 -18.32 294 -19 294 C-19 294.66 -19 295.32 -19 296 C-21.90548882 298.04169485 -23.40142046 299 -27 299 C-27 299.66 -27 300.32 -27 301 C-27.99 301 -28.98 301 -30 301 C-30 301.66 -30 302.32 -30 303 C-30.99 303 -31.98 303 -33 303 C-33 303.66 -33 304.32 -33 305 C-33.66 305 -34.32 305 -35 305 C-35.185625 305.598125 -35.37125 306.19625 -35.5625 306.8125 C-37.71560902 310.08897025 -40.36779952 310.74751708 -44 312 C-45.32 312 -46.64 312 -48 312 C-48.226875 312.61359375 -48.45375 313.2271875 -48.6875 313.859375 C-50.40657971 316.66311215 -51.94430507 317.1307629 -55 318.25 C-55.886875 318.58515625 -56.77375 318.9203125 -57.6875 319.265625 C-60 320 -60 320 -62 320 C-62 320.66 -62 321.32 -62 322 C-63.65 322 -65.3 322 -67 322 C-67 322.66 -67 323.32 -67 324 C-72.3177215 325.24200752 -77.58201328 326.30834212 -83 327 C-83 327.66 -83 328.32 -83 329 C-100.41863619 334.85714375 -120.95116889 334.28932899 -139.1875 334.25 C-140.34517883 334.24870087 -140.34517883 334.24870087 -141.52624512 334.24737549 C-154.37004496 334.20998501 -154.37004496 334.20998501 -158 333 C-157.67 326.07 -157.34 319.14 -157 312 C-156.34 312 -155.68 312 -155 312 C-155.01160156 310.77925781 -155.02320313 309.55851562 -155.03515625 308.30078125 C-155.20642501 282.41285001 -155.20642501 282.41285001 -153 278 C-152.77532169 276.46331135 -152.59203195 274.92031946 -152.4375 273.375 C-152.35371094 272.55773437 -152.26992187 271.74046875 -152.18359375 270.8984375 C-152.12300781 270.27195312 -152.06242188 269.64546875 -152 269 C-151.34 269 -150.68 269 -150 269 C-150.03480469 267.51113281 -150.03480469 267.51113281 -150.0703125 265.9921875 C-150.08911234 264.61979937 -150.10730788 263.24740286 -150.125 261.875 C-150.14175781 261.22917969 -150.15851563 260.58335937 -150.17578125 259.91796875 C-150.24496535 252.65363799 -149.06649558 246.46546908 -148 239 C-138.1 239 -128.2 239 -118 239 C-118 238.34 -118 237.68 -118 237 C-117.05898437 236.89042969 -116.11796875 236.78085937 -115.1484375 236.66796875 C-113.90320313 236.50941406 -112.65796875 236.35085938 -111.375 236.1875 C-110.14523438 236.03667969 -108.91546875 235.88585937 -107.6484375 235.73046875 C-103.97369077 234.99473252 -101.28427888 233.75771523 -98 232 C-97.34 232 -96.68 232 -96 232 C-95.67 231.01 -95.34 230.02 -95 229 C-92.3828125 227.4296875 -92.3828125 227.4296875 -89.125 225.875 C-88.05507812 225.35679687 -86.98515625 224.83859375 -85.8828125 224.3046875 C-83 223 -83 223 -80 222 C-80 221.34 -80 220.68 -80 220 C-79.34 220 -78.68 220 -78 220 C-78 219.34 -78 218.68 -78 218 C-76.5390625 216.7109375 -76.5390625 216.7109375 -74.625 215.375 C-73.99851562 214.92898438 -73.37203125 214.48296875 -72.7265625 214.0234375 C-71 213 -71 213 -69 213 C-69 212.34 -69 211.68 -69 211 C-68.34 211 -67.68 211 -67 211 C-67 210.34 -67 209.68 -67 209 C-65.625 207.375 -65.625 207.375 -64 206 C-63.34 206 -62.68 206 -62 206 C-61.731875 205.443125 -61.46375 204.88625 -61.1875 204.3125 C-59.314979 200.66601173 -57.6186768 197.60217875 -54.65625 194.71875 C-51.95488372 191.95382216 -49.92451581 189.16884334 -47.8125 185.9375 C-47.13832031 184.91527344 -46.46414063 183.89304687 -45.76953125 182.83984375 C-40.64311196 174.61267638 -39.07893762 165.53061565 -38 156 C-37.67 155.67 -37.34 155.34 -37 155 C-36.75545662 150.58636254 -36.77138106 146.16674388 -36.75976562 141.74707031 C-36.75015955 139.53671179 -36.71920074 137.32732349 -36.6875 135.1171875 C-36.63131727 127.55530232 -37.05478397 121.05713134 -40 114 C-40.35747743 112.6520058 -40.69395711 111.29809407 -41 109.9375 C-41.66391226 107.11305971 -42.54578662 104.50549039 -43.625 101.8125 C-44.82465595 98.75609011 -45.31149438 96.3226067 -45 93 C-45.66 93 -46.32 93 -47 93 C-48.2890625 91.390625 -48.2890625 91.390625 -49.625 89.25 C-50.29402344 88.20585937 -50.29402344 88.20585937 -50.9765625 87.140625 C-52 85 -52 85 -52 81 C-52.66 81 -53.32 81 -54 81 C-54 80.34 -54 79.68 -54 79 C-54.66 79 -55.32 79 -56 79 C-60 74.64705882 -60 74.64705882 -60 71 C-61.98 70.34 -63.96 69.68 -66 69 C-66 65 -66 65 -64.7487793 63.57910156 C-64.13429932 63.1044043 -63.51981934 62.62970703 -62.88671875 62.140625 C-58.76736494 58.74063863 -55.01485946 55.09594926 -51.26953125 51.296875 C-50.66720673 50.68871948 -50.0648822 50.08056396 -49.44430542 49.45397949 C-46.92529164 46.90858752 -44.41081948 44.35878683 -41.90063477 41.8046875 C-40.04884972 39.92266243 -38.19085899 38.04694082 -36.33203125 36.171875 C-35.77046829 35.59685242 -35.20890533 35.02182983 -34.63032532 34.42938232 C-31.61008077 31.39004158 -28.75822231 29.12078904 -25 27 C-23.6696875 25.6696875 -23.6696875 25.6696875 -22.3125 24.3125 C-21.549375 23.549375 -20.78625 22.78625 -20 22 C-19.34 22 -18.68 22 -18 22 C-17.6596875 21.1646875 -17.6596875 21.1646875 -17.3125 20.3125 C-15.64333462 17.37158957 -13.3864325 15.3864325 -11 13 C-10.505 12.175 -10.01 11.35 -9.5 10.5 C-7.69986232 7.49977053 -5.59787655 5.33142768 -3 3 C-2.34 3 -1.68 3 -1 3 C-0.67 2.01 -0.34 1.02 0 0 Z " fill="#47D5FF" transform="translate(334,155)"/>
<path d="M0 0 C0 0.66 0 1.32 0 2 C4.455 2.99 4.455 2.99 9 4 C9 4.66 9 5.32 9 6 C10.5778125 6.37125 10.5778125 6.37125 12.1875 6.75 C15.8163345 7.78259518 18.26483288 9.34771673 21 12 C21 12.66 21 13.32 21 14 C21.54527344 14.05671875 22.09054687 14.1134375 22.65234375 14.171875 C26.03709788 15.36583153 28.12049322 17.72560433 30.5625 20.25 C31.04396484 20.72824219 31.52542969 21.20648438 32.02148438 21.69921875 C34.86881922 24.58963569 37.030491 27.4643754 39 31 C39.721875 31.99 40.44375 32.98 41.1875 34 C43.0546209 37.09040701 43.4138967 38.48187808 43 42 C43.66 42 44.32 42 45 42 C45.20496094 42.78246094 45.40992188 43.56492188 45.62109375 44.37109375 C45.89050781 45.38300781 46.15992188 46.39492187 46.4375 47.4375 C46.70433594 48.44683594 46.97117187 49.45617187 47.24609375 50.49609375 C47.75978077 52.91752001 47.75978077 52.91752001 49 54 C49.31344014 58.47160193 49.27870505 62.95628923 49.3125 67.4375 C49.34150391 68.68466797 49.37050781 69.93183594 49.40039062 71.21679688 C49.4536175 79.00839238 48.58883742 85.04035286 45 92 C44.34 92 43.68 92 43 92 C42.896875 92.53625 42.79375 93.0725 42.6875 93.625 C41.3061052 98.39709113 38.77649255 102.89561971 36 107 C35.34 107 34.68 107 34 107 C33.92652344 107.73605469 33.85304688 108.47210938 33.77734375 109.23046875 C32.79298186 112.73756713 31.31658668 113.97262796 28.5625 116.3125 C27.75941406 117.00988281 26.95632813 117.70726562 26.12890625 118.42578125 C24 120 24 120 22 120 C22 120.66 22 121.32 22 122 C16.13884114 125.38523007 10.49024153 128.45892023 3.97265625 130.359375 C1.97183285 130.93842866 1.97183285 130.93842866 0.18359375 132.015625 C-5.55179326 134.60116619 -12.19797928 134.15503414 -18.375 134.125 C-19.19355469 134.12886719 -20.01210938 134.13273438 -20.85546875 134.13671875 C-26.873261 134.126739 -26.873261 134.126739 -28 133 C-29.93966959 132.76590195 -31.8795052 132.53306435 -33.8203125 132.30859375 C-39.80270376 131.46162438 -45.39609364 129.16291123 -51 127 C-51 126.34 -51 125.68 -51 125 C-51.69480469 124.94714844 -52.38960938 124.89429688 -53.10546875 124.83984375 C-57.02579041 123.70236851 -59.430842 121.31810735 -62.3125 118.5625 C-62.86228516 118.05912109 -63.41207031 117.55574219 -63.97851562 117.03710938 C-65.36567222 115.73955793 -66.68863728 114.37410735 -68 113 C-68 112.34 -68 111.68 -68 111 C-68.5775 110.77054687 -69.155 110.54109375 -69.75 110.3046875 C-77.19598952 105.98704774 -80.90263172 96.72863878 -83.11328125 88.82421875 C-83.9194301 85.92856748 -83.9194301 85.92856748 -85.53051758 83.22973633 C-87.13891717 79.69467765 -87.38659959 77.36028506 -87.3984375 73.5 C-87.40423828 71.6746875 -87.40423828 71.6746875 -87.41015625 69.8125 C-87.39855469 68.554375 -87.38695312 67.29625 -87.375 66 C-87.38660156 64.741875 -87.39820313 63.48375 -87.41015625 62.1875 C-87.40628906 60.970625 -87.40242188 59.75375 -87.3984375 58.5 C-87.39505371 57.3965625 -87.39166992 56.293125 -87.38818359 55.15625 C-86.94542742 51.55628029 -85.74701223 49.15474478 -84 46 C-83.5359375 44.6078125 -83.5359375 44.6078125 -83.0625 43.1875 C-81.66324873 38.9897462 -79.84028882 35.02004839 -78 31 C-77.34 31 -76.68 31 -76 31 C-75.87625 30.4225 -75.7525 29.845 -75.625 29.25 C-74.31368145 24.52925323 -72.47157529 22.31947103 -68.5 19.4375 C-65.62485243 17.34181614 -64.00125378 16.00188066 -62 13 C-61.34 13 -60.68 13 -60 13 C-60 12.34 -60 11.68 -60 11 C-58.10545176 10.03912864 -56.20930419 9.08141031 -54.3125 8.125 C-52.72888672 7.32449219 -52.72888672 7.32449219 -51.11328125 6.5078125 C-34.56116055 -1.50864746 -18.00046241 -2.54197116 0 0 Z " fill="#FDCE4B" transform="translate(449,35)"/>
<path d="M0 0 C1.25828613 -0.00676758 1.25828613 -0.00676758 2.54199219 -0.01367188 C10.32425084 0.00476222 16.75666916 0.42264838 23.75 4.125 C25.58112097 4.71524139 27.41469305 5.29790618 29.25 5.875 C33.95971943 7.54660082 36.34623593 9.28352806 39.28515625 13.26171875 C40.95826878 15.38991789 42.80599697 17.00748185 44.875 18.75 C48.48838517 21.83241063 51.65029327 24.85685487 53.75 29.1875 C54.70185297 31.28456077 54.70185297 31.28456077 56.75 33.0625 C59.74770401 36.15388226 60.75 38.84479479 60.75 43.125 C61.41 43.125 62.07 43.125 62.75 43.125 C67.346539 56.88725666 67.56742552 73.92287542 64.75 88.125 C63.7626546 89.79919438 62.76187895 91.46551852 61.75 93.125 C60.9364552 95.77398123 60.34716942 98.41476956 59.75 101.125 C59.09 101.125 58.43 101.125 57.75 101.125 C57.75 101.785 57.75 102.445 57.75 103.125 C56.76 103.125 55.77 103.125 54.75 103.125 C54.75 103.785 54.75 104.445 54.75 105.125 C54.09 105.125 53.43 105.125 52.75 105.125 C52.62625 105.723125 52.5025 106.32125 52.375 106.9375 C51.75 109.125 51.75 109.125 49.75 112.125 C49.09 112.125 48.43 112.125 47.75 112.125 C47.5025 112.681875 47.255 113.23875 47 113.8125 C45.52075182 116.54910913 43.81532561 118.80150869 41.75 121.125 C41.09 121.125 40.43 121.125 39.75 121.125 C39.75 121.785 39.75 122.445 39.75 123.125 C37.85978687 124.05292281 35.96938327 124.98045924 34.078125 125.90625 C31.75236982 127.07847557 31.75236982 127.07847557 29.671875 128.46875 C23.2444865 132.56323453 17.2790214 132.996995 9.75 133.125 C9.75 133.785 9.75 134.445 9.75 135.125 C3.81 135.125 -2.13 135.125 -8.25 135.125 C-8.25 134.465 -8.25 133.805 -8.25 133.125 C-9.06984375 133.14820313 -9.8896875 133.17140625 -10.734375 133.1953125 C-11.81203125 133.21335937 -12.8896875 133.23140625 -14 133.25 C-15.06734375 133.27320313 -16.1346875 133.29640625 -17.234375 133.3203125 C-20.17470106 133.12987687 -21.77361878 132.65170104 -24.25 131.125 C-24.25 130.465 -24.25 129.805 -24.25 129.125 C-25.44625 129.0425 -26.6425 128.96 -27.875 128.875 C-32.19855449 128.33455569 -34.75947403 126.78083498 -38.25 124.125 C-39.343125 123.444375 -40.43625 122.76375 -41.5625 122.0625 C-44.25 120.125 -44.25 120.125 -45.25 117.125 C-46.12398437 116.95097656 -46.12398437 116.95097656 -47.015625 116.7734375 C-50.43792023 115.78025392 -51.80244998 113.48616522 -54 110.75 C-54.79921875 109.77289063 -55.5984375 108.79578125 -56.421875 107.7890625 C-58.25 105.125 -58.25 105.125 -58.25 102.125 C-58.91 102.125 -59.57 102.125 -60.25 102.125 C-60.25 101.135 -60.25 100.145 -60.25 99.125 C-61.57 98.465 -62.89 97.805 -64.25 97.125 C-64.25 95.475 -64.25 93.825 -64.25 92.125 C-64.91 92.125 -65.57 92.125 -66.25 92.125 C-68.73521696 86.49184155 -69.37921707 81.19311102 -69.34765625 75.0703125 C-69.34443359 73.96171875 -69.34121094 72.853125 -69.33789062 71.7109375 C-69.32951172 70.56882812 -69.32113281 69.42671875 -69.3125 68.25 C-69.30798828 67.0846875 -69.30347656 65.919375 -69.29882812 64.71875 C-69.28708781 61.85411355 -69.2706657 58.98958367 -69.25 56.125 C-68.59 56.125 -67.93 56.125 -67.25 56.125 C-67.353125 55.238125 -67.45625 54.35125 -67.5625 53.4375 C-67.58747964 47.3049987 -64.58881388 41.6727222 -62.25 36.125 C-61.92 35.33480469 -61.59 34.54460937 -61.25 33.73046875 C-60.59715715 32.18938298 -59.92643424 30.65587749 -59.25 29.125 C-58.59 29.125 -57.93 29.125 -57.25 29.125 C-57.25 28.465 -57.25 27.805 -57.25 27.125 C-56.59 27.125 -55.93 27.125 -55.25 27.125 C-55.16363281 26.55394531 -55.07726563 25.98289062 -54.98828125 25.39453125 C-52.09691119 16.5062455 -40.95209226 11.14881376 -33.25 7.125 C-32.53457031 6.73183594 -31.81914063 6.33867187 -31.08203125 5.93359375 C-29.25 5.125 -29.25 5.125 -26.25 5.125 C-26.25 4.465 -26.25 3.805 -26.25 3.125 C-24.93 3.125 -23.61 3.125 -22.25 3.125 C-22.25 2.465 -22.25 1.805 -22.25 1.125 C-14.83299607 0.28078817 -7.4577769 0.01652998 0 0 Z " fill="#20ED89" transform="translate(74.25,324.875)"/>
<path d="M0 0 C-1.24735567 0.6509259 -2.49801832 1.29551669 -3.75 1.9375 C-4.44609375 2.29714844 -5.1421875 2.65679687 -5.859375 3.02734375 C-9.73393514 4.78786469 -13.00797902 5.11831607 -17.25 5.0625 C-18.14203125 5.05347656 -19.0340625 5.04445313 -19.953125 5.03515625 C-20.62859375 5.02355469 -21.3040625 5.01195312 -22 5 C-22 5.66 -22 6.32 -22 7 C-31.9 7 -41.8 7 -52 7 C-52 10.3 -52 13.6 -52 17 C-52.33 18.32 -52.66 19.64 -53 21 C-53.22390317 23.75317974 -53.41393662 26.49305329 -53.5625 29.25 C-53.60568359 29.99507813 -53.64886719 30.74015625 -53.69335938 31.5078125 C-53.79896725 33.338349 -53.89994201 35.16915176 -54 37 C-54.66 37 -55.32 37 -56 37 C-55.98839844 37.62648438 -55.97679687 38.25296875 -55.96484375 38.8984375 C-55.95582031 39.71570313 -55.94679687 40.53296875 -55.9375 41.375 C-55.92589844 42.18710937 -55.91429687 42.99921875 -55.90234375 43.8359375 C-56 46 -56 46 -57 48 C-57.22562581 50.40309095 -57.40040048 52.78687178 -57.53515625 55.1953125 C-57.57813339 55.90275604 -57.62111053 56.61019958 -57.66539001 57.33908081 C-57.80184777 59.60083106 -57.93224248 61.86288502 -58.0625 64.125 C-58.15389808 65.65757592 -58.24569003 67.1901284 -58.33789062 68.72265625 C-58.56316668 72.48151406 -58.7830054 76.24065539 -59 80 C-59.66 80 -60.32 80 -61 80 C-59.48507228 44.45521684 -59.48507228 44.45521684 -58 40 C-57.69116784 36.35406483 -57.49041441 32.70759455 -57.28125 29.0546875 C-57 26 -57 26 -56 25 C-55.71126716 22.09433934 -55.55143901 19.18813984 -55.37890625 16.2734375 C-54.95832094 12.6399273 -54.08480404 9.48718385 -53 6 C-52.27820557 5.97494385 -51.55641113 5.9498877 -50.81274414 5.92407227 C-47.562465 5.80848698 -44.31250312 5.68559226 -41.0625 5.5625 C-39.92619141 5.52318359 -38.78988281 5.48386719 -37.61914062 5.44335938 C-36.53955078 5.40146484 -35.45996094 5.35957031 -34.34765625 5.31640625 C-33.34742432 5.27974854 -32.34719238 5.24309082 -31.31665039 5.20532227 C-29.03930812 5.25328159 -29.03930812 5.25328159 -28 4 C-26.29554813 3.81422064 -24.58573886 3.67670464 -22.875 3.5625 C-17.16389157 3.08965273 -12.18328594 1.81338104 -6.8125 -0.1875 C-3.86101748 -1.04015051 -2.83730276 -0.85665886 0 0 Z " fill="#A9EBFF" transform="translate(238,387)"/>
<path d="M0 0 C2.85544732 1.42772366 2.98109549 3.00875826 4 6 C4.55583908 8.22069681 5.07535832 10.45072903 5.5625 12.6875 C6.43044309 16.96753928 6.43044309 16.96753928 8 21 C8.09848801 23.3966035 8.13987943 25.763464 8.1328125 28.16015625 C8.13424759 29.21776405 8.13424759 29.21776405 8.13571167 30.29673767 C8.13639229 31.78710011 8.13454621 33.27746552 8.13037109 34.76782227 C8.12501318 37.05687058 8.13032409 39.34572337 8.13671875 41.63476562 C8.1360581 43.0807296 8.13477722 44.52669346 8.1328125 45.97265625 C8.13483673 46.66118179 8.13686096 47.34970734 8.13894653 48.05909729 C8.11495764 52.88504236 8.11495764 52.88504236 7 54 C6.64662129 55.46993665 6.34292941 56.95191943 6.0625 58.4375 C5.87816406 59.35144531 5.69382812 60.26539063 5.50390625 61.20703125 C4.97601356 63.91210556 4.97601356 63.91210556 4.77734375 66.32421875 C3.69193105 75.32855794 -1.84710059 82.76679154 -7 90 C-7.99 90.495 -7.99 90.495 -9 91 C-7.55049545 87.2089881 -5.84827434 83.6125362 -4 80 C-3.34 80 -2.68 80 -2 80 C-0.85948394 75.01716284 0.22225866 70.05531868 1 65 C1.66 65 2.32 65 3 65 C3 62.36 3 59.72 3 57 C3.66 57 4.32 57 5 57 C4.98839844 56.21753906 4.97679687 55.43507813 4.96484375 54.62890625 C4.95582031 53.61699219 4.94679688 52.60507812 4.9375 51.5625 C4.92589844 50.55316406 4.91429687 49.54382813 4.90234375 48.50390625 C5 46 5 46 6 45 C6.23701239 42.14122091 6.42219182 39.30116703 6.5625 36.4375 C6.60568359 35.63119141 6.64886719 34.82488281 6.69335938 33.99414062 C6.79975262 31.99631195 6.90040888 29.9981793 7 28 C6.34 28 5.68 28 5 28 C4.97421875 27.29617188 4.9484375 26.59234375 4.921875 25.8671875 C4.49771275 18.48290825 3.02943538 11.89561727 0.83984375 4.8359375 C0 2 0 2 0 0 Z " fill="#B1EDFF" transform="translate(290,257)"/>
<path d="M0 0 C0.33 0 0.66 0 1 0 C3.66055622 5.99315606 3.25294052 11.97710181 3.1953125 18.3984375 C3.1924826 19.58853424 3.18965271 20.77863098 3.18673706 22.00479126 C3.17556817 25.79496437 3.15046917 29.58489866 3.125 33.375 C3.11496597 35.94921533 3.10584085 38.52343438 3.09765625 41.09765625 C3.07563957 47.39851858 3.0421945 53.69924222 3 60 C2.34 60 1.68 60 1 60 C1.04125 61.175625 1.0825 62.35125 1.125 63.5625 C1.13983635 67.72409674 0.31170778 71.06487667 -1 75 C-1.66 75 -2.32 75 -3 75 C-2.96519531 75.71285156 -2.93039062 76.42570312 -2.89453125 77.16015625 C-2.72068154 83.31112456 -3.09535848 87.55379715 -6 93 C-7.49278322 89.11876362 -6.30030822 86.82868532 -5 83 C-4.67190394 80.6203153 -4.44257791 78.24936758 -4.24609375 75.85546875 C-4 74 -4 74 -3 73 C-2.79395915 71.67218122 -2.6337041 70.33704105 -2.5 69 C-2.11111111 65.11111111 -2.11111111 65.11111111 -1 64 C-0.76518307 61.81707226 -0.58636677 59.62796826 -0.4375 57.4375 C-0.35371094 56.23996094 -0.26992188 55.04242188 -0.18359375 53.80859375 C-0.12300781 52.88175781 -0.06242187 51.95492187 0 51 C0.66 51 1.32 51 2 51 C1.88160948 45.94613319 1.7573513 40.89245731 1.62768555 35.83886719 C1.58440984 34.12015695 1.54272959 32.40140576 1.50268555 30.68261719 C1.44480435 28.210161 1.38116164 25.73790953 1.31640625 23.265625 C1.29969376 22.49881409 1.28298126 21.73200317 1.26576233 20.94195557 C1.16953707 17.46618567 0.85313934 14.3551307 0 11 C-0.06688591 9.08438746 -0.08531719 7.16664408 -0.0625 5.25 C-0.05347656 4.26515625 -0.04445313 3.2803125 -0.03515625 2.265625 C-0.02355469 1.51796875 -0.01195312 0.7703125 0 0 Z " fill="#C5F1FF" transform="translate(391,261)"/>
<path d="M0 0 C0.33 0 0.66 0 1 0 C1.02743793 1.9999203 1.04659055 3.99995477 1.0625 6 C1.07410156 7.11375 1.08570313 8.2275 1.09765625 9.375 C0.99128032 13.32367464 0.51245393 17.08478103 0 21 C5.28360659 21.02482718 10.56717878 21.04292007 15.85083008 21.05493164 C17.6460835 21.05994225 19.44133287 21.06675255 21.23657227 21.07543945 C23.82569378 21.0876489 26.41476107 21.09326116 29.00390625 21.09765625 C29.79898087 21.10281754 30.59405548 21.10797882 31.41322327 21.11329651 C36.038742 21.11375605 40.42032467 20.74108526 45 20 C47.6793948 19.89248014 50.31632049 19.9529179 53 20 C43.62296921 25.3257622 31.04176126 24.28636037 20.625 24.1875 C19.31144531 24.18685547 17.99789062 24.18621094 16.64453125 24.18554688 C0.11016221 24.11016221 0.11016221 24.11016221 -2 22 C-2.07271741 19.64686445 -2.08370868 17.29166332 -2.0625 14.9375 C-2.05347656 13.64714844 -2.04445312 12.35679687 -2.03515625 11.02734375 C-2.02355469 10.02832031 -2.01195312 9.02929688 -2 8 C-1.34 8 -0.68 8 0 8 C0 5.36 0 2.72 0 0 Z " fill="#ACECFF" transform="translate(176,467)"/>
<path d="M0 0 C0.33 0 0.66 0 1 0 C1 5.28 1 10.56 1 16 C0.34 16 -0.32 16 -1 16 C-1 19.96 -1 23.92 -1 28 C-1.66 28 -2.32 28 -3 28 C-2.98839844 29.18078125 -2.97679687 30.3615625 -2.96484375 31.578125 C-2.95546248 33.13541508 -2.94636264 34.69270688 -2.9375 36.25 C-2.92912109 37.02730469 -2.92074219 37.80460937 -2.91210938 38.60546875 C-2.90727539 39.73662109 -2.90727539 39.73662109 -2.90234375 40.890625 C-2.89448853 41.92751465 -2.89448853 41.92751465 -2.88647461 42.98535156 C-3 45 -3 45 -4 49 C-13.24 49.33 -22.48 49.66 -32 50 C-28.60102327 47.73401552 -27.43680827 47.76257346 -23.45703125 47.8046875 C-21.84731445 47.81435547 -21.84731445 47.81435547 -20.20507812 47.82421875 C-19.08552734 47.84097656 -17.96597656 47.85773438 -16.8125 47.875 C-15.68134766 47.88402344 -14.55019531 47.89304688 -13.38476562 47.90234375 C-10.58963172 47.92593138 -7.79492155 47.958847 -5 48 C-4.98018066 47.351521 -4.96036133 46.70304199 -4.93994141 46.03491211 C-4.54081071 33.581373 -4.03145128 21.30704466 -2 9 C-1.34 9 -0.68 9 0 9 C0 6.03 0 3.06 0 0 Z " fill="#FF9EB0" transform="translate(324,52)"/>
<path d="M0 0 C4.29 1.32 8.58 2.64 13 4 C13 4.66 13 5.32 13 6 C18.28 6.66 23.56 7.32 29 8 C29 8.66 29 9.32 29 10 C34.94 10 40.88 10 47 10 C47 9.34 47 8.68 47 8 C51.455 7.505 51.455 7.505 56 7 C55.67 7.66 55.34 8.32 55 9 C53.68 9 52.36 9 51 9 C51 9.66 51 10.32 51 11 C41.1 11 31.2 11 21 11 C21 10.34 21 9.68 21 9 C20.278125 9.061875 19.55625 9.12375 18.8125 9.1875 C16 9 16 9 13.75 7.625 C10.01928204 5.42048484 6.22628711 4.78264576 2 4 C2 3.34 2 2.68 2 2 C1.34 2 0.68 2 0 2 C0 1.34 0 0.68 0 0 Z " fill="#A2F7CE" transform="translate(37,450)"/>
<path d="M0 0 C0.66 0 1.32 0 2 0 C1.8583467 2.87526069 1.71181468 5.75013536 1.5625 8.625 C1.50352539 9.83736328 1.50352539 9.83736328 1.44335938 11.07421875 C1.40146484 11.86699219 1.35957031 12.65976563 1.31640625 13.4765625 C1.27974854 14.19924316 1.24309082 14.92192383 1.20532227 15.66650391 C1 18 1 18 0.48632812 20.75390625 C-0.10046901 24.67060039 -0.12459788 28.51210961 -0.09765625 32.4609375 C-0.0962413 33.25150543 -0.09482635 34.04207336 -0.09336853 34.8565979 C-0.08780504 37.36277166 -0.07525944 39.86885358 -0.0625 42.375 C-0.05748028 44.08202995 -0.0529182 45.78906132 -0.04882812 47.49609375 C-0.03784759 51.66409748 -0.02060839 55.83203321 0 60 C-2.12770316 56.80844527 -2.24923573 56.01851868 -2.24291992 52.36083984 C-2.24599655 51.42331879 -2.24907318 50.48579773 -2.25224304 49.51986694 C-2.24505753 48.51042023 -2.23787201 47.50097351 -2.23046875 46.4609375 C-2.23001053 45.4243399 -2.22955231 44.38774231 -2.2290802 43.31973267 C-2.22605896 41.12915909 -2.2181765 38.93858763 -2.20581055 36.74804688 C-2.18753493 33.3814337 -2.18530099 30.01509514 -2.18554688 26.6484375 C-2.18063248 24.5234351 -2.1748045 22.39843458 -2.16796875 20.2734375 C-2.16685593 19.25994232 -2.1657431 18.24644714 -2.16459656 17.20223999 C-2.15821671 16.27102325 -2.15183685 15.33980652 -2.14526367 14.38037109 C-2.14145187 13.55669037 -2.13764008 12.73300964 -2.13371277 11.8843689 C-2 10 -2 10 -1 9 C-0.76807135 7.48530552 -0.58784762 5.96245438 -0.4375 4.4375 C-0.35371094 3.61121094 -0.26992187 2.78492188 -0.18359375 1.93359375 C-0.12300781 1.29550781 -0.06242187 0.65742188 0 0 Z " fill="#FFB9C6" transform="translate(113,167)"/>
<path d="M0 0 C0.33 0 0.66 0 1 0 C0.86149295 3.45866792 0.71295273 6.91683275 0.5625 10.375 C0.50352539 11.85226562 0.50352539 11.85226562 0.44335938 13.359375 C0.40146484 14.30039062 0.35957031 15.24140625 0.31640625 16.2109375 C0.27974854 17.08024902 0.24309082 17.94956055 0.20532227 18.84521484 C0 21 0 21 -1 23 C-1.22562581 25.40309095 -1.40040048 27.78687178 -1.53515625 30.1953125 C-1.57813339 30.90275604 -1.62111053 31.61019958 -1.66539001 32.33908081 C-1.80184777 34.60083106 -1.93224248 36.86288502 -2.0625 39.125 C-2.15389808 40.65757592 -2.24569003 42.1901284 -2.33789062 43.72265625 C-2.56316668 47.48151406 -2.7830054 51.24065539 -3 55 C-3.66 55 -4.32 55 -5 55 C-3.48507228 19.45521684 -3.48507228 19.45521684 -2 15 C-1.69116784 11.35406483 -1.49041441 7.70759455 -1.28125 4.0546875 C-1 1 -1 1 0 0 Z " fill="#C5F1FF" transform="translate(182,412)"/>
<path d="M0 0 C0.83885742 -0.00451172 1.67771484 -0.00902344 2.54199219 -0.01367188 C7.69293201 -0.00147068 12.67234668 0.21745563 17.75 1.125 C18.245 2.115 18.245 2.115 18.75 3.125 C17.70827637 3.07956055 17.70827637 3.07956055 16.64550781 3.03320312 C13.43044677 2.89448493 10.21523069 2.75972654 7 2.625 C5.90816406 2.57730469 4.81632812 2.52960938 3.69140625 2.48046875 C-3.62721076 2.17733077 -10.92538707 2.0653695 -18.25 2.125 C-18.25 2.785 -18.25 3.445 -18.25 4.125 C-25.67857143 6.55357143 -25.67857143 6.55357143 -29.25 5.125 C-28.26 5.125 -27.27 5.125 -26.25 5.125 C-26.25 4.465 -26.25 3.805 -26.25 3.125 C-24.93 3.125 -23.61 3.125 -22.25 3.125 C-22.25 2.465 -22.25 1.805 -22.25 1.125 C-14.83299607 0.28078817 -7.4577769 0.01652998 0 0 Z " fill="#59F1A8" transform="translate(74.25,324.875)"/>
<path d="M0 0 C1.49543669 3.88813539 0.28149455 6.15551636 -1 10 C-1.45785659 13.32443698 -1.74872906 16.654129 -2 20 C-2.66 20 -3.32 20 -4 20 C-3.67 27.26 -3.34 34.52 -3 42 C-6.28582422 38.71417578 -5.29648212 34.63632864 -5.32226562 30.1640625 C-5.31904297 28.87242188 -5.31582031 27.58078125 -5.3125 26.25 C-5.32861328 24.97382812 -5.34472656 23.69765625 -5.36132812 22.3828125 C-5.36197266 21.14789063 -5.36261719 19.91296875 -5.36328125 18.640625 C-5.36626221 17.51172852 -5.36924316 16.38283203 -5.37231445 15.21972656 C-4.95009118 11.56839507 -3.77291246 9.19486915 -2 6 C-1.30028027 4.01132287 -0.62335603 2.01391949 0 0 Z " fill="#FEECBB" transform="translate(367,75)"/>
<path d="M0 0 C0.66 0 1.32 0 2 0 C1.88509088 2.68826864 1.75836801 5.37513469 1.625 8.0625 C1.57859375 9.19075195 1.57859375 9.19075195 1.53125 10.34179688 C1.27941541 15.18961281 0.50831635 19.38308043 -1 24 C-1.66 24 -2.32 24 -3 24 C-2.96519531 24.71285156 -2.93039062 25.42570312 -2.89453125 26.16015625 C-2.72068154 32.31112456 -3.09535848 36.55379715 -6 42 C-7.49278322 38.11876362 -6.30030822 35.82868532 -5 32 C-4.67190394 29.6203153 -4.44257791 27.24936758 -4.24609375 24.85546875 C-4 23 -4 23 -3 22 C-2.79395915 20.67218122 -2.6337041 19.33704105 -2.5 18 C-2.11111111 14.11111111 -2.11111111 14.11111111 -1 13 C-0.76518307 10.81707226 -0.58636677 8.62796826 -0.4375 6.4375 C-0.35371094 5.23996094 -0.26992188 4.04242188 -0.18359375 2.80859375 C-0.12300781 1.88175781 -0.06242187 0.95492188 0 0 Z " fill="#A5EAFF" transform="translate(391,312)"/>
<path d="M0 0 C2.31 0 4.62 0 7 0 C7.02692484 2.29160319 7.04636124 4.58329546 7.0625 6.875 C7.07410156 8.15117187 7.08570313 9.42734375 7.09765625 10.7421875 C7 14 7 14 6 16 C5.7692769 19.22646114 5.60477697 22.44576922 5.48242188 25.67773438 C5.39096924 27.4567469 5.20268004 29.23020624 5 31 C4.34 31.33 3.68 31.66 3 32 C3.13951545 27.95808943 3.28773045 23.91654258 3.4375 19.875 C3.47681641 18.73289062 3.51613281 17.59078125 3.55664062 16.4140625 C3.59853516 15.30546875 3.64042969 14.196875 3.68359375 13.0546875 C3.72025146 12.03874512 3.75690918 11.02280273 3.79467773 9.97607422 C4.00464568 6.93266243 4.45061296 3.99914492 5 1 C3.35 1 1.7 1 0 1 C0 0.67 0 0.34 0 0 Z " fill="#FFCED7" transform="translate(324,5)"/>
<path d="M0 0 C0 0.66 0 1.32 0 2 C-1.16015625 2.05607422 -1.16015625 2.05607422 -2.34375 2.11328125 C-8.08529715 2.47568088 -12.83420368 3.08423521 -18.109375 5.3671875 C-21.41489928 6.47358199 -24.54751156 6.18495474 -28 6 C-28 6.66 -28 7.32 -28 8 C-30.64 8 -33.28 8 -36 8 C-32.29862635 4.45285025 -28.90745357 4.48270035 -24 4 C-23.67 3.67 -23.34 3.34 -23 3 C-15.58077701 0.880222 -7.71842388 -0.24898142 0 0 Z " fill="#FFB6C4" transform="translate(290,5)"/>
<path d="M0 0 C7.875 0.875 7.875 0.875 9 2 C10.32781878 2.20604085 11.66295895 2.3662959 13 2.5 C16.88888889 2.88888889 16.88888889 2.88888889 18 4 C19.56172745 4.08685603 21.12729344 4.10702219 22.69140625 4.09765625 C23.63564453 4.09443359 24.57988281 4.09121094 25.55273438 4.08789062 C26.54595703 4.07951172 27.53917969 4.07113281 28.5625 4.0625 C29.55958984 4.05798828 30.55667969 4.05347656 31.58398438 4.04882812 C34.05604849 4.03700007 36.52799518 4.02051849 39 4 C37 6 37 6 34.58569336 6.24291992 C33.59706299 6.23881104 32.60843262 6.23470215 31.58984375 6.23046875 C30.51798828 6.22853516 29.44613281 6.22660156 28.34179688 6.22460938 C27.21837891 6.21236328 26.09496094 6.20011719 24.9375 6.1875 C23.24657227 6.1865332 23.24657227 6.1865332 21.52148438 6.18554688 C13.14013317 6.14013317 13.14013317 6.14013317 12 5 C9.67182036 4.63239269 7.3381615 4.29758419 5 4 C5 3.34 5 2.68 5 2 C3.35 2 1.7 2 0 2 C0 1.34 0 0.68 0 0 Z " fill="#FDE9AE" transform="translate(404,164)"/>
<path d="M0 0 C0 0.66 0 1.32 0 2 C-1.65 2 -3.3 2 -5 2 C-5 2.66 -5 3.32 -5 4 C-10.3177215 5.24200752 -15.58201328 6.30834212 -21 7 C-21 7.66 -21 8.32 -21 9 C-25.53701494 10.45184478 -29.18061476 11.23509196 -34 11 C-30.86501708 9.14223235 -28.62528568 8.79859524 -25 9 C-25 8.34 -25 7.68 -25 7 C-21.535 6.505 -21.535 6.505 -18 6 C-18 5.34 -18 4.68 -18 4 C-16.89591797 3.81824219 -16.89591797 3.81824219 -15.76953125 3.6328125 C-14.79371094 3.46523438 -13.81789063 3.29765625 -12.8125 3.125 C-11.84957031 2.96257812 -10.88664062 2.80015625 -9.89453125 2.6328125 C-6.52544476 1.89625108 -3.42502947 0 0 0 Z " fill="#A2E9FF" transform="translate(272,475)"/>
<path d="M0 0 C2 1 2 1 3.125 3.3125 C4 6 4 6 4 10 C4.66 10 5.32 10 6 10 C6.53394179 11.4117783 7.05165104 12.82970244 7.5625 14.25 C7.85253906 15.03890625 8.14257812 15.8278125 8.44140625 16.640625 C9.04522837 19.19103452 8.8473932 20.55322229 8 23 C4.31903365 18.25036599 3.41330414 14.99291003 3 9 C2.34 9 1.68 9 1 9 C0.67 6.03 0.34 3.06 0 0 Z " fill="#FFA1B3" transform="translate(121,262)"/>
<path d="M0 0 C1.38476869 3.84657971 0.83061477 7.05457983 0 11 C-0.9873454 12.67419438 -1.98812105 14.34051852 -3 16 C-3.8135448 18.64898123 -4.40283058 21.28976956 -5 24 C-5.66 24 -6.32 24 -7 24 C-7 24.66 -7 25.32 -7 26 C-7.66 25.67 -8.32 25.34 -9 25 C-8.505 23.515 -8.505 23.515 -8 22 C-7.34 22 -6.68 22 -6 22 C-5.505 17.545 -5.505 17.545 -5 13 C-4.34 13 -3.68 13 -3 13 C-3 11.02 -3 9.04 -3 7 C-2.34 7 -1.68 7 -1 7 C-0.67 4.69 -0.34 2.38 0 0 Z " fill="#84F5BE" transform="translate(139,402)"/>
<path d="M0 0 C0.99 0.495 0.99 0.495 2 1 C2 2.65 2 4.3 2 6 C2.66 6 3.32 6 4 6 C4.04898437 6.556875 4.09796875 7.11375 4.1484375 7.6875 C4.53891804 11.6730945 5.04837751 15.44975309 6.125 19.3125 C6.94937403 22.78664771 7.0031506 23.79980831 6 27 C2.88569505 18.39858632 0 9.2023176 0 0 Z " fill="#90E5FF" transform="translate(384,234)"/>
<path d="M0 0 C0.66 0 1.32 0 2 0 C1.62884629 6.73378868 -0.23545189 10.86625509 -3.9375 16.4375 C-4.39318359 17.15615234 -4.84886719 17.87480469 -5.31835938 18.61523438 C-8.69189895 23.84594948 -8.69189895 23.84594948 -11 25 C-9.55049545 21.2089881 -7.84827434 17.6125362 -6 14 C-5.34 14 -4.68 14 -4 14 C-3.34 11.03 -2.68 8.06 -2 5 C-1.34 5 -0.68 5 0 5 C0 3.35 0 1.7 0 0 Z " fill="#93E6FF" transform="translate(292,323)"/>
<path d="M0 0 C0.66 0.33 1.32 0.66 2 1 C1.3503125 1.5878125 1.3503125 1.5878125 0.6875 2.1875 C-1.11875592 4.00171326 -1.11875592 4.00171326 -2.5 6.5 C-5.35558457 11.25930762 -9.08350505 13.54175252 -14 16 C-12.71480435 13.13302508 -11.42870746 11.02392288 -9 9 C-8.34 9 -7.68 9 -7 9 C-7 8.34 -7 7.68 -7 7 C-6.34 7 -5.68 7 -5 7 C-4.731875 6.401875 -4.46375 5.80375 -4.1875 5.1875 C-3.01506533 3.02775192 -1.80630718 1.64209744 0 0 Z " fill="#FFBAC7" transform="translate(190,317)"/>
<path d="M0 0 C2 1 2 1 3.0234375 3.03125 C4.26695122 6.8115317 4.96185465 10.58202903 5.625 14.5 C5.7590625 15.24636719 5.893125 15.99273437 6.03125 16.76171875 C6.68874107 20.55235605 7.16865931 24.13616849 7 28 C6.34 28 5.68 28 5 28 C4.97421875 27.29617188 4.9484375 26.59234375 4.921875 25.8671875 C4.49771275 18.48290825 3.02943538 11.89561727 0.83984375 4.8359375 C0 2 0 2 0 0 Z " fill="#D2F4FF" transform="translate(290,257)"/>
<path d="M0 0 C6.53552298 0.54462691 12.51879508 2.20864446 17 7.25 C17.33 7.8275 17.66 8.405 18 9 C16.58208592 8.54554036 15.16571954 8.08625056 13.75 7.625 C12.96109375 7.36976563 12.1721875 7.11453125 11.359375 6.8515625 C9.13372042 6.04826333 7.09068328 5.10288338 5 4 C5 3.34 5 2.68 5 2 C3.35 2 1.7 2 0 2 C0 1.34 0 0.68 0 0 Z " fill="#7BF4B9" transform="translate(95,329)"/>
<path d="M0 0 C0.66 0.33 1.32 0.66 2 1 C1.65066406 1.80824219 1.30132812 2.61648437 0.94140625 3.44921875 C0.48636719 4.51785156 0.03132812 5.58648437 -0.4375 6.6875 C-0.88996094 7.74324219 -1.34242188 8.79898438 -1.80859375 9.88671875 C-2.85447455 12.61972529 -3.53520748 15.12042337 -4 18 C-4.66 18 -5.32 18 -6 18 C-6 19.65 -6 21.3 -6 23 C-6.66 23 -7.32 23 -8 23 C-6.61354407 18.09407901 -5.16612805 13.20979955 -3.68359375 8.33203125 C-3.06778809 6.23125424 -2.51359623 4.12775579 -2 2 C-1.34 2 -0.68 2 0 2 C0 1.34 0 0.68 0 0 Z " fill="#FFB1C0" transform="translate(219,151)"/>
<path d="M0 0 C-6.08973134 3.49595688 -10.99995111 4.71311275 -18 5 C-15.53719297 1.30578945 -14.33988796 1.25992425 -10.125 0.25 C-8.55105469 -0.14445312 -8.55105469 -0.14445312 -6.9453125 -0.546875 C-4.1636175 -0.97482808 -2.61206494 -0.93378167 0 0 Z " fill="#89E4FF" transform="translate(238,387)"/>
<path d="M0 0 C1.32 0.33 2.64 0.66 4 1 C-0.14010271 5.54075781 -4.82390176 8.71842138 -10 12 C-8.26142784 8.23309364 -6.09741625 5.78767463 -3 3 C-2.34 3 -1.68 3 -1 3 C-0.67 2.01 -0.34 1.02 0 0 Z " fill="#86E3FF" transform="translate(334,155)"/>
<path d="M0 0 C2.1519437 3.22791555 2.20086443 4.28400809 2 8 C2.66 8 3.32 8 4 8 C4 9.98 4 11.96 4 14 C4.66 14 5.32 14 6 14 C6.33 16.64 6.66 19.28 7 22 C6.34 21.67 5.68 21.34 5 21 C5 19.35 5 17.7 5 16 C4.34 16 3.68 16 3 16 C1.35199144 12.33552568 0.66419027 9.18796534 0.375 5.1875 C0.30023437 4.21167969 0.22546875 3.23585938 0.1484375 2.23046875 C0.09945313 1.49441406 0.05046875 0.75835937 0 0 Z " fill="#8BF5C1" transform="translate(5,401)"/>
<path d="M0 0 C1.49543669 3.88813539 0.28149455 6.15551636 -1 10 C-1.45785659 13.32443698 -1.74872906 16.654129 -2 20 C-2.66 20 -3.32 20 -4 20 C-3.40546697 6.3667426 -3.40546697 6.3667426 0 0 Z " fill="#FDDE86" transform="translate(367,75)"/>
<path d="M0 0 C1 2 1 2 0.328125 4.71484375 C-0.02765625 5.77832031 -0.3834375 6.84179688 -0.75 7.9375 C-1.09546875 8.99839844 -1.4409375 10.05929687 -1.796875 11.15234375 C-2.92184275 13.81501092 -3.80210807 15.18737074 -6 17 C-5.67 14.36 -5.34 11.72 -5 9 C-4.34 9 -3.68 9 -3 9 C-3 7.35 -3 5.7 -3 4 C-2.34 4 -1.68 4 -1 4 C-0.67 2.68 -0.34 1.36 0 0 Z " fill="#9BE8FF" transform="translate(383,355)"/>
<path d="M0 0 C0.33 0 0.66 0 1 0 C1 4.29 1 8.58 1 13 C0.34 13 -0.32 13 -1 13 C-1 15.97 -1 18.94 -1 22 C-1.33 22 -1.66 22 -2 22 C-2 17.38 -2 12.76 -2 8 C-1.34 8 -0.68 8 0 8 C0 5.36 0 2.72 0 0 Z " fill="#C4F1FF" transform="translate(176,467)"/>
<path d="M0 0 C0 3.20395416 -0.74335022 5.09399739 -2 8 C-2.99 8 -3.98 8 -5 8 C-5.2475 8.5775 -5.495 9.155 -5.75 9.75 C-7.16683317 12.3002997 -8.87627537 14.01785701 -11 16 C-9.7580393 12.56072421 -8.44259716 9.74792181 -6 7 C-5.34 7 -4.68 7 -4 7 C-4 6.01 -4 5.02 -4 4 C-3.34 4 -2.68 4 -2 4 C-1.34 2.68 -0.68 1.36 0 0 Z " fill="#AAEBFF" transform="translate(357,406)"/>
<path d="M0 0 C0.66 0.33 1.32 0.66 2 1 C0.92456217 1.98783194 -0.16073217 2.96493943 -1.25 3.9375 C-2.15492188 4.75541016 -2.15492188 4.75541016 -3.078125 5.58984375 C-5.08467305 7.06212799 -6.57002449 7.57529189 -9 8 C-9 8.66 -9 9.32 -9 10 C-10.32 9.67 -11.64 9.34 -13 9 C-12.34 9 -11.68 9 -11 9 C-11 8.34 -11 7.68 -11 7 C-10.01 7 -9.02 7 -8 7 C-8 6.34 -8 5.68 -8 5 C-7.01 5 -6.02 5 -5 5 C-5 4.34 -5 3.68 -5 3 C-2.625 1.3125 -2.625 1.3125 0 0 Z " fill="#A3EAFF" transform="translate(312,451)"/>
<path d="M0 0 C3.48331435 3.01887244 4.79157144 5.56909529 6 10 C6.66 10 7.32 10 8 10 C7.67 11.32 7.34 12.64 7 14 C5.82188197 12.42516875 4.65787174 10.83977627 3.5 9.25 C2.8503125 8.36828125 2.200625 7.4865625 1.53125 6.578125 C0 4 0 4 0 0 Z " fill="#8DE5FF" transform="translate(364,190)"/>
<path d="M0 0 C-1.65 0.33 -3.3 0.66 -5 1 C-5 1.66 -5 2.32 -5 3 C-6.32 3 -7.64 3 -9 3 C-9 3.66 -9 4.32 -9 5 C-11.31 5.33 -13.62 5.66 -16 6 C-16 5.34 -16 4.68 -16 4 C-15.01 4 -14.02 4 -13 4 C-13 3.34 -13 2.68 -13 2 C-10.66836622 1.32741333 -8.3347961 0.66152556 -6 0 C-5.236875 -0.226875 -4.47375 -0.45375 -3.6875 -0.6875 C-2 -1 -2 -1 0 0 Z " fill="#FFBBC8" transform="translate(247,15)"/>
<path d="M0 0 C-1 1 -1 1 -2.84765625 1.09765625 C-4.8984375 1.06510417 -6.94921875 1.03255208 -9 1 C-9 1.66 -9 2.32 -9 3 C-11.64 3 -14.28 3 -17 3 C-13.98491736 0.39765489 -11.89591909 -0.43953576 -7.9375 -0.75 C-7.08027344 -0.82734375 -6.22304688 -0.9046875 -5.33984375 -0.984375 C-3 -1 -3 -1 0 0 Z " fill="#FF8FA4" transform="translate(271,10)"/>
<path d="M0 0 C1.09651823 3.41139003 0.94215473 6.20655581 0.5625 9.75 C0.40974609 11.22726562 0.40974609 11.22726562 0.25390625 12.734375 C0.12822266 13.85585938 0.12822266 13.85585938 0 15 C-0.99 15.33 -1.98 15.66 -3 16 C-3 14.02 -3 12.04 -3 10 C-2.34 10 -1.68 10 -1 10 C-1.0309375 8.3603125 -1.0309375 8.3603125 -1.0625 6.6875 C-1 3 -1 3 0 0 Z " fill="#4EF0A2" transform="translate(8,371)"/>
<path d="M0 0 C2.64 0 5.28 0 8 0 C6.68 0.33 5.36 0.66 4 1 C4 1.66 4 2.32 4 3 C-3.42857143 5.42857143 -3.42857143 5.42857143 -7 4 C-6.01 4 -5.02 4 -4 4 C-4 3.34 -4 2.68 -4 2 C-2.68 2 -1.36 2 0 2 C0 1.34 0 0.68 0 0 Z " fill="#7DF4BB" transform="translate(52,326)"/>
<path d="M0 0 C0.99 0 1.98 0 3 0 C3 1.65 3 3.3 3 5 C3.66 5 4.32 5 5 5 C5.33 8.3 5.66 11.6 6 15 C3.70986347 11.5647952 3.82157027 10.014669 4 6 C3.34 6 2.68 6 2 6 C1.34 4.02 0.68 2.04 0 0 Z " fill="#BEF9DD" transform="translate(133,362)"/>
<path d="M0 0 C0.33 0.66 0.66 1.32 1 2 C1.66 2 2.32 2 3 2 C3 3.32 3 4.64 3 6 C3.66 6 4.32 6 5 6 C5.33 8.31 5.66 10.62 6 13 C3.49387834 11.74693917 3.11615658 10.66521628 1.875 8.1875 C1.52179688 7.50042969 1.16859375 6.81335938 0.8046875 6.10546875 C0 4 0 4 0 0 Z " fill="#FFB9C6" transform="translate(212,233)"/>
<path d="M0 0 C0 0.99 0 1.98 0 3 C-4.22857143 7 -4.22857143 7 -8 7 C-7.67 6.01 -7.34 5.02 -7 4 C-6.34 4 -5.68 4 -5 4 C-5 3.34 -5 2.68 -5 2 C-2 0 -2 0 0 0 Z " fill="#FDDE86" transform="translate(394,44)"/>
<path d="M0 0 C0.66 0 1.32 0 2 0 C2 0.99 2 1.98 2 3 C2.66 3 3.32 3 4 3 C4 4.32 4 5.64 4 7 C4.66 7 5.32 7 6 7 C6.33 8.65 6.66 10.3 7 12 C3.18281572 8.7093239 1.74459248 5.62317007 0 1 C0 0.67 0 0.34 0 0 Z " fill="#FF93A7" transform="translate(130,285)"/>
<path d="M0 0 C0.33 0 0.66 0 1 0 C0.91245449 1.75091019 0.80426627 3.50079551 0.6875 5.25 C0.62949219 6.22453125 0.57148437 7.1990625 0.51171875 8.203125 C-0.04636524 11.25341611 -0.96369776 12.70711276 -3 15 C-2.35812082 9.86496656 -1.31727753 5.0056546 0 0 Z " fill="#FF98AC" transform="translate(118,149)"/>
<path d="M0 0 C-2.3129482 2.3129482 -3.47904875 2.49580975 -6.625 3.125 C-7.44226563 3.29257812 -8.25953125 3.46015625 -9.1015625 3.6328125 C-10.04128906 3.81457031 -10.04128906 3.81457031 -11 4 C-11 3.34 -11 2.68 -11 2 C-3.57142857 -1.57142857 -3.57142857 -1.57142857 0 0 Z " fill="#8CE4FF" transform="translate(285,470)"/>
<path d="M0 0 C0.66 0.33 1.32 0.66 2 1 C1.21625 1.598125 0.4325 2.19625 -0.375 2.8125 C-3.14574323 4.91085249 -3.14574323 4.91085249 -5 8 C-7.125 8.6875 -7.125 8.6875 -9 9 C-9 8.34 -9 7.68 -9 7 C-8.34 7 -7.68 7 -7 7 C-7 6.34 -7 5.68 -7 5 C-5.46875 3.7109375 -5.46875 3.7109375 -3.5 2.375 C-2.8503125 1.92898438 -2.200625 1.48296875 -1.53125 1.0234375 C-0.77328125 0.51683594 -0.77328125 0.51683594 0 0 Z " fill="#A7EBFF" transform="translate(324,442)"/>
<path d="M0 0 C0.99 0 1.98 0 3 0 C3.33 1.98 3.66 3.96 4 6 C4.66 6 5.32 6 6 6 C6.33 7.32 6.66 8.64 7 10 C6.34 10 5.68 10 5 10 C3.7109375 8.3203125 3.7109375 8.3203125 2.375 6.125 C1.92898438 5.40570313 1.48296875 4.68640625 1.0234375 3.9453125 C0 2 0 2 0 0 Z " fill="#9BE8FF" transform="translate(353,174)"/>
<path d="M0 0 C0.33 0.66 0.66 1.32 1 2 C0.0625 4.125 0.0625 4.125 -1 6 C-1.99 6 -2.98 6 -4 6 C-4.28875 6.639375 -4.5775 7.27875 -4.875 7.9375 C-6 10 -6 10 -8 11 C-7 9 -6 7 -5 5 C-4.34 5 -3.68 5 -3 5 C-3 4.34 -3 3.68 -3 3 C-2.34 3 -1.68 3 -1 3 C-0.67 2.01 -0.34 1.02 0 0 Z " fill="#FFA7B8" transform="translate(159,72)"/>
<path d="M0 0 C1.485 0.99 1.485 0.99 3 2 C3.29296875 4.3828125 3.29296875 4.3828125 3.1875 7.125 C3.16042969 8.03507812 3.13335937 8.94515625 3.10546875 9.8828125 C3.07066406 10.58148438 3.03585937 11.28015625 3 12 C2.67 12 2.34 12 2 12 C0.86235649 7.73383684 0 4.43513689 0 0 Z " fill="#3CEF98" transform="translate(5,397)"/>
<path d="M0 0 C1.890625 0.21484375 1.890625 0.21484375 4 1 C5.046875 3.06640625 5.046875 3.06640625 5.75 5.5625 C5.99234375 6.38878906 6.2346875 7.21507812 6.484375 8.06640625 C6.65453125 8.70449219 6.8246875 9.34257812 7 10 C3.01338914 7.34225943 1.50027477 4.50082432 0 0 Z " fill="#94F6C7" transform="translate(123,347)"/>
<path d="M0 0 C2.91227269 3.28804981 4.49701212 5.59885603 5 10 C1.95623822 7.97082548 1.25189126 7.27417715 0 4 C0 2.68 0 1.36 0 0 Z " fill="#FFC6D1" transform="translate(125,275)"/>
<path d="M0 0 C2.31 0 4.62 0 7 0 C3.77200707 1.73815004 0.52972833 3.00246808 -3 4 C-3.66 3.67 -4.32 3.34 -5 3 C-3.35 2.67 -1.7 2.34 0 2 C0 1.34 0 0.68 0 0 Z " fill="#FEECBA" transform="translate(409,35)"/>
<path d="M0 0 C0.66 0.33 1.32 0.66 2 1 C1 4 1 4 -2.0625 5.6875 C-3.031875 6.120625 -4.00125 6.55375 -5 7 C-4.1875 5.0625 -4.1875 5.0625 -3 3 C-2.01 2.67 -1.02 2.34 0 2 C0 1.34 0 0.68 0 0 Z " fill="#AEEDFF" transform="translate(344,422)"/>
<path d="M0 0 C0.99 0.495 0.99 0.495 2 1 C2 1.66 2 2.32 2 3 C2.66 3 3.32 3 4 3 C4.33 5.31 4.66 7.62 5 10 C3 9 3 9 2.1484375 6.93359375 C1.89320313 6.10988281 1.63796875 5.28617188 1.375 4.4375 C1.11460937 3.61121094 0.85421875 2.78492188 0.5859375 1.93359375 C0.39257812 1.29550781 0.19921875 0.65742188 0 0 Z " fill="#B3EDFF" transform="translate(285,245)"/>
</svg>
